SplineFontDB: 3.0
FontName: Oswald-Light-Italic
FullName: Oswald Light Italic
FamilyName: Oswald
Weight: Light
Copyright: Copyright (c) 2010-13 by Vernon Adams
Version: 3
ItalicAngle: 0
UnderlinePosition: -46
UnderlineWidth: 14
Ascent: 1658
Descent: 390
UFOAscent: 1658
UFODescent: -390
LayerCount: 2
Layer: 0 0 "Back"  1
Layer: 1 0 "Fore"  0
FSType: 0
OS2Version: 0
OS2_WeightWidthSlopeOnly: 0
OS2_UseTypoMetrics: 1
CreationTime: 1372547996
ModificationTime: 1372549010
PfmFamily: 17
TTFWeight: 300
TTFWidth: 5
LineGap: 0
VLineGap: 0
OS2TypoAscent: 1658
OS2TypoAOffset: 0
OS2TypoDescent: -390
OS2TypoDOffset: 0
OS2TypoLinegap: 0
OS2WinAscent: 1658
OS2WinAOffset: 0
OS2WinDescent: 390
OS2WinDOffset: 0
HheadAscent: 1658
HheadAOffset: 0
HheadDescent: -390
HheadDOffset: 0
OS2Vendor: 'newt'
Lookup: 258 0 0 "'kern' Horizontal Kerning in Cyrillic lookup 0"  {"'kern' Horizontal Kerning in Cyrillic lookup 0 subtable"  "'kern' Horizontal Kerning lookup 3 kerning class 1"  } ['kern' ('DFLT' <'dflt' > 'cyrl' <'dflt' > 'latn' <'dflt' > ) ]
Lookup: 260 0 0 "markMarkPositioninglookup2"  {"markMarkPositioninglookup2 subtable"  } ['mark' ('latn' <'dflt' > 'grek' <'dflt' > 'cyrl' <'dflt' > 'DFLT' <'dflt' > ) ]
MarkAttachClasses: 1
DEI: 91125
KernClass2: 40 56 "'kern' Horizontal Kerning lookup 3 kerning class 1" 
 89 A Aacute Abreve Acircumflex Adieresis Agrave Amacron Aogonek Aring Atilde uni0200 uni0202
 16 D Dcaron uni1E0A
 94 E Eacute Ebreve Ecaron Ecircumflex Edieresis Edotaccent Egrave Emacron Eogonek uni0204 uni0206
 9 F uni1E1E
 52 G Gbreve Gcircumflex Gcommaaccent Gdotaccent uni01F4
 14 K Kcommaaccent
 28 L Lacute Lcaron Lcommaaccent
 9 P uni1E56
 44 R Racute Rcaron Rcommaaccent uni0210 uni0212
 37 T Tcaron Tcommaaccent uni021A uni1E6A
 1 V
 37 W Wacute Wcircumflex Wdieresis Wgrave
 37 Y Yacute Ycircumflex Ydieresis Ygrave
 89 a aacute abreve acircumflex adieresis agrave amacron aogonek aring atilde uni0201 uni0203
 9 afii10017
 19 afii10020 afii10052
 19 afii10037 afii10062

StartChar: A
Encoding: 65 65 0
Width: 977
VWidth: 0
Flags: W
HStem: 0 21G<11 167.914 722.42 877> 443 114<327 680> 1638 20G<528.679 701.147>
AnchorPoint: "ogonek" 880 0 basechar 0
LayerCount: 2
UndoRedoHistory
Layer: 1
Undoes
EndUndoes
Redoes
EndRedoes
EndUndoRedoHistory
Fore
SplineSet
327 557 m 1
 680 557 l 1
 596 1451 l 1
 327 557 l 1
11 0 m 1
 535 1658 l 1
 699 1658 l 1
 877 0 l 1
 724 0 l 1
 689 443 l 1
 293 443 l 1
 162 0 l 1
 11 0 l 1
EndSplineSet
EndChar

StartChar: AE
Encoding: 198 198 1
Width: 1301
VWidth: 0
Flags: W
HStem: 0 119<745 1183> 444 118<328 630> 805 113<829 1141> 1540 118<893 1344>
LayerCount: 2
UndoRedoHistory
Layer: 1
Undoes
EndUndoes
Redoes
EndRedoes
EndUndoRedoHistory
Fore
SplineSet
328 562 m 1
 641 562 l 1
 729 1405 l 1
 328 562 l 1
-104 0 m 1
 735 1658 l 1
 1357 1658 l 1
 1344 1540 l 1
 893 1540 l 1
 829 918 l 1
 1153 918 l 1
 1141 805 l 1
 816 805 l 1
 745 119 l 1
 1196 119 l 1
 1183 0 l 1
 583 0 l 1
 630 444 l 1
 273 444 l 1
 46 0 l 1
 -104 0 l 1
EndSplineSet
EndChar

StartChar: B
Encoding: 66 66 11
Width: 1027
VWidth: 0
Flags: W
HStem: 0 117<269 663.877> 823 121<355 721.504> 1538 120<418 777.335>
LayerCount: 2
UndoRedoHistory
Layer: 1
Undoes
EndUndoes
Redoes
EndRedoes
EndUndoRedoHistory
Fore
SplineSet
355 944 m 1
 581 944 l 2
 769 944 833 1064 852 1245 c 0
 873 1445 817 1538 566 1538 c 2
 418 1538 l 1
 355 944 l 1
269 117 m 1
 494 117 l 2
 708 117 774 231 801 479 c 1
 821 679 770 823 570 823 c 2
 343 823 l 1
 269 117 l 1
99 0 m 1
 273 1658 l 1
 629 1658 l 2
 932 1658 1019 1495 993 1245 c 0
 976 1085 909 927 745 894 c 1
 934 840 971 660 952 480 c 0
 924 216 821 0 510 0 c 2
 99 0 l 1
EndSplineSet
EndChar

StartChar: C
Encoding: 67 67 12
Width: 1021
VWidth: 0
Flags: W
HStem: -21 126<342.441 652.162> 1552 124<485.939 798.049>
AnchorPoint: "cedilla" 480 0 basechar 0
LayerCount: 2
UndoRedoHistory
Layer: 1
Undoes
EndUndoes
Redoes
EndRedoes
EndUndoRedoHistory
Fore
SplineSet
483 -21 m 0
 146 -21 88 209 119 499 c 2
 188 1158 l 2
 220 1463 331 1676 662 1676 c 0
 959 1676 1036 1494 1006 1205 c 1
 995 1103 l 1
 847 1103 l 1
 857 1200 l 2
 879 1416 859 1552 650 1552 c 0
 426 1552 372 1401 348 1178 c 2
 274 474 l 2
 248 227 294 105 498 105 c 0
 706 105 757 249 780 464 c 1
 791 572 l 1
 939 572 l 1
 929 475 l 2
 899 184 793 -21 483 -21 c 0
EndSplineSet
EndChar

StartChar: D
Encoding: 68 68 18
Width: 1067
VWidth: 0
Flags: W
HStem: 0 117<269 651.374> 1538 120<418 801.131>
LayerCount: 2
UndoRedoHistory
Layer: 1
Undoes
EndUndoes
Redoes
EndRedoes
EndUndoRedoHistory
Fore
SplineSet
99 0 m 1
 273 1658 l 1
 636 1658 l 2
 980 1658 1064 1463 1034 1171 c 2
 965 512 l 2
 932 201 805 0 474 0 c 2
 99 0 l 1
269 117 m 1
 477 117 l 2
 739 117 784 294 809 536 c 2
 874 1155 l 2
 900 1403 870 1538 621 1538 c 2
 418 1538 l 1
 269 117 l 1
EndSplineSet
EndChar

StartChar: Dcroat
Encoding: 264 272 20
Width: 1069
VWidth: 0
Flags: W
HStem: 0 117<271 654.366> 821 96<77 188 355 511> 1538 120<420 803.47>
LayerCount: 2
UndoRedoHistory
Layer: 1
Undoes
EndUndoes
Redoes
EndRedoes
EndUndoRedoHistory
Fore
SplineSet
102 0 m 1
 188 821 l 1
 67 821 l 1
 77 917 l 1
 198 917 l 1
 276 1658 l 1
 639 1658 l 2
 983 1658 1067 1463 1036 1171 c 2
 967 512 l 2
 935 201 808 0 477 0 c 2
 102 0 l 1
271 117 m 1
 480 117 l 2
 742 117 786 294 812 536 c 2
 877 1155 l 1
 902 1403 872 1538 624 1538 c 2
 420 1538 l 1
 355 917 l 1
 521 917 l 1
 511 821 l 1
 345 821 l 1
 271 117 l 1
EndSplineSet
EndChar

StartChar: E
Encoding: 69 69 21
Width: 816
VWidth: 0
Flags: W
HStem: 0 117<268 703> 801 116<352 702> 1538 120<417 860>
AnchorPoint: "ogonek" 511 0 basechar 0
LayerCount: 2
UndoRedoHistory
Layer: 1
Undoes
EndUndoes
Redoes
EndRedoes
EndUndoRedoHistory
Fore
SplineSet
99 0 m 1
 273 1658 l 1
 872 1658 l 1
 860 1538 l 1
 417 1538 l 1
 352 917 l 1
 714 917 l 1
 702 801 l 1
 340 801 l 1
 268 117 l 1
 716 117 l 1
 703 0 l 1
 99 0 l 1
EndSplineSet
EndChar

StartChar: Eng
Encoding: 269 330 30
Width: 1096
VWidth: 0
Flags: W
HStem: -321 108<503 688.081> 0 21G<99 230.104> 1638 20G<270.901 394.2 920.887 1050>
LayerCount: 2
UndoRedoHistory
Layer: 1
Undoes
EndUndoes
Redoes
EndRedoes
EndUndoRedoHistory
Fore
SplineSet
492 -321 m 1
 503 -213 l 1
 695 -215 729 -163 745 -11 c 2
 751 49 l 1
 365 1302 l 1
 228 0 l 1
 99 0 l 1
 273 1658 l 1
 388 1658 l 1
 787 371 l 1
 923 1658 l 1
 1050 1658 l 1
 876 0 l 2
 854 -210 788 -321 561 -321 c 2
 492 -321 l 1
EndSplineSet
EndChar

StartChar: Eth
Encoding: 208 208 32
Width: 1068
VWidth: 0
Flags: W
HStem: 0 117<269.375 651.749> 821 96<74.375 186.375 353.375 509.375> 1538 120<418.375 801.506>
LayerCount: 2
UndoRedoHistory
Layer: 1
Undoes
EndUndoes
Redoes
EndRedoes
EndUndoRedoHistory
Fore
SplineSet
99.375 0 m 1
 186.375 821 l 1
 64.375 821 l 1
 74.375 917 l 1
 196.375 917 l 1
 273.375 1658 l 1
 636.375 1658 l 2
 980.375 1658 1064.375 1463 1034.375 1171 c 2
 965.375 512 l 2
 932.375 201 805.375 0 474.375 0 c 2
 99.375 0 l 1
269.375 117 m 1
 477.375 117 l 2
 739.375 117 784.375 294 809.375 536 c 2
 874.375 1155 l 2
 900.375 1403 870.375 1538 621.375 1538 c 2
 418.375 1538 l 1
 353.375 917 l 1
 519.375 917 l 1
 509.375 821 l 1
 343.375 821 l 1
 269.375 117 l 1
EndSplineSet
EndChar

StartChar: Euro
Encoding: 271 8364 33
Width: 997
VWidth: 0
Flags: W
HStem: -21 126<342.441 652.162> 628 86<10 132 299 550> 981 87<48 169 337 587> 1552 124<485.939 798.049>
CounterMasks: 1 f0
LayerCount: 2
UndoRedoHistory
Layer: 1
Undoes
EndUndoes
Redoes
EndRedoes
EndUndoRedoHistory
Fore
SplineSet
483 -21 m 0
 146 -21 88 209 119 499 c 1
 132 628 l 1
 1 628 l 1
 10 714 l 1
 141 714 l 1
 169 981 l 1
 38 981 l 1
 48 1068 l 1
 179 1068 l 1
 188 1158 l 1
 220 1463 331 1676 662 1676 c 0
 959 1676 1036 1494 1006 1205 c 2
 998 1128 l 1
 849 1128 l 1
 857 1200 l 1
 879 1416 859 1552 650 1552 c 0
 426 1552 372 1401 348 1178 c 1
 337 1068 l 1
 597 1068 l 1
 587 981 l 1
 327 981 l 1
 299 714 l 1
 559 714 l 1
 550 628 l 1
 290 628 l 1
 274 474 l 2
 248 227 294 105 498 105 c 0
 706 105 757 249 780 464 c 1
 788 547 l 1
 937 547 l 1
 929 475 l 1
 899 184 793 -21 483 -21 c 0
EndSplineSet
EndChar

StartChar: F
Encoding: 70 70 34
Width: 790
VWidth: 0
Flags: W
HStem: 0 21G<99 258.12> 802 116<353 707> 1541 117<418 859>
LayerCount: 2
UndoRedoHistory
Layer: 1
Undoes
EndUndoes
Redoes
EndRedoes
EndUndoRedoHistory
Fore
SplineSet
99 0 m 1
 273 1658 l 1
 871 1658 l 1
 859 1541 l 1
 418 1541 l 1
 353 918 l 1
 719 918 l 1
 707 802 l 1
 341 802 l 1
 256 0 l 1
 99 0 l 1
EndSplineSet
EndChar

StartChar: G
Encoding: 71 71 35
Width: 1064
VWidth: 0
Flags: W
HStem: -22 127<342.463 656.274> 0 21G<793 895.12> 687 115<590 821> 1552 124<484.482 806.041>
VStem: 793 100<0 135.264>
LayerCount: 2
UndoRedoHistory
Layer: 1
Undoes
EndUndoes
Redoes
EndRedoes
EndUndoRedoHistory
Fore
SplineSet
473 -22 m 0xb8
 158 -22 86 188 119 505 c 2
 187 1153 l 2
 221 1472 330 1676 661 1676 c 0
 958 1676 1044 1504 1012 1199 c 2
 1006 1140 l 1
 859 1140 l 1
 865 1199 l 2
 889 1432 855 1552 651 1552 c 0
 422 1552 369 1391 346 1168 c 2
 274 487 l 2
 249 246 285 105 501 105 c 0xb8
 706 105 775 246 800 491 c 1
 821 687 l 1
 577 687 l 1
 590 802 l 1
 978 802 l 1
 893 0 l 1
 793 0 l 1x78
 794 188 l 1
 739 61 643 -22 473 -22 c 0xb8
EndSplineSet
EndChar

StartChar: H
Encoding: 72 72 40
Width: 1124
VWidth: 0
Flags: W
HStem: 0 21G<99 258.104 778 937.099> 808 115<353 863> 1638 20G<270.901 430 949.905 1109>
LayerCount: 2
UndoRedoHistory
Layer: 1
Undoes
EndUndoes
Redoes
EndRedoes
EndUndoRedoHistory
Fore
SplineSet
99 0 m 1
 273 1658 l 1
 430 1658 l 1
 353 923 l 1
 875 923 l 1
 952 1658 l 1
 1109 1658 l 1
 935 0 l 1
 778 0 l 1
 863 808 l 1
 341 808 l 1
 256 0 l 1
 99 0 l 1
EndSplineSet
EndChar

StartChar: Hbar
Encoding: 276 294 41
Width: 1124
VWidth: 0
Flags: W
HStem: 0 21G<99 258.104 778 937.1> 808 115<353 863> 1295 86<160 235 401 914 1080 1156> 1638 20G<270.906 430 949.906 1109>
LayerCount: 2
UndoRedoHistory
Layer: 1
Undoes
EndUndoes
Redoes
EndRedoes
EndUndoRedoHistory
Fore
SplineSet
353 923 m 1
 875 923 l 1
 914 1295 l 1
 392 1295 l 1
 353 923 l 1
99 0 m 1
 235 1295 l 1
 151 1295 l 1
 160 1381 l 1
 244 1381 l 1
 273 1658 l 1
 430 1658 l 1
 401 1381 l 1
 923 1381 l 1
 952 1658 l 1
 1109 1658 l 1
 1080 1381 l 1
 1165 1381 l 1
 1156 1295 l 1
 1071 1295 l 1
 935 0 l 1
 778 0 l 1
 863 808 l 1
 341 808 l 1
 256 0 l 1
 99 0 l 1
EndSplineSet
EndChar

StartChar: I
Encoding: 73 73 43
Width: 454
VWidth: 0
Flags: W
HStem: 0 21G<106 262.099> 1638 20G<277.901 434>
VStem: 106 328
AnchorPoint: "ogonek" 220 0 basechar 0
LayerCount: 2
UndoRedoHistory
Layer: 1
Undoes
EndUndoes
Redoes
EndRedoes
EndUndoRedoHistory
Fore
SplineSet
106 0 m 1
 280 1658 l 1
 434 1658 l 1
 260 0 l 1
 106 0 l 1
EndSplineSet
EndChar

StartChar: J
Encoding: 74 74 53
Width: 571
VWidth: 0
Flags: W
HStem: -73 118<-25 177.753> 1638 20G<395.9 555>
VStem: -37 592
AnchorPoint: "circumflexcomb" 338 1800 basechar 0
LayerCount: 2
UndoRedoHistory
Layer: 1
Undoes
EndUndoes
Redoes
EndRedoes
EndUndoRedoHistory
Fore
SplineSet
-37 -73 m 1
 -25 45 l 1
 203 45 234 91 259 334 c 2
 398 1658 l 1
 555 1658 l 1
 416 324 l 1
 386 53 323 -73 41 -73 c 2
 -37 -73 l 1
EndSplineSet
EndChar

StartChar: K
Encoding: 75 75 55
Width: 969
VWidth: 0
Flags: W
HStem: 0 21G<99 258.11 760.38 922> 1638 20G<270.901 430 860.757 1023>
LayerCount: 2
UndoRedoHistory
Layer: 1
Undoes
EndUndoes
Redoes
EndRedoes
EndUndoRedoHistory
Fore
SplineSet
99 0 m 1
 273 1658 l 1
 430 1658 l 1
 338 784 l 1
 873 1658 l 1
 1023 1658 l 1
 606 946 l 1
 922 0 l 1
 767 0 l 1
 481 864 l 1
 321 616 l 1
 256 0 l 1
 99 0 l 1
EndSplineSet
EndChar

StartChar: L
Encoding: 76 76 57
Width: 783
VWidth: 0
Flags: W
HStem: 0 117<269 728> 1638 20G<270.901 430>
VStem: 99 641
LayerCount: 2
UndoRedoHistory
Layer: 1
Undoes
EndUndoes
Redoes
EndRedoes
EndUndoRedoHistory
Fore
SplineSet
99 0 m 1
 273 1658 l 1
 430 1658 l 1
 269 117 l 1
 740 117 l 1
 728 0 l 1
 99 0 l 1
EndSplineSet
EndChar

StartChar: Lslash
Encoding: 289 321 62
Width: 783
VWidth: 0
Flags: W
HStem: 0 117<269 728> 1638 20G<270.898 430>
LayerCount: 2
UndoRedoHistory
Layer: 1
Undoes
EndUndoes
Redoes
EndRedoes
EndUndoRedoHistory
Fore
SplineSet
99 0 m 1
 184 812 l 1
 32 735 l 1
 45 858 l 1
 197 935 l 1
 273 1658 l 1
 430 1658 l 1
 364 1021 l 1
 613 1146 l 1
 600 1023 l 1
 351 898 l 1
 269 117 l 1
 740 117 l 1
 728 0 l 1
 99 0 l 1
EndSplineSet
EndChar

StartChar: M
Encoding: 77 77 63
Width: 1316
VWidth: 0
Flags: W
HStem: 0 21G<85 219.593 559.362 668.899 1011 1142.6> 1638 20G<299.382 457.488 1110.29 1274>
LayerCount: 2
UndoRedoHistory
Layer: 1
Undoes
EndUndoes
Redoes
EndRedoes
EndUndoRedoHistory
Fore
SplineSet
85 0 m 1
 302 1658 l 1
 455 1658 l 1
 634 219 l 1
 1117 1658 l 1
 1274 1658 l 1
 1141 0 l 1
 1011 0 l 1
 1118 1322 l 1
 662 0 l 1
 562 0 l 1
 388 1319 l 1
 217 0 l 1
 85 0 l 1
EndSplineSet
EndChar

StartChar: N
Encoding: 78 78 64
Width: 1065
VWidth: 0
Flags: W
HStem: 0 21G<99 236.104 759.932 878.099> 1638 20G<270.901 394.107 913.902 1050>
LayerCount: 2
UndoRedoHistory
Layer: 1
Undoes
EndUndoes
Redoes
EndRedoes
EndUndoRedoHistory
Fore
SplineSet
99 0 m 1
 273 1658 l 1
 388 1658 l 1
 781 371 l 1
 916 1658 l 1
 1050 1658 l 1
 876 0 l 1
 766 0 l 1
 371 1302 l 1
 234 0 l 1
 99 0 l 1
EndSplineSet
EndChar

StartChar: O
Encoding: 79 79 69
Width: 1074
VWidth: 0
Flags: W
HStem: -21 126<342.371 668.622> 1552 124<485.192 814.933>
AnchorPoint: "ogonek" 581 0 basechar 0
LayerCount: 2
UndoRedoHistory
Layer: 1
Undoes
EndUndoes
Redoes
EndRedoes
EndUndoRedoHistory
Fore
SplineSet
490 -21 m 0
 161 -21 86 189 118 490 c 2
 190 1178 l 2
 221 1478 346 1676 668 1676 c 0
 990 1676 1073 1476 1042 1178 c 2
 969 488 l 2
 938 189 817 -21 490 -21 c 0
503 105 m 0
 722 105 786 246 808 456 c 2
 887 1206 l 2
 909 1416 875 1552 656 1552 c 0
 437 1552 373 1416 351 1206 c 2
 272 456 l 2
 250 246 284 105 503 105 c 0
EndSplineSet
EndChar

StartChar: OE
Encoding: 293 338 70
Width: 1319
VWidth: 0
Flags: W
HStem: 0 120<360.988 665 821 1214> 806 116<905 1227> 1536 122<493.236 814 970 1373>
LayerCount: 2
UndoRedoHistory
Layer: 1
Undoes
EndUndoes
Redoes
EndRedoes
EndUndoRedoHistory
Fore
SplineSet
533 123 m 2
 665 123 l 1
 814 1539 l 1
 679 1539 l 2
 424 1539 370 1388 343 1139 c 1
 276 492 l 2
 251 255 286 123 533 123 c 2
517 0 m 2
 171 0 86 188 117 482 c 2
 188 1158 l 2
 220 1466 353 1658 682 1658 c 2
 1386 1658 l 1
 1373 1536 l 1
 970 1536 l 1
 905 922 l 1
 1238 922 l 1
 1227 806 l 1
 893 806 l 1
 821 120 l 1
 1227 120 l 1
 1214 0 l 1
 517 0 l 2
EndSplineSet
EndChar

StartChar: Oslash
Encoding: 216 216 78
Width: 1084
VWidth: 0
Flags: W
HStem: -21 126<342.118 664.739> 1552 124<485.192 788.261>
LayerCount: 2
UndoRedoHistory
Layer: 1
Undoes
EndUndoes
Redoes
EndRedoes
EndUndoRedoHistory
Fore
SplineSet
200 -178 m 1
 140 -159 l 1
 223.513087435 57.6530619073 l 1
 120.416810891 145.021930334 97.7193605761 299.235235418 118 490 c 2
 190 1178 l 2
 221 1478 346 1676 668 1676 c 0
 734.416142476 1676 790.664333758 1667.49125423 837.841464513 1651.36882548 c 1
 904 1823 l 1
 966 1807 l 1
 895.850618689 1625.21602885 l 1
 1029.40385202 1547.81877762 1063.74317349 1387.01502261 1042 1178 c 2
 969 488 l 2
 938 189 817 -21 490 -21 c 0
 401.728254072 -21 331.741103508 -5.8828148563 277.199356125 22.0531617589 c 1
 200 -178 l 1
503 105 m 0
 722 105 786 246 808 456 c 2
 887 1206 l 2
 899.875717526 1328.90457638 893.569803438 1426.4619967 842.221813035 1486.24321002 c 1
 329.93610364 158.714315568 l 1
 366.850012192 124.101464347 422.393903599 105 503 105 c 0
287.254648987 223.014023944 m 1
 789.688047615 1526.44726489 l 1
 755.749010627 1543.13869885 711.90149323 1552 656 1552 c 0
 437 1552 373 1416 351 1206 c 2
 272 456 l 2
 262.211535453 362.564656595 263.50899268 282.78875252 287.254648987 223.014023944 c 1
EndSplineSet
EndChar

StartChar: P
Encoding: 80 80 80
Width: 990
VWidth: 0
Flags: W
HStem: 0 21G<99 258.115> 785 116<351 736.58> 1542 116<419 805.822>
LayerCount: 2
UndoRedoHistory
Layer: 1
Undoes
EndUndoes
Redoes
EndRedoes
EndUndoRedoHistory
Fore
SplineSet
351 901 m 1
 550 901 l 2
 750 901 842 980 867 1218 c 0
 894 1474 840 1542 620 1542 c 2
 419 1542 l 1
 351 901 l 1
99 0 m 1
 273 1658 l 1
 671 1658 l 2
 969 1658 1048 1482 1021 1219 c 1
 995 982 868 785 581 785 c 2
 339 785 l 1
 256 0 l 1
 99 0 l 1
EndSplineSet
EndChar

StartChar: Pi
Encoding: 297 928 81
Width: 1146
VWidth: 0
Flags: W
HStem: 0 21G<99 251.113 807 960.099> 1543 115<412 969>
LayerCount: 2
UndoRedoHistory
Layer: 1
Undoes
EndUndoes
Redoes
EndRedoes
EndUndoRedoHistory
Fore
SplineSet
99 0 m 1
 273 1658 l 1
 1132 1658 l 1
 958 0 l 1
 807 0 l 1
 969 1543 l 1
 412 1543 l 1
 249 0 l 1
 99 0 l 1
EndSplineSet
EndChar

StartChar: Q
Encoding: 81 81 82
Width: 1085
VWidth: 0
Flags: W
HStem: -21 126<346.544 560.407> 1552 124<489.255 820.76>
LayerCount: 2
UndoRedoHistory
Layer: 1
Undoes
EndUndoes
Redoes
EndRedoes
EndUndoRedoHistory
Fore
SplineSet
508 105 m 0
 727 105 796 246 818 456 c 2
 897 1206 l 2
 919 1416 880 1552 661 1552 c 0
 442 1552 373 1416 351 1206 c 2
 272 456 l 2
 250 246 289 105 508 105 c 0
801 -326 m 1
 728 -268 614 -132 547 -19 c 1
 530 -20 513 -21 495 -21 c 0
 166 -21 86 189 118 490 c 2
 190 1178 l 2
 221 1478 351 1676 673 1676 c 0
 995 1676 1083 1476 1052 1178 c 2
 979 488 l 2
 954 250 871 68 668 6 c 1
 716 -74 839 -208 889 -252 c 1
 801 -326 l 1
EndSplineSet
EndChar

StartChar: R
Encoding: 82 82 83
Width: 1049
VWidth: 0
Flags: W
HStem: 0 21G<99 258.11 755.123 913> 815 115<354 601> 1541 117<418 800.554>
LayerCount: 2
UndoRedoHistory
Layer: 1
Undoes
EndUndoes
Redoes
EndRedoes
EndUndoRedoHistory
Fore
SplineSet
354 930 m 1
 565 930 l 2
 771 930 843 1031 865 1239 c 0
 886 1443 843 1541 634 1541 c 2
 418 1541 l 1
 354 930 l 1
99 0 m 1
 273 1658 l 1
 650 1658 l 2
 958 1658 1044 1499 1017 1239 c 0
 997 1049 930 886 745 848 c 1
 913 0 l 1
 759 0 l 1
 601 815 l 1
 342 815 l 1
 256 0 l 1
 99 0 l 1
EndSplineSet
EndChar

StartChar: S
Encoding: 83 83 87
Width: 942
VWidth: 0
Flags: W
HStem: -20 126<323.338 626.324> 1553 123<426.599 732.598>
VStem: 83 143<215.242 430> 809 136<1255 1469.46>
AnchorPoint: "cedilla" 470 0 basechar 0
LayerCount: 2
UndoRedoHistory
Layer: 1
Undoes
EndUndoes
Redoes
EndRedoes
EndUndoRedoHistory
Fore
SplineSet
452 -20 m 0
 179 -20 74 159 83 430 c 1
 226 470 l 1
 226 267 264 106 466 106 c 0
 613 106 708 179 725 346 c 1
 741 492 671 585 560 704 c 2
 296 986 l 2
 202 1086 167 1190 180 1320 c 1
 205 1549 366 1675 591 1676 c 0
 834 1678 955 1560 945 1255 c 1
 809 1221 l 1
 814 1428 769 1559 581 1553 c 0
 442 1549 339 1484 323 1333 c 0
 314 1243 338 1175 414 1092 c 1
 677 815 l 2
 794 691 892 545 872 357 c 0
 846 109 675 -20 452 -20 c 0
EndSplineSet
EndChar

StartChar: T
Encoding: 84 84 93
Width: 795
VWidth: 0
Flags: W
HStem: 0 21G<278 437.107> 1538 120<120 440 597 921>
AnchorPoint: "cedilla" 380 0 basechar 0
LayerCount: 2
UndoRedoHistory
Layer: 1
Undoes
EndUndoes
Redoes
EndRedoes
EndUndoRedoHistory
Fore
SplineSet
278 0 m 1
 440 1538 l 1
 107 1538 l 1
 120 1658 l 1
 934 1658 l 1
 921 1538 l 1
 597 1538 l 1
 435 0 l 1
 278 0 l 1
EndSplineSet
EndChar

StartChar: Tbar
Encoding: 306 358 94
Width: 795
VWidth: 0
Flags: W
HStem: 0 21G<278 437.107> 835 95<142 365.952 532.958 751> 1538 120<120 440 597 921>
LayerCount: 2
UndoRedoHistory
Layer: 1
Undoes
EndUndoes
Redoes
EndRedoes
EndUndoRedoHistory
Fore
SplineSet
132 835 m 1
 142 930 l 1
 375.958387516 930 l 1
 440 1538 l 1
 107 1538 l 1
 120 1658 l 1
 934 1658 l 1
 921 1538 l 1
 597 1538 l 1
 532.958387516 930 l 1
 761 930 l 1
 751 835 l 1
 522.951885566 835 l 1
 435 0 l 1
 278 0 l 1
 365.951885566 835 l 1
 132 835 l 1
EndSplineSet
EndChar

StartChar: Thorn
Encoding: 222 222 97
Width: 1033
VWidth: 0
Flags: W
HStem: 0 21G<99 258.12> 500 130<323 728.935> 1312 132<408 800.976> 1638 20G<270.901 430>
LayerCount: 2
UndoRedoHistory
Layer: 1
Undoes
EndUndoes
Redoes
EndRedoes
EndUndoRedoHistory
Fore
SplineSet
323 630 m 1
 553 630 l 2
 750 630 852 725 879 979 c 0
 904 1222 818 1312 641 1312 c 2
 394 1312 l 1
 323 630 l 1
99 0 m 1
 273 1658 l 1
 430 1658 l 1
 408 1444 l 1
 692 1444 l 2
 978 1444 1063 1240 1035 981 c 1
 1009 728 887 500 571 500 c 2
 309 500 l 1
 256 0 l 1
 99 0 l 1
EndSplineSet
EndChar

StartChar: U
Encoding: 85 85 98
Width: 1100
VWidth: 0
Flags: W
HStem: -21 126<358.743 681.663> 1638 20G<253.909 407 949.901 1102>
AnchorPoint: "ogonek" 581 0 basechar 0
LayerCount: 2
UndoRedoHistory
Layer: 1
Undoes
EndUndoes
Redoes
EndRedoes
EndUndoRedoHistory
Fore
SplineSet
503 -21 m 0
 165 -21 101 176 130 453 c 2
 256 1658 l 1
 407 1658 l 1
 280 448 l 2
 259 253 294 105 517 105 c 0
 731 105 804 254 825 448 c 2
 952 1658 l 1
 1102 1658 l 1
 976 453 l 2
 947 176 832 -21 503 -21 c 0
EndSplineSet
EndChar

StartChar: V
Encoding: 86 86 109
Width: 1003
VWidth: 0
Flags: W
HStem: 0 21G<390.419 541.61> 1638 20G<179 330.464 929.601 1083>
LayerCount: 2
UndoRedoHistory
Layer: 1
Undoes
EndUndoes
Redoes
EndRedoes
EndUndoRedoHistory
Fore
SplineSet
393 0 m 1
 179 1658 l 1
 328 1658 l 1
 497 286 l 1
 936 1658 l 1
 1083 1658 l 1
 535 0 l 1
 393 0 l 1
EndSplineSet
EndChar

StartChar: W
Encoding: 87 87 110
Width: 1464
VWidth: 0
Flags: W
HStem: 0 21G<306.696 439.917 956.262 1085.33> 1638 20G<200 335.144 1384.88 1522>
LayerCount: 2
UndoRedoHistory
Layer: 1
Undoes
EndUndoes
Redoes
EndRedoes
EndUndoRedoHistory
Fore
SplineSet
308 0 m 1
 200 1657 l 1
 334 1658 l 1
 411 312 l 1
 801 1633 l 1
 929 1633 l 1
 1045 310 l 1
 1390 1658 l 1
 1522 1658 l 1
 1080 0 l 1
 958 0 l 1
 839 1369 l 1
 434 0 l 1
 308 0 l 1
EndSplineSet
EndChar

StartChar: X
Encoding: 88 88 115
Width: 949
VWidth: 0
Flags: W
HStem: 0 21G<-16 144.086 720.143 875> 1639 20G<162 312.918 878.305 1039>
LayerCount: 2
UndoRedoHistory
Layer: 1
Undoes
EndUndoes
Redoes
EndRedoes
EndUndoRedoHistory
Fore
SplineSet
-16 0 m 1
 433 864 l 1
 162 1659 l 1
 306 1659 l 1
 535 997 l 1
 889 1659 l 1
 1039 1659 l 1
 586 845 l 1
 875 0 l 1
 727 0 l 1
 487 700 l 1
 134 0 l 1
 -16 0 l 1
EndSplineSet
EndChar

StartChar: Y
Encoding: 89 89 116
AltUni2: 0004ae.ffffffff.0
Width: 961
VWidth: 0
Flags: W
HStem: 0 21G<364 518.105> 1638 20G<164 321.365 893.661 1055>
LayerCount: 2
UndoRedoHistory
Layer: 1
Undoes
EndUndoes
Redoes
EndRedoes
EndUndoRedoHistory
Fore
SplineSet
364 0 m 1
 421 551 l 1
 164 1658 l 1
 317 1658 l 1
 518 737 l 1
 902 1658 l 1
 1055 1658 l 1
 574 551 l 1
 516 0 l 1
 364 0 l 1
EndSplineSet
EndChar

StartChar: Z
Encoding: 90 90 121
Width: 834
VWidth: 0
Flags: W
HStem: 0 117<190 749> 1541 117<243 742>
LayerCount: 2
UndoRedoHistory
Layer: 1
Undoes
EndUndoes
Redoes
EndRedoes
EndUndoRedoHistory
Fore
SplineSet
24 0 m 1
 37 118 l 1
 742 1541 l 1
 231 1541 l 1
 243 1658 l 1
 921 1658 l 1
 913 1577 l 1
 190 117 l 1
 761 117 l 1
 749 0 l 1
 24 0 l 1
EndSplineSet
EndChar

StartChar: a
Encoding: 97 97 125
Width: 813
VWidth: 0
Flags: W
HStem: -19 129<239.278 418.361> 0 21G<540.512 674> 1089 113<359.74 581.362>
VStem: 541 133<0 164>
AnchorPoint: "ogonek" 714 0 basechar 0
LayerCount: 2
UndoRedoHistory
Layer: 1
Undoes
EndUndoes
Redoes
EndRedoes
EndUndoRedoHistory
Fore
SplineSet
334 110 m 0xb0
 422 110 498 184 539 250 c 1
 578 619 l 1
 338 499 233 451 215 282 c 0
 202 158 262 110 334 110 c 0xb0
272 -19 m 0
 131 -19 46 99 61 247 c 1
 87 483 225 562 589 718 c 1
 598 803 l 2
 620 1018 595 1089 481 1089 c 0
 389 1089 311 1042 295 886 c 1
 290 843 l 1
 143 848 l 1
 144 856 147 877 148 884 c 0
 181 1114 304 1202 501 1202 c 0
 713 1202 777 1079 748 811 c 1
 688 235 l 2
 681 175 673 42 674 0 c 1
 541 0 l 1x70
 541 0 537 121 537 164 c 1
 492 67 397 -19 272 -19 c 0
EndSplineSet
EndChar

StartChar: acute
Encoding: 180 180 129
Width: 477
VWidth: 0
Flags: W
HStem: 1258 400
VStem: 185 320
LayerCount: 2
UndoRedoHistory
Layer: 1
Undoes
EndUndoes
Redoes
EndRedoes
EndUndoRedoHistory
Fore
SplineSet
185 1258 m 1
 354 1658 l 1
 505 1658 l 1
 262 1258 l 1
 185 1258 l 1
EndSplineSet
EndChar

StartChar: acutecomb
Encoding: 326 769 130
Width: 181
VWidth: 0
Flags: W
HStem: 1258 400
VStem: 96 320
LayerCount: 2
UndoRedoHistory
Layer: 1
Undoes
EndUndoes
Redoes
EndRedoes
EndUndoRedoHistory
Fore
SplineSet
96 1258 m 1
 266 1658 l 1
 416 1658 l 1
 174 1258 l 1
 96 1258 l 1
EndSplineSet
EndChar

StartChar: ae
Encoding: 230 230 132
Width: 1274
VWidth: 0
Flags: W
HStem: -19 120<238.881 437.038 748.973 955.916> 1081 121<354.606 581.358 829.771 1056.26>
LayerCount: 2
UndoRedoHistory
Layer: 0
Undoes
EndUndoes
Redoes
EndRedoes
EndUndoRedoHistory
UndoRedoHistory
Layer: 1
Undoes
EndUndoes
Redoes
EndRedoes
EndUndoRedoHistory
Fore
SplineSet
738.723632812 691 m 1
 917.723632812 746 l 1
 1034.72363281 779 1078.72363281 816 1087.72363281 910 c 0
 1096.72363281 999 1065.72363281 1081 949.723632812 1081 c 0
 831.723632812 1081 771.723632812 1005 749.723632812 797 c 2
 738.723632812 691 l 1
332.723632812 99 m 0
 426.723632812 99 535.723632812 186 561.723632812 440 c 2
 575.723632812 572 l 1
 561.723632812 568 456.723632812 529 441.723632812 523 c 0
 263.723632812 453 222.723632812 386 212.723632812 271 c 1
 200.723632812 147 265.723632812 99 332.723632812 99 c 0
269.723632812 -19 m 0
 129.723632812 -13 45.7236328125 99 60.7236328125 247 c 0
 78.7236328125 417 157.723632812 529 408.723632812 610 c 1
 585.723632812 665 l 1
 600.723632812 803 l 1
 621.723632812 1011 588.723632812 1086 478.723632812 1086 c 0
 380.723632812 1086 303.723632812 1027 286.723632812 869 c 1
 140.723632812 871 l 1
 165.723632812 1086 292.723632812 1202 492.723632812 1202 c 0
 609.723632812 1202 689.723632812 1141 698.723632812 1026 c 1
 746.723632812 1150 852.723632812 1202 962.723632812 1202 c 0
 1156.72363281 1202 1243.72363281 1077 1224.72363281 898 c 0
 1210.72363281 759 1088.72363281 702 933.723632812 661 c 1
 729.723632812 601 l 1
 716.723632812 482 l 1
 692.723632812 245 708.723632812 101 844.723632812 101 c 0
 932.723632812 101 1005.72363281 149 1025.72363281 335 c 1
 1033.72363281 405 l 1
 1182.72363281 405 l 1
 1175.72363281 336 l 1
 1152.72363281 122 1058.72363281 -19 831.723632812 -19 c 0
 701.723632812 -19 599.723632812 54 595.723632812 222 c 1
 526.723632812 50 393.723632812 -25 269.723632812 -19 c 0
EndSplineSet
EndChar

StartChar: afii10018
Encoding: 328 1041 134
Width: 981
VWidth: 0
Flags: W
HStem: 0 120<268 608.919> 843 120<357 664.902> 1542 116<418 927>
LayerCount: 2
UndoRedoHistory
Layer: 1
Undoes
EndUndoes
Redoes
EndRedoes
EndUndoRedoHistory
Fore
SplineSet
268 120 m 1
 410 120 l 2
 639 120 737 222 764 478 c 0
 789 717 723 843 484 843 c 2
 344 843 l 1
 268 120 l 1
99 0 m 1
 273 1658 l 1
 939 1658 l 1
 927 1542 l 1
 418 1542 l 1
 357 963 l 1
 490 963 l 2
 815 963 952 822 916 476 c 0
 884 176 731 0 396 0 c 2
 99 0 l 1
EndSplineSet
EndChar

StartChar: afii10019
Encoding: 329 1042 135
Width: 1027
VWidth: 0
Flags: W
HStem: 0 117<269 663.877> 823 121<355 721.504> 1538 120<418 777.335>
LayerCount: 2
UndoRedoHistory
Layer: 1
Undoes
EndUndoes
Redoes
EndRedoes
EndUndoRedoHistory
Fore
SplineSet
355 944 m 1
 581 944 l 2
 769 944 833 1064 852 1245 c 0
 873 1445 817 1538 566 1538 c 2
 418 1538 l 1
 355 944 l 1
269 117 m 1
 494 117 l 2
 708 117 774 231 801 479 c 1
 821 679 770 823 570 823 c 2
 343 823 l 1
 269 117 l 1
99 0 m 1
 273 1658 l 1
 629 1658 l 2
 932 1658 1019 1495 993 1245 c 0
 976 1085 909 927 745 894 c 1
 934 840 971 660 952 480 c 0
 924 216 821 0 510 0 c 2
 99 0 l 1
EndSplineSet
EndChar

StartChar: afii10020
Encoding: 330 1043 136
Width: 769
VWidth: 0
Flags: W
HStem: 0 21G<99 258.107> 1538 120<418 849>
LayerCount: 2
UndoRedoHistory
Layer: 1
Undoes
EndUndoes
Redoes
EndRedoes
EndUndoRedoHistory
Fore
SplineSet
99 0 m 1
 273 1658 l 1
 862 1658 l 1
 849 1538 l 1
 418 1538 l 1
 256 0 l 1
 99 0 l 1
EndSplineSet
EndChar

StartChar: afii10021
Encoding: 331 1044 137
Width: 1204
VWidth: 0
Flags: W
HStem: 0 117<212 825> 1540 118<644 974>
VStem: 952 123<-285 -147.784>
LayerCount: 2
UndoRedoHistory
Layer: 1
Undoes
EndUndoes
Redoes
EndRedoes
EndUndoRedoHistory
Fore
SplineSet
212 117 m 1
 825 117 l 1
 974 1540 l 1
 644 1540 l 1
 566 1088 l 1
 424 258 337 206 212 117 c 1
-56 -285 m 1
 -13 117 l 1
 52 117 l 1
 193 208 281 281 426 1122 c 2
 518 1658 l 1
 1143 1658 l 1
 982 117 l 1
 1117 117 l 1
 1075 -285 l 1
 952 -285 l 1
 967 0 l 1
 112 0 l 1
 68 -285 l 1
 -56 -285 l 1
EndSplineSet
EndChar

StartChar: afii10024
Encoding: 334 1046 140
Width: 1306
VWidth: 0
Flags: W
HStem: 0 21G<-15 150.18 539 679.098 1070.02 1231> 839 29<616 627 768 782> 1638 20G<198 355.759 710.899 851 1204.04 1366>
LayerCount: 2
UndoRedoHistory
Layer: 1
Undoes
EndUndoes
Redoes
EndRedoes
EndUndoRedoHistory
Fore
SplineSet
-15 0 m 1
 487 859 l 1
 198 1658 l 1
 349 1658 l 1
 616 868 l 1
 630 868 l 1
 713 1658 l 1
 851 1658 l 1
 768 868 l 1
 782 868 l 1
 1215 1658 l 1
 1366 1658 l 1
 910 859 l 1
 1231 0 l 1
 1077 0 l 1
 784 839 l 1
 765 839 l 1
 677 0 l 1
 539 0 l 1
 627 839 l 1
 608 839 l 1
 139 0 l 1
 -15 0 l 1
EndSplineSet
EndChar

StartChar: afii10025
Encoding: 335 1047 141
Width: 958
VWidth: 0
Flags: W
HStem: -21 124<320.437 604.756> 806 118<411 634.203> 1554 122<450.348 754.004>
LayerCount: 2
UndoRedoHistory
Layer: 1
Undoes
EndUndoes
Redoes
EndRedoes
EndUndoRedoHistory
Fore
SplineSet
441 -21 m 0
 183 -21 89 138 115 383 c 1
 119 423 l 1
 265 423 l 1
 263 413 261 387 260 377 c 0
 245 206 294 103 455 103 c 0
 610 103 706 198 733 450 c 0
 754 653 698 797 487 805 c 0
 478 806 409 806 399 806 c 1
 411 924 l 1
 420 924 489 924 498 924 c 0
 710 931 795 1042 818 1261 c 0
 836 1433 787 1554 614 1554 c 0
 449 1554 359 1468 334 1277 c 0
 333 1268 330 1248 329 1238 c 1
 183 1238 l 1
 187 1276 l 2
 212 1519 347 1676 622 1676 c 0
 882 1676 996 1504 970 1260 c 0
 946 1027 829 900 689 868 c 1
 807 834 913 715 886 452 c 1
 856 171 724 -21 441 -21 c 0
EndSplineSet
EndChar

StartChar: afii10026
Encoding: 336 1048 142
Width: 1084
VWidth: 0
Flags: W
HStem: 0 21G<99 232.189 756 897.099> 1638 20G<270.901 412 938.726 1069>
LayerCount: 2
UndoRedoHistory
Layer: 1
Undoes
EndUndoes
Redoes
EndRedoes
EndUndoRedoHistory
Fore
SplineSet
99 0 m 1
 273 1658 l 1
 412 1658 l 1
 274 344 l 1
 949 1658 l 1
 1069 1658 l 1
 895 0 l 1
 756 0 l 1
 895 1321 l 1
 222 0 l 1
 99 0 l 1
EndSplineSet
EndChar

StartChar: afii10028
Encoding: 338 1050 144
Width: 990
VWidth: 0
Flags: W
HStem: 0 21G<99 258.091 760.423 926> 813 84<350 460> 1638 20G<270.901 430 875.041 1045>
LayerCount: 2
UndoRedoHistory
Layer: 1
Undoes
EndUndoes
Redoes
EndRedoes
EndUndoRedoHistory
Fore
SplineSet
99 0 m 1
 273 1658 l 1
 430 1658 l 1
 350 897 l 1
 469 897 l 1
 886 1658 l 1
 1045 1658 l 1
 601 860 l 1
 926 0 l 1
 768 0 l 1
 460 813 l 1
 341 813 l 1
 256 0 l 1
 99 0 l 1
EndSplineSet
EndChar

StartChar: afii10029
Encoding: 339 1051 145
Width: 1159
VWidth: 0
Flags: W
HStem: -4 121<1 154.814> 1540 118<628 976>
LayerCount: 2
UndoRedoHistory
Layer: 1
Undoes
EndUndoes
Redoes
EndRedoes
EndUndoRedoHistory
Fore
SplineSet
-12 -4 m 1
 1 117 l 1
 196 124 230 142 376 942 c 1
 500 1658 l 1
 1145 1658 l 1
 971 0 l 1
 814 0 l 1
 976 1540 l 1
 628 1540 l 1
 525 941 l 1
 381 158 337 -9 -12 -4 c 1
EndSplineSet
EndChar

StartChar: afii10030
Encoding: 340 1052 146
Width: 1316
VWidth: 0
Flags: W
HStem: 0 21G<85 216.551 559.071 669.164 1013 1142.6> 1638 20G<299.382 447.753 1120.02 1274>
LayerCount: 2
UndoRedoHistory
Layer: 1
Undoes
EndUndoes
Redoes
EndRedoes
EndUndoRedoHistory
Fore
SplineSet
85 0 m 1
 302 1658 l 1
 445 1658 l 1
 638 256 l 1
 1127 1658 l 1
 1274 1658 l 1
 1141 0 l 1
 1013 0 l 1
 1118 1273 l 1
 662 0 l 1
 562 0 l 1
 376 1270 l 1
 214 0 l 1
 85 0 l 1
EndSplineSet
EndChar

StartChar: afii10033
Encoding: 343 1055 149
Width: 1137
VWidth: 0
Flags: W
HStem: 0 21G<99 258.113 791 950.099> 1543 115<419 953>
LayerCount: 2
UndoRedoHistory
Layer: 1
Undoes
EndUndoes
Redoes
EndRedoes
EndUndoRedoHistory
Fore
SplineSet
99 0 m 1
 273 1658 l 1
 1122 1658 l 1
 948 0 l 1
 791 0 l 1
 953 1543 l 1
 419 1543 l 1
 256 0 l 1
 99 0 l 1
EndSplineSet
EndChar

StartChar: afii10034
Encoding: 344 1056 150
Width: 979
VWidth: 0
Flags: W
HStem: 0 21G<99 258.115> 785 116<351 736.58> 1542 116<419 805.822>
LayerCount: 2
UndoRedoHistory
Layer: 1
Undoes
EndUndoes
Redoes
EndRedoes
EndUndoRedoHistory
Fore
SplineSet
351 901 m 1
 550 901 l 2
 750 901 842 980 867 1218 c 0
 894 1474 840 1542 620 1542 c 2
 419 1542 l 1
 351 901 l 1
99 0 m 1
 273 1658 l 1
 671 1658 l 2
 969 1658 1048 1482 1021 1219 c 1
 995 982 868 785 581 785 c 2
 339 785 l 1
 256 0 l 1
 99 0 l 1
EndSplineSet
EndChar

StartChar: afii10037
Encoding: 347 1059 153
Width: 926
VWidth: 0
Flags: W
HStem: -213 122<66 308.653> 1638 20G<186 339.503 859.854 1019>
LayerCount: 2
UndoRedoHistory
Layer: 1
Undoes
EndUndoes
Redoes
EndRedoes
EndUndoRedoHistory
Fore
SplineSet
52 -213 m 1
 66 -91 l 1
 338 -105 357 -37 388 209 c 1
 186 1658 l 1
 337 1658 l 1
 430 915 l 1
 484 381 l 1
 638 916 l 1
 866 1658 l 1
 1019 1658 l 1
 549 202 l 1
 446 -128 439 -228 52 -213 c 1
EndSplineSet
EndChar

StartChar: afii10038
Encoding: 348 1060 154
Width: 1268
VWidth: 0
Flags: W
HStem: 188 100<321.312 528 695 924.65> 1404 100<429.453 655 823 1030.73>
LayerCount: 2
UndoRedoHistory
Layer: 1
Undoes
EndUndoes
Redoes
EndRedoes
EndUndoRedoHistory
Fore
SplineSet
765 288 m 0
 950 282 1007 379 1031 611 c 2
 1079 1069 l 2
 1104 1303 1067 1413 877 1407 c 0
 868 1407 829 1405 812 1404 c 1
 695 291 l 1
 713 289 754 288 765 288 c 0
474 288 m 0
 484 288 520 289 538 291 c 1
 655 1404 l 1
 639 1406 606 1407 597 1407 c 0
 408 1413 349 1303 324 1069 c 2
 276 611 l 2
 252 379 288 282 474 288 c 0
497 -99 m 1
 528 192 l 1
 509 190 451 188 439 188 c 0
 206 176 99 307 131 611 c 2
 179 1069 l 2
 211 1376 351 1514 590 1506 c 0
 599 1506 651 1505 666 1504 c 1
 698 1808 l 1
 855 1808 l 1
 823 1504 l 1
 840 1506 901 1507 911 1507 c 0
 1148 1515 1257 1376 1225 1069 c 2
 1177 611 l 2
 1145 309 1009 176 778 188 c 0
 766 188 704 190 685 192 c 1
 654 -99 l 1
 497 -99 l 1
EndSplineSet
EndChar

StartChar: afii10040
Encoding: 350 1062 156
Width: 1188
VWidth: 0
Flags: W
HStem: 0 115<268 813> 1638 20G<270.901 430 972.9 1132>
VStem: 935 124<-285 -148.467>
LayerCount: 2
UndoRedoHistory
Layer: 1
Undoes
EndUndoes
Redoes
EndRedoes
EndUndoRedoHistory
Fore
SplineSet
935 -285 m 1
 950 0 l 1
 99 0 l 1
 273 1658 l 1
 430 1658 l 1
 268 115 l 1
 813 115 l 1
 975 1658 l 1
 1132 1658 l 1
 970 115 l 1
 1101 115 l 1
 1059 -285 l 1
 935 -285 l 1
EndSplineSet
EndChar

StartChar: afii10041
Encoding: 351 1063 157
Width: 1059
VWidth: 0
Flags: W
HStem: 0 21G<713 872.099> 735 108<394.798 790.938> 1638 20G<234.914 382 884.905 1044>
LayerCount: 2
UndoRedoHistory
Layer: 1
Undoes
EndUndoes
Redoes
EndRedoes
EndUndoRedoHistory
Fore
SplineSet
713 0 m 1
 794 769 l 1
 703 746 620 735 546 735 c 0
 291 735 152 843 179 1102 c 2
 237 1658 l 1
 382 1658 l 1
 324 1103 l 2
 303 903 408 843 585 843 c 0
 659 843 737 855 805 875 c 1
 887 1658 l 1
 1044 1658 l 1
 870 0 l 1
 713 0 l 1
EndSplineSet
EndChar

StartChar: afii10042
Encoding: 352 1064 158
Width: 1474
VWidth: 0
Flags: W
HStem: 0 116<268 633 790 1140> 1638 20G<270.901 430 792.899 952 1299.9 1459>
LayerCount: 2
UndoRedoHistory
Layer: 1
Undoes
EndUndoes
Redoes
EndRedoes
EndUndoRedoHistory
Fore
SplineSet
99 0 m 1
 273 1658 l 1
 430 1658 l 1
 268 116 l 1
 633 116 l 1
 795 1658 l 1
 952 1658 l 1
 790 116 l 1
 1140 116 l 1
 1302 1658 l 1
 1459 1658 l 1
 1285 0 l 1
 99 0 l 1
EndSplineSet
EndChar

StartChar: afii10043
Encoding: 353 1065 159
Width: 1518
VWidth: 0
Flags: W
HStem: 0 115<268 633 790 1141> 1638 20G<270.901 430 792.9 952 1300.9 1460>
VStem: 1265 124<-285 -148.467>
LayerCount: 2
UndoRedoHistory
Layer: 1
Undoes
EndUndoes
Redoes
EndRedoes
EndUndoRedoHistory
Fore
SplineSet
1265 -285 m 1
 1280 0 l 1
 99 0 l 1
 273 1658 l 1
 430 1658 l 1
 268 115 l 1
 633 115 l 1
 795 1658 l 1
 952 1658 l 1
 790 115 l 1
 1141 115 l 1
 1303 1658 l 1
 1460 1658 l 1
 1298 115 l 1
 1431 115 l 1
 1389 -285 l 1
 1265 -285 l 1
EndSplineSet
EndChar

StartChar: afii10044
Encoding: 354 1066 160
Width: 1129
VWidth: 0
Flags: W
HStem: 0 120<428 775.182> 843 120<516 831.388> 1537 121<141 420>
LayerCount: 2
UndoRedoHistory
Layer: 1
Undoes
EndUndoes
Redoes
EndRedoes
EndUndoRedoHistory
Fore
SplineSet
428 120 m 1
 577 120 l 2
 805 120 903 222 930 478 c 0
 955 717 890 843 650 843 c 2
 504 843 l 1
 428 120 l 1
258 0 m 1
 420 1537 l 1
 129 1537 l 1
 141 1658 l 1
 589 1658 l 1
 516 963 l 1
 656 963 l 2
 982 963 1119 822 1082 476 c 1
 1051 176 897 0 562 0 c 2
 258 0 l 1
EndSplineSet
EndChar

StartChar: afii10045
Encoding: 355 1067 161
Width: 1416
VWidth: 0
Flags: W
HStem: 0 120<268 615.919> 843 120<357 671.902> 1638 20G<270.901 430 1241.9 1401>
LayerCount: 2
UndoRedoHistory
Layer: 1
Undoes
EndUndoes
Redoes
EndRedoes
EndUndoRedoHistory
Fore
SplineSet
1070 0 m 1
 1244 1658 l 1
 1401 1658 l 1
 1227 0 l 1
 1070 0 l 1
268 120 m 1
 417 120 l 2
 646 120 744 222 771 478 c 0
 796 717 730 843 491 843 c 2
 344 843 l 1
 268 120 l 1
99 0 m 1
 273 1658 l 1
 430 1658 l 1
 357 963 l 1
 497 963 l 2
 822 963 959 822 923 476 c 0
 891 176 738 0 403 0 c 2
 99 0 l 1
EndSplineSet
EndChar

StartChar: afii10046
Encoding: 356 1068 162
Width: 970
VWidth: 0
Flags: W
HStem: 0 120<269 616.182> 843 120<357 672.388> 1638 20G<270.901 430>
LayerCount: 2
UndoRedoHistory
Layer: 1
Undoes
EndUndoes
Redoes
EndRedoes
EndUndoRedoHistory
Fore
SplineSet
269 120 m 1
 418 120 l 2
 646 120 744 222 771 478 c 0
 796 717 731 843 491 843 c 2
 345 843 l 1
 269 120 l 1
99 0 m 1
 273 1658 l 1
 430 1658 l 1
 357 963 l 1
 497 963 l 2
 823 963 960 822 923 476 c 1
 892 176 738 0 403 0 c 2
 99 0 l 1
EndSplineSet
EndChar

StartChar: afii10047
Encoding: 357 1069 163
Width: 1036
VWidth: 0
Flags: W
HStem: -8 125<323.806 636.061> 806 108<464 807> 1563 126<469.585 778.869>
LayerCount: 2
UndoRedoHistory
Layer: 1
Undoes
EndUndoes
Redoes
EndRedoes
EndUndoRedoHistory
Fore
SplineSet
460 -8 m 0
 163 -8 85 175 116 463 c 2
 124 538 l 1
 272 538 l 1
 265 468 l 1
 242 253 263 117 472 117 c 0
 696 117 750 267 774 490 c 2
 807 806 l 1
 453 806 l 1
 464 914 l 1
 818 914 l 1
 848 1195 l 2
 874 1441 827 1563 624 1563 c 0
 416 1563 365 1420 342 1204 c 1
 334 1125 l 1
 186 1125 l 1
 193 1193 l 2
 223 1484 329 1689 638 1689 c 0
 975 1689 1034 1460 1003 1170 c 2
 934 511 l 2
 902 206 791 -8 460 -8 c 0
EndSplineSet
EndChar

StartChar: afii10048
Encoding: 358 1070 164
Width: 1408
VWidth: 0
Flags: W
HStem: -21 126<693.42 1018.69> 0 21G<99 250.103> 780 122<342 510> 1552 124<836.567 1158.97> 1638 20G<270.901 422>
LayerCount: 2
UndoRedoHistory
Layer: 1
Undoes
EndUndoes
Redoes
EndRedoes
EndUndoRedoHistory
Fore
SplineSet
853 105 m 0xb0
 1066 105 1134 246 1156 456 c 2
 1234 1206 l 2
 1256 1416 1217 1552 1003 1552 c 0
 789 1552 721 1416 698 1206 c 1
 620 456 l 2
 598 246 636 105 853 105 c 0xb0
837 -21 m 0
 518 -21 448 192 480 493 c 2
 510 780 l 1
 330 780 l 1
 248 0 l 1
 99 0 l 1
 273 1658 l 1
 422 1658 l 1x68
 342 902 l 1
 522 902 l 1
 551 1174 l 2
 583 1476 703 1676 1016 1676 c 0
 1328 1676 1406 1471 1375 1173 c 2
 1303 491 l 2
 1272 192 1155 -21 837 -21 c 0
EndSplineSet
EndChar

StartChar: afii10049
Encoding: 359 1071 165
Width: 1093
VWidth: 0
Flags: W
HStem: 0 21G<-5 179.476 748 907.099> 710 116<543.72 822> 1542 116<527.445 910>
LayerCount: 2
UndoRedoHistory
Layer: 1
Undoes
EndUndoes
Redoes
EndRedoes
EndUndoRedoHistory
Fore
SplineSet
651 826 m 2
 835 826 l 1
 910 1542 l 1
 722 1542 l 2
 517 1542 396 1448 371 1210 c 0
 344 954 417 826 651 826 c 2
-5 0 m 1
 410 752 l 1
 257 815 197 984 220 1210 c 1
 247 1457 376 1658 727 1658 c 2
 1079 1658 l 1
 905 0 l 1
 748 0 l 1
 822 710 l 1
 613 710 l 2
 596 710 558 712 543 714 c 1
 169 0 l 1
 -5 0 l 1
EndSplineSet
EndChar

StartChar: afii10051
Encoding: 360 1026 166
Width: 1040
VWidth: 0
Flags: W
HStem: 0 116<514 682.853> 865 110<506.064 768.811> 1538 120<104 370 524 823>
LayerCount: 2
UndoRedoHistory
Layer: 1
Undoes
EndUndoes
Redoes
EndRedoes
EndUndoRedoHistory
Fore
SplineSet
208 0 m 1
 370 1538 l 1
 91 1538 l 1
 104 1658 l 1
 836 1658 l 1
 823 1538 l 1
 524 1538 l 1
 457 897 l 1
 510 945 599 975 688 975 c 0
 842 975 996 884 972 654 c 2
 945 400 l 2
 916 121 773 0 527 0 c 2
 501 0 l 1
 514 116 l 1
 713 116 777 228 795 401 c 2
 821 654 l 2
 835 784 765 865 646 865 c 0
 584 865 512 843 446 802 c 1
 362 0 l 1
 208 0 l 1
EndSplineSet
EndChar

StartChar: afii10053
Encoding: 362 1028 168
Width: 1005
VWidth: 0
Flags: W
HStem: -21 126<342.441 652.162> 814 113<321 730> 1552 124<485.939 798.049>
LayerCount: 2
UndoRedoHistory
Layer: 1
Undoes
EndUndoes
Redoes
EndRedoes
EndUndoRedoHistory
Fore
SplineSet
483 -21 m 0
 146 -21 88 209 119 499 c 2
 188 1158 l 2
 220 1463 331 1676 662 1676 c 0
 959 1676 1036 1494 1006 1205 c 1
 999 1143 l 1
 851 1143 l 1
 857 1200 l 2
 879 1416 859 1552 650 1552 c 0
 426 1552 372 1401 348 1178 c 2
 321 927 l 1
 742 927 l 1
 730 814 l 1
 310 814 l 1
 274 474 l 2
 248 227 294 105 498 105 c 0
 706 105 757 249 780 464 c 1
 787 542 l 1
 936 542 l 1
 929 475 l 2
 899 184 793 -21 483 -21 c 0
EndSplineSet
EndChar

StartChar: afii10055
Encoding: 364 1030 170
Width: 454
VWidth: 0
Flags: W
HStem: 0 21G<106 262.099> 1638 20G<277.901 434>
VStem: 106 328
LayerCount: 2
UndoRedoHistory
Layer: 1
Undoes
EndUndoes
Redoes
EndRedoes
EndUndoRedoHistory
Fore
SplineSet
106 0 m 1
 280 1658 l 1
 434 1658 l 1
 260 0 l 1
 106 0 l 1
EndSplineSet
EndChar

StartChar: afii10057
Encoding: 366 1032 172
Width: 571
VWidth: 0
Flags: W
HStem: -73 118<-25 177.753> 1638 20G<395.9 555>
VStem: -37 592
LayerCount: 2
UndoRedoHistory
Layer: 1
Undoes
EndUndoes
Redoes
EndRedoes
EndUndoRedoHistory
Fore
SplineSet
-37 -73 m 1
 -25 45 l 1
 203 45 234 91 259 334 c 2
 398 1658 l 1
 555 1658 l 1
 416 324 l 1
 386 53 323 -73 41 -73 c 2
 -37 -73 l 1
EndSplineSet
EndChar

StartChar: afii10058
Encoding: 367 1033 173
Width: 1679
VWidth: 0
Flags: W
HStem: 0 120<5 158.166 987 1316.18> 843 120<1075 1372.39> 1540 118<632 979>
LayerCount: 2
UndoRedoHistory
Layer: 1
Undoes
EndUndoes
Redoes
EndRedoes
EndUndoRedoHistory
Fore
SplineSet
987 120 m 1
 1118 120 l 2
 1346 120 1444 222 1471 478 c 0
 1496 717 1431 843 1191 843 c 2
 1063 843 l 1
 987 120 l 1
-8 -4 m 1
 5 117 l 1
 206 110 251 229 339 720 c 1
 503 1658 l 1
 1148 1658 l 1
 1075 963 l 1
 1197 963 l 2
 1523 963 1660 822 1623 476 c 1
 1592 176 1438 0 1103 0 c 2
 817 0 l 1
 979 1540 l 1
 632 1540 l 1
 485 720 l 1
 393 199 317 -11 26 -5 c 1
 -8 -4 l 1
EndSplineSet
EndChar

StartChar: afii10059
Encoding: 368 1034 174
Width: 1559
VWidth: 0
Flags: W
HStem: 0 120<875 1204.18> 843 116<357 794 963 1260.39> 1640 20G<270.902 430 876.917 1036>
LayerCount: 2
UndoRedoHistory
Layer: 1
Undoes
EndUndoes
Redoes
EndRedoes
EndUndoRedoHistory
Fore
SplineSet
875 120 m 1
 1006 120 l 2
 1234 120 1332 222 1359 478 c 0
 1384 717 1319 843 1079 843 c 2
 951 843 l 1
 875 120 l 1
991 0 m 1
 705 1 l 1
 794 843 l 1
 345 843 l 1
 256 1 l 1
 99 1 l 1
 273 1660 l 1
 430 1660 l 1
 357 959 l 1
 806 959 l 1
 879 1660 l 1
 1036 1660 l 1
 963 963 l 1
 1085 963 l 2
 1411 963 1548 822 1511 476 c 1
 1480 176 1326 0 991 0 c 1
EndSplineSet
EndChar

StartChar: afii10060
Encoding: 369 1035 175
Width: 945
VWidth: 0
Flags: W
HStem: 0 21G<178 334.1 643 796.107> 879 95<480.981 709.381> 1538 120<53 339 493 804>
LayerCount: 2
UndoRedoHistory
Layer: 1
Undoes
EndUndoes
Redoes
EndRedoes
EndUndoRedoHistory
Fore
SplineSet
178 0 m 1
 339 1538 l 1
 41 1538 l 1
 53 1658 l 1
 817 1658 l 1
 804 1538 l 1
 493 1538 l 1
 426 896 l 1
 458 922 547 974 666 974 c 0
 784 974 890 915 875 769 c 2
 794 0 l 1
 643 0 l 1
 722 744 l 2
 732 843 689 879 613 879 c 0
 531 879 457 835 416 800 c 1
 332 0 l 1
 178 0 l 1
EndSplineSet
EndChar

StartChar: afii10066
Encoding: 373 1073 179
Width: 899
VWidth: 0
Flags: W
HStem: -19 113<310.897 553.703> 996 106<415.08 657.103>
LayerCount: 2
UndoRedoHistory
Layer: 1
Undoes
EndUndoes
Redoes
EndRedoes
EndUndoRedoHistory
Fore
SplineSet
430 94 m 0
 556 97 626 163 651 403 c 2
 681 687 l 2
 705 919 671 996 554 996 c 0
 484 996 376 949 319 904 c 1
 263 371 l 2
 241 170 316 92 430 94 c 0
407 -19 m 1
 224 -21 84 102 113 375 c 2
 187 1073 l 1
 255 1726 430 1547 832 1704 c 1
 849 1576 l 1
 513 1442 392 1603 345 1155 c 1
 330 1008 l 1
 386 1054 504 1101 596 1102 c 1
 769 1102 862 988 827 650 c 2
 805 442 l 2
 767 76 620 -15 407 -19 c 1
EndSplineSet
EndChar

StartChar: afii10067
Encoding: 374 1074 180
Width: 799
VWidth: 0
Flags: W
HStem: 0 115<228 496.985> 574 111<288 542.135> 1069 115<329 576.799>
LayerCount: 2
UndoRedoHistory
Layer: 1
Undoes
EndUndoes
Redoes
EndRedoes
EndUndoRedoHistory
Fore
SplineSet
288 685 m 1
 438 685 l 2
 532 685 603 753 617 884 c 1
 629 1006 572 1069 453 1069 c 2
 329 1069 l 1
 288 685 l 1
228 115 m 1
 359 115 l 2
 495 115 559 193 575 348 c 0
 594 534 523 574 417 574 c 2
 277 574 l 1
 228 115 l 1
69 0 m 1
 194 1184 l 1
 481 1184 l 2
 712 1184 767 1046 753 899 c 0
 743 794 698 684 577 642 c 1
 708 606 736 477 722 344 c 0
 701 139 625 0 373 0 c 2
 69 0 l 1
EndSplineSet
EndChar

StartChar: afii10068
Encoding: 375 1075 181
Width: 580
VWidth: 0
Flags: W
HStem: 0 21G<69 221.108> 1072 112<332 619>
VStem: 69 561
LayerCount: 2
UndoRedoHistory
Layer: 1
Undoes
EndUndoes
Redoes
EndRedoes
EndUndoRedoHistory
Fore
SplineSet
69 0 m 1
 193 1184 l 1
 630 1184 l 1
 619 1072 l 1
 332 1072 l 1
 219 0 l 1
 69 0 l 1
EndSplineSet
EndChar

StartChar: afii10069
Encoding: 376 1076 182
Width: 964
VWidth: 0
Flags: W
HStem: 0 108<143 602> 1073 111<475 703>
LayerCount: 2
UndoRedoHistory
Layer: 1
Undoes
EndUndoes
Redoes
EndRedoes
EndUndoRedoHistory
Fore
SplineSet
143 108 m 1
 602 108 l 1
 703 1073 l 1
 475 1073 l 1
 436 877 l 1
 360 356 280 193 143 108 c 1
-56 -285 m 1
 -15 103 l 1
 136 193 238 365 318 907 c 1
 366 1184 l 1
 860 1184 l 1
 747 108 l 1
 867 108 l 1
 825 -285 l 1
 711 -285 l 1
 728 0 l 1
 101 0 l 1
 58 -285 l 1
 -56 -285 l 1
EndSplineSet
EndChar

StartChar: afii10072
Encoding: 379 1078 185
Width: 1093
VWidth: 0
Flags: W
HStem: 0 21G<-37 116.879 440 567.112 890.38 1040> 587 29<486 502 630 646> 1164 20G<105 256.38 561.923 690 990.5 1146>
LayerCount: 2
UndoRedoHistory
Layer: 1
Undoes
EndUndoes
Redoes
EndRedoes
EndUndoRedoHistory
Fore
SplineSet
-37 0 m 1
 361 606 l 1
 105 1184 l 1
 248 1184 l 1
 486 616 l 1
 505 616 l 1
 564 1184 l 1
 690 1184 l 1
 630 616 l 1
 648 616 l 1
 1003 1184 l 1
 1146 1184 l 1
 770 606 l 1
 1040 0 l 1
 899 0 l 1
 646 587 l 1
 627 587 l 1
 565 0 l 1
 440 0 l 1
 502 587 l 1
 482 587 l 1
 104 0 l 1
 -37 0 l 1
EndSplineSet
EndChar

StartChar: afii10073
Encoding: 380 1079 186
Width: 746
VWidth: 0
Flags: W
HStem: -20 109<236.9 453.966> 559 111<317 480.986> 1090 112<322.534 549.636>
VStem: 70 650
LayerCount: 2
UndoRedoHistory
Layer: 1
Undoes
EndUndoes
Redoes
EndRedoes
EndUndoRedoHistory
Fore
SplineSet
329 -20 m 1
 131 -19 46 100 70 333 c 1
 203 333 l 1
 186 172 229 90 342 89 c 0
 463 88 517 183 531 337 c 0
 544 488 489 559 305 559 c 1
 317 670 l 1
 508 670 567 742 585 872 c 0
 603 999 553 1090 445 1090 c 0
 340 1090 267 1028 251 874 c 1
 119 874 l 1
 144 1105 271 1202 462 1202 c 0
 669 1202 741 1048 720 880 c 1
 700 706 594 632 492 617 c 1
 592 588 685 531 664 320 c 1
 645 105 525 -22 329 -20 c 1
EndSplineSet
EndChar

StartChar: afii10074
Encoding: 381 1080 187
Width: 872
VWidth: 0
Flags: W
HStem: 0 21G<69 203.769 587 716.095> 1164 20G<190.905 322 705.254 838>
LayerCount: 2
UndoRedoHistory
Layer: 1
Undoes
EndUndoes
Redoes
EndRedoes
EndUndoRedoHistory
Fore
SplineSet
69 0 m 1
 193 1184 l 1
 322 1184 l 1
 226 272 l 1
 716 1184 l 1
 838 1184 l 1
 714 0 l 1
 587 0 l 1
 683 910 l 1
 193 0 l 1
 69 0 l 1
EndSplineSet
EndChar

StartChar: afii10076
Encoding: 383 1082 189
Width: 795
VWidth: 0
Flags: W
HStem: 0 21G<69 221.109 573.373 738> 569 94<289 364> 1164 20G<190.905 343 684.639 853>
LayerCount: 2
UndoRedoHistory
Layer: 1
Undoes
EndUndoes
Redoes
EndRedoes
EndUndoRedoHistory
Fore
SplineSet
69 0 m 1
 193 1184 l 1
 343 1184 l 1
 289 663 l 1
 375 663 l 1
 697 1184 l 1
 853 1184 l 1
 505 613 l 1
 738 0 l 1
 581 0 l 1
 364 569 l 1
 279 569 l 1
 219 0 l 1
 69 0 l 1
EndSplineSet
EndChar

StartChar: afii10077
Encoding: 384 1083 190
Width: 939
VWidth: 0
Flags: W
HStem: -10 114<-12 109.997> 1068 116<484 742>
LayerCount: 2
UndoRedoHistory
Layer: 1
Undoes
EndUndoes
Redoes
EndRedoes
EndUndoRedoHistory
Fore
SplineSet
-24 -10 m 1
 -12 104 l 1
 146 107 192 202 272 654 c 1
 364 1184 l 1
 904 1184 l 1
 780 0 l 1
 630 0 l 1
 742 1068 l 1
 484 1068 l 1
 410 654 l 1
 318 124 244 -10 -3 -10 c 2
 -24 -10 l 1
EndSplineSet
EndChar

StartChar: afii10078
Encoding: 385 1084 191
Width: 1015
VWidth: 0
Flags: W
HStem: 0 21G<61 191.195 736 865.926> 1164 20G<193.72 313.693 853.106 978>
LayerCount: 2
UndoRedoHistory
Layer: 1
Undoes
EndUndoes
Redoes
EndRedoes
EndUndoRedoHistory
Fore
SplineSet
61 0 m 1
 196 1184 l 1
 309 1184 l 1
 500 370 l 1
 862 1184 l 1
 978 1184 l 1
 864 0 l 1
 736 0 l 1
 820 832 l 1
 498 122 l 1
 451 122 l 1
 280 829 l 1
 189 0 l 1
 61 0 l 1
EndSplineSet
EndChar

StartChar: afii10079
Encoding: 386 1085 192
Width: 898
VWidth: 0
Flags: W
HStem: 0 21G<69 221.122 589 741.095> 556 113<290 648> 1164 20G<190.905 343 710.942 863>
LayerCount: 2
UndoRedoHistory
Layer: 1
Undoes
EndUndoes
Redoes
EndRedoes
EndUndoRedoHistory
Fore
SplineSet
69 0 m 1
 193 1184 l 1
 343 1184 l 1
 290 669 l 1
 660 669 l 1
 713 1184 l 1
 863 1184 l 1
 739 0 l 1
 589 0 l 1
 648 556 l 1
 278 556 l 1
 219 0 l 1
 69 0 l 1
EndSplineSet
EndChar

StartChar: afii10081
Encoding: 388 1087 194
Width: 861
VWidth: 0
Flags: W
HStem: 0 21G<69 221.118 552 704.095> 1067 117<332 665>
LayerCount: 2
UndoRedoHistory
Layer: 1
Undoes
EndUndoes
Redoes
EndRedoes
EndUndoRedoHistory
Fore
SplineSet
69 0 m 1
 193 1184 l 1
 826 1184 l 1
 702 0 l 1
 552 0 l 1
 665 1067 l 1
 332 1067 l 1
 219 0 l 1
 69 0 l 1
EndSplineSet
EndChar

StartChar: afii10084
Encoding: 391 1090 197
Width: 686
VWidth: 0
Flags: W
HStem: 0 21G<225 377.093> 1070 114<93 337 487 739>
VStem: 81 671
LayerCount: 2
UndoRedoHistory
Layer: 1
Undoes
EndUndoes
Redoes
EndRedoes
EndUndoRedoHistory
Fore
SplineSet
225 0 m 1
 337 1070 l 1
 81 1070 l 1
 93 1184 l 1
 752 1184 l 1
 739 1070 l 1
 487 1070 l 1
 375 0 l 1
 225 0 l 1
EndSplineSet
EndChar

StartChar: afii10085
Encoding: 392 1091 198
Width: 782
VWidth: 0
Flags: W
HStem: -300 125<24 205.943> 1164 20G<129 274.09 666.153 818>
VStem: 672 146<1140.24 1184>
LayerCount: 2
UndoRedoHistory
Layer: 1
Undoes
EndUndoes
Redoes
EndRedoes
EndUndoRedoHistory
Fore
SplineSet
10 -300 m 1
 24 -175 l 1
 249 -173 291 -76 269 92 c 2
 129 1184 l 1
 272 1184 l 1
 337 562 l 1
 374 153 l 1
 489 558 l 1
 672 1184 l 1
 818 1184 l 1
 418 -37 l 2
 347 -256 221 -291 10 -300 c 1
EndSplineSet
EndChar

StartChar: afii10086
Encoding: 393 1092 199
Width: 1148
VWidth: 0
Flags: W
HStem: -390 21G<418 558.123> 81 107<285.178 468 617 821.555> 1049 101<362.99 569 718 910.099> 1638 20G<630.913 771>
LayerCount: 2
UndoRedoHistory
Layer: 1
Undoes
EndUndoes
Redoes
EndRedoes
EndUndoRedoHistory
Fore
SplineSet
617 188 m 1
 657 188 l 2
 800 188 901 230 931 512 c 2
 955 744 l 2
 983 1008 899 1049 762 1049 c 2
 707 1049 l 1
 617 188 l 1
438 188 m 2
 478 188 l 1
 569 1049 l 1
 515 1049 l 2
 378 1049 288 1008 260 744 c 2
 236 512 l 2
 206 230 296 188 438 188 c 2
418 -390 m 1
 468 81 l 1
 424 81 l 2
 246 81 62 137 101 513 c 2
 123 726 l 1
 158 1055 320 1150 522 1150 c 2
 580 1150 l 1
 633 1658 l 1
 771 1658 l 1
 718 1150 l 1
 782 1150 l 2
 983 1150 1122 1055 1087 726 c 1
 1065 513 l 2
 1026 137 834 81 655 81 c 2
 606 81 l 1
 556 -390 l 1
 418 -390 l 1
EndSplineSet
EndChar

StartChar: afii10088
Encoding: 395 1094 201
Width: 898
VWidth: 0
Flags: W
HStem: 0 106<231 572> 1164 20G<190.905 343 681.922 834>
LayerCount: 2
UndoRedoHistory
Layer: 1
Undoes
EndUndoes
Redoes
EndRedoes
EndUndoRedoHistory
Fore
SplineSet
687 -285 m 1
 704 0 l 1
 69 0 l 1
 193 1184 l 1
 343 1184 l 1
 231 106 l 1
 572 106 l 1
 684 1184 l 1
 834 1184 l 1
 722 106 l 1
 840 106 l 1
 798 -285 l 1
 687 -285 l 1
EndSplineSet
EndChar

StartChar: afii10089
Encoding: 396 1095 202
Width: 814
VWidth: 0
Flags: W
HStem: 0 21G<503 655.095> 473 109<291.119 553.671> 1164 20G<157.9 310 624.911 777>
VStem: 114 663
LayerCount: 2
UndoRedoHistory
Layer: 1
Undoes
EndUndoes
Redoes
EndRedoes
EndUndoRedoHistory
Fore
SplineSet
503 0 m 1
 555 494 l 1
 500 484 446 473 379 473 c 0
 213 473 93 542 114 746 c 2
 160 1184 l 1
 310 1184 l 1
 264 743 l 2
 253 636 301 582 422 582 c 0
 480 582 518 589 566 600 c 1
 627 1184 l 1
 777 1184 l 1
 653 0 l 1
 503 0 l 1
EndSplineSet
EndChar

StartChar: afii10090
Encoding: 397 1096 203
Width: 1185
VWidth: 0
Flags: W
HStem: 0 106<227 487 633 891> 1164 20G<190.905 339 596.922 745 1001.9 1150>
LayerCount: 2
UndoRedoHistory
Layer: 1
Undoes
EndUndoes
Redoes
EndRedoes
EndUndoRedoHistory
Fore
SplineSet
69 0 m 1
 193 1184 l 1
 339 1184 l 1
 227 106 l 1
 487 106 l 1
 599 1184 l 1
 745 1184 l 1
 633 106 l 1
 891 106 l 1
 1004 1184 l 1
 1150 1184 l 1
 1026 0 l 1
 69 0 l 1
EndSplineSet
EndChar

StartChar: afii10091
Encoding: 398 1097 204
Width: 1250
VWidth: 0
Flags: W
HStem: 0 106<226 490 635 899> 1164 20G<191.889 339 600.904 748 1009.9 1157>
VStem: 1011 110<-285 -151.539>
LayerCount: 2
UndoRedoHistory
Layer: 1
Undoes
EndUndoes
Redoes
EndRedoes
EndUndoRedoHistory
Fore
SplineSet
1011 -285 m 1
 1026 0 l 1
 69 0 l 1
 194 1184 l 1
 339 1184 l 1
 226 106 l 1
 490 106 l 1
 603 1184 l 1
 748 1184 l 1
 635 106 l 1
 899 106 l 1
 1012 1184 l 1
 1157 1184 l 1
 1044 106 l 1
 1163 106 l 1
 1121 -285 l 1
 1011 -285 l 1
EndSplineSet
EndChar

StartChar: afii10092
Encoding: 399 1098 205
Width: 934
VWidth: 0
Flags: W
HStem: 0 95<363 620.127> 608 95<427 664.74> 1072 112<75 315>
LayerCount: 2
UndoRedoHistory
Layer: 1
Undoes
EndUndoes
Redoes
EndRedoes
EndUndoRedoHistory
Fore
SplineSet
363 95 m 1
 424 95 l 2
 650 95 710 191 726 349 c 1
 742 496 712 607 483 608 c 1
 417 608 l 1
 363 95 l 1
203 0 m 1
 315 1072 l 1
 63 1072 l 1
 75 1184 l 1
 477 1184 l 1
 427 703 l 1
 500 703 l 1
 820 702 887 561 864 348 c 0
 843 145 745 0 414 0 c 2
 203 0 l 1
EndSplineSet
EndChar

StartChar: afii10093
Encoding: 400 1099 206
Width: 1153
VWidth: 0
Flags: W
HStem: 0 95<229 486.186> 608 95<293 531.058> 1164 20G<190.905 343 965.905 1118>
LayerCount: 2
UndoRedoHistory
Layer: 1
Undoes
EndUndoes
Redoes
EndRedoes
EndUndoRedoHistory
Fore
SplineSet
844 0 m 1
 968 1184 l 1
 1118 1184 l 1
 994 0 l 1
 844 0 l 1
229 95 m 1
 290 95 l 2
 516 95 576 191 593 349 c 0
 609 496 579 607 349 608 c 1
 283 608 l 1
 229 95 l 1
69 0 m 1
 193 1184 l 1
 343 1184 l 1
 293 703 l 1
 366 703 l 1
 686 702 753 561 731 348 c 1
 709 145 611 0 280 0 c 2
 69 0 l 1
EndSplineSet
EndChar

StartChar: afii10094
Encoding: 401 1100 207
Width: 796
VWidth: 0
Flags: W
HStem: 0 95<229 486.186> 608 95<293 531.058> 1164 20G<190.905 343>
VStem: 69 662
LayerCount: 2
UndoRedoHistory
Layer: 1
Undoes
EndUndoes
Redoes
EndRedoes
EndUndoRedoHistory
Fore
SplineSet
229 95 m 1
 290 95 l 2
 516 95 576 191 593 349 c 0
 609 496 579 607 349 608 c 1
 283 608 l 1
 229 95 l 1
69 0 m 1
 193 1184 l 1
 343 1184 l 1
 293 703 l 1
 366 703 l 1
 686 702 753 561 731 348 c 1
 709 145 611 0 280 0 c 2
 69 0 l 1
EndSplineSet
EndChar

StartChar: afii10095
Encoding: 402 1101 208
Width: 811
VWidth: 0
Flags: W
HStem: -19 113<255.254 489.821> 550 91<279 582> 1080 112<350.665 582.358>
LayerCount: 2
UndoRedoHistory
Layer: 1
Undoes
EndUndoes
Redoes
EndRedoes
EndUndoRedoHistory
Fore
SplineSet
357 -19 m 0
 106 -19 69 124 91 341 c 1
 94 367 l 1
 233 367 l 1
 230 341 l 1
 210 152 254 94 371 94 c 0
 513 94 544 187 570 434 c 2
 582 550 l 1
 269 550 l 1
 279 641 l 1
 592 641 l 1
 604 756 l 2
 630 1004 608 1080 473 1080 c 0
 333 1080 298 986 281 824 c 2
 277 784 l 1
 138 784 l 1
 142 817 l 1
 164 1029 230 1192 487 1192 c 0
 763 1192 780 1002 751 725 c 2
 723 459 l 1
 687 128 609 -19 357 -19 c 0
EndSplineSet
EndChar

StartChar: afii10096
Encoding: 403 1102 209
Width: 1097
VWidth: 0
Flags: W
HStem: -19 113<571.643 786.566> 0 21G<69 207.086> 537 101<272 425> 1090 112<665.322 880.085> 1164 20G<190.905 329>
LayerCount: 2
UndoRedoHistory
Layer: 1
Undoes
EndUndoes
Redoes
EndRedoes
EndUndoRedoHistory
Fore
SplineSet
674 94 m 0xb0
 822 94 847 228 867 420 c 2
 904 764 l 1
 923 956 927 1090 778 1090 c 0
 630 1090 604 956 585 764 c 1
 548 420 l 2
 528 228 525 94 674 94 c 0xb0
662 -19 m 0
 429 -19 384 142 414 428 c 1
 425 537 l 1
 261 537 l 1
 205 0 l 1
 69 0 l 1
 193 1184 l 1
 329 1184 l 1x68
 272 638 l 1
 436 638 l 1
 449 756 l 1
 479 1040 558 1202 790 1202 c 0
 1022 1202 1068 1042 1038 756 c 2
 1004 428 l 1
 973 142 894 -19 662 -19 c 0
EndSplineSet
EndChar

StartChar: afii10097
Encoding: 404 1103 210
Width: 825
VWidth: 0
Flags: W
HStem: 0 21G<-13 159.845 516 668.095> 479 93<413.928 566> 1091 93<376.336 630>
LayerCount: 2
UndoRedoHistory
Layer: 1
Undoes
EndUndoes
Redoes
EndRedoes
EndUndoRedoHistory
Fore
SplineSet
523 572 m 1
 576 572 l 1
 630 1091 l 1
 564 1091 l 2
 345 1091 294 989 278 836 c 0
 259 658 320 574 523 572 c 1
-13 0 m 1
 275 513 l 1
 152 563 125 700 140 837 c 1
 160 1035 251 1184 580 1184 c 2
 790 1184 l 1
 666 0 l 1
 516 0 l 1
 566 479 l 1
 503 479 453 480 412 485 c 1
 149 0 l 1
 -13 0 l 1
EndSplineSet
EndChar

StartChar: afii10098
Encoding: 405 1169 211
Width: 629
VWidth: 0
Flags: W
HStem: 0 21G<84 227.111> 1080 104<339 578>
VStem: 84 594
LayerCount: 2
UndoRedoHistory
Layer: 1
Undoes
EndUndoes
Redoes
EndRedoes
EndUndoRedoHistory
Fore
SplineSet
84 0 m 1
 208 1184 l 1
 578 1184 l 1
 595 1350 l 1
 678 1350 l 1
 649 1080 l 1
 339 1080 l 1
 225 0 l 1
 84 0 l 1
EndSplineSet
EndChar

StartChar: afii10099
Encoding: 406 1106 212
Width: 871
VWidth: 0
Flags: W
HStem: -268 105<323 499.295> 0 21G<90 242.087> 901 99<410.83 636.762> 1275 93<86 223 383 642> 1638 20G<261.862 414>
LayerCount: 2
UndoRedoHistory
Layer: 1
Undoes
EndUndoes
Redoes
EndRedoes
EndUndoRedoHistory
Fore
SplineSet
311 -268 m 1
 323 -163 l 1
 355 -163 l 2
 531 -163 559 -96 588 182 c 2
 649 763 l 2
 660 864 620 901 544 901 c 0
 462 901 370 862 326 824 c 1
 240 0 l 1
 90 0 l 1
 223 1275 l 1
 77 1275 l 1
 86 1368 l 1
 233 1368 l 1
 264 1658 l 1
 414 1658 l 1
 383 1368 l 1
 652 1368 l 1
 642 1275 l 1
 374 1275 l 1
 336 912 l 1
 373 941 478 1000 605 1000 c 0
 739 1000 817 924 802 790 c 2
 741 207 l 2
 705 -132 664 -268 368 -268 c 2
 311 -268 l 1
EndSplineSet
EndChar

StartChar: afii10101
Encoding: 408 1108 214
Width: 787
VWidth: 0
Flags: W
HStem: -19 113<268.552 498.58> 550 103<267 560> 1090 112<363.733 593.542>
LayerCount: 2
UndoRedoHistory
Layer: 1
Undoes
EndUndoes
Redoes
EndRedoes
EndUndoRedoHistory
Fore
SplineSet
363 -19 m 0
 87 -19 67 181 95 449 c 1
 125 725 l 1
 159 1054 239 1202 491 1202 c 0
 742 1202 778 1056 754 829 c 1
 751 798 l 1
 612 798 l 1
 615 829 l 1
 637 1036 598 1090 481 1090 c 0
 339 1090 303 1000 277 750 c 2
 267 653 l 1
 571 653 l 1
 560 550 l 1
 256 550 l 1
 242 418 l 2
 217 181 243 94 377 94 c 0
 518 94 547 183 568 375 c 1
 571 413 l 1
 710 413 l 1
 707 382 l 1
 682 143 620 -19 363 -19 c 0
EndSplineSet
EndChar

StartChar: afii10103
Encoding: 410 1110 216
Width: 474
VWidth: 0
Flags: W
HStem: 0 21G<119 271.095> 1164 20G<240.905 393> 1334 199<274 419>
VStem: 119 321
LayerCount: 2
UndoRedoHistory
Layer: 1
Undoes
EndUndoes
Redoes
EndRedoes
EndUndoRedoHistory
Fore
SplineSet
253 1334 m 1
 274 1533 l 1
 440 1533 l 1
 419 1334 l 1
 253 1334 l 1
119 0 m 1
 243 1184 l 1
 393 1184 l 1
 269 0 l 1
 119 0 l 1
EndSplineSet
EndChar

StartChar: afii10105
Encoding: 412 1112 218
Width: 430
VWidth: 0
Flags: W
HStem: -310 118<-100.226 68.1017> 1164 20G<233.904 386> 1347 204<275 404>
VStem: -111 537
LayerCount: 2
UndoRedoHistory
Layer: 1
Undoes
EndUndoes
Redoes
EndRedoes
EndUndoRedoHistory
Fore
SplineSet
253 1347 m 1
 275 1551 l 1
 426 1551 l 1
 404 1347 l 1
 253 1347 l 1
-111 -303 m 1
 -99 -189 l 1
 -92 -191 -57 -192 -48 -192 c 0
 77 -192 100 -114 109 -28 c 2
 236 1184 l 1
 386 1184 l 1
 257 -41 l 2
 238 -229 131 -310 -32 -310 c 0
 -52 -310 -96 -309 -111 -303 c 1
EndSplineSet
EndChar

StartChar: afii10106
Encoding: 413 1113 219
Width: 1282
VWidth: 0
Flags: W
HStem: 0 95<-25 88.9954 777 1005.62> 565 95<836 1046.41> 1068 116<471 729>
LayerCount: 2
UndoRedoHistory
Layer: 1
Undoes
EndUndoes
Redoes
EndRedoes
EndUndoRedoHistory
Fore
SplineSet
777 95 m 1
 822 95 l 2
 1031 95 1071 178 1087 329 c 0
 1102 472 1087 565 872 565 c 2
 826 565 l 1
 777 95 l 1
-37 -10 m 1
 -25 104 l 1
 131 104 180 210 250 606 c 2
 351 1184 l 1
 891 1184 l 1
 836 660 l 1
 892 660 l 2
 1198 660 1246 535 1225 328 c 0
 1204 130 1127 3 810 0 c 1
 617 0 l 1
 729 1068 l 1
 471 1068 l 1
 383 586 l 1
 290 46 184 -10 -21 -10 c 2
 -37 -10 l 1
EndSplineSet
EndChar

StartChar: afii10107
Encoding: 414 1114 220
Width: 1226
VWidth: 0
Flags: W
HStem: 0 95<703 947.094> 560 106<289 602 762 987.415> 1164 20G<190.905 343 664.915 817>
LayerCount: 2
UndoRedoHistory
Layer: 1
Undoes
EndUndoes
Redoes
EndRedoes
EndUndoRedoHistory
Fore
SplineSet
703 95 m 2
 704 95 763 95 765 96 c 0
 975 98 1015 177 1031 329 c 0
 1046 472 1031 562 816 565 c 0
 814 565 754 565 752 566 c 1
 703 95 l 2
69 0 m 1
 193 1184 l 1
 343 1184 l 1
 289 666 l 1
 613 666 l 1
 667 1184 l 1
 817 1184 l 1
 762 661 l 1
 766 661 826 661 829 660 c 0
 1139 658 1190 537 1169 328 c 0
 1148 129 1069 3 750 0 c 1
 543 0 l 1
 602 560 l 1
 278 560 l 1
 219 0 l 1
 69 0 l 1
EndSplineSet
EndChar

StartChar: afii10108
Encoding: 415 1115 221
Width: 871
VWidth: 0
Flags: W
HStem: 0 21G<90 242.087 569 721.101> 901 99<410.682 636.762> 1275 93<86 223 383 642> 1638 20G<261.862 414>
LayerCount: 2
UndoRedoHistory
Layer: 1
Undoes
EndUndoes
Redoes
EndRedoes
EndUndoRedoHistory
Fore
SplineSet
90 0 m 1
 223 1275 l 1
 77 1275 l 1
 86 1368 l 1
 233 1368 l 1
 264 1658 l 1
 414 1658 l 1
 383 1368 l 1
 652 1368 l 1
 642 1275 l 1
 374 1275 l 1
 336 912 l 1
 373 941 478 1000 605 1000 c 0
 739 1000 817 924 802 790 c 2
 719 0 l 1
 569 0 l 1
 649 763 l 2
 660 864 620 901 544 901 c 0
 472 901 370 862 326 824 c 1
 240 0 l 1
 90 0 l 1
EndSplineSet
EndChar

StartChar: afii10145
Encoding: 418 1039 224
Width: 1074
VWidth: 0
Flags: W
HStem: 0 115<268 433 576 740> 1638 20G<270.901 430 899.9 1059>
LayerCount: 2
UndoRedoHistory
Layer: 1
Undoes
EndUndoes
Redoes
EndRedoes
EndUndoRedoHistory
Fore
SplineSet
415 -285 m 1
 433 0 l 1
 99 0 l 1
 273 1658 l 1
 430 1658 l 1
 268 115 l 1
 740 115 l 1
 902 1658 l 1
 1059 1658 l 1
 885 0 l 1
 576 0 l 1
 534 -285 l 1
 415 -285 l 1
EndSplineSet
EndChar

StartChar: afii10193
Encoding: 419 1119 225
Width: 859
VWidth: 0
Flags: W
HStem: 0 110<231 325 451 561> 1164 20G<190.905 343 671.896 824>
LayerCount: 2
UndoRedoHistory
Layer: 1
Undoes
EndUndoes
Redoes
EndRedoes
EndUndoRedoHistory
Fore
SplineSet
309 -285 m 1
 325 0 l 1
 69 0 l 1
 193 1184 l 1
 343 1184 l 1
 231 110 l 1
 561 110 l 1
 674 1184 l 1
 824 1184 l 1
 700 0 l 1
 451 0 l 1
 411 -285 l 1
 309 -285 l 1
EndSplineSet
EndChar

StartChar: afii61289
Encoding: 420 8467 226
Width: 1024
VWidth: 0
Flags: W
LayerCount: 2
UndoRedoHistory
Layer: 1
Undoes
EndUndoes
Redoes
EndRedoes
EndUndoRedoHistory
Fore
SplineSet
600 934 m 1
 619 957 678 1036 693 1057 c 0
 901 1337 984 1555 983 1666 c 1
 983 1834 831 1817 788 1654 c 2
 600 934 l 1
777 148 m 1
 556 -103 239 -110 353 339 c 2
 412 570 l 1
 199 302 l 1
 145 355 l 1
 459 755 l 1
 686 1653 l 2
 794 2079 1506 1939 699 929 c 1
 554 747 l 1
 446 330 l 2
 358 -12 561 12 727 209 c 1
 777 148 l 1
EndSplineSet
EndChar

StartChar: ampersand
Encoding: 38 38 230
Width: 1236
VWidth: 0
Flags: W
HStem: -21 126<325.181 628.35> -14 148<976.547 1083> 1552 124<522.724 792.059>
VStem: 1015 144<581.081 736>
LayerCount: 2
UndoRedoHistory
Layer: 1
Undoes
EndUndoes
Redoes
EndRedoes
EndUndoRedoHistory
Fore
SplineSet
531 926 m 1x30
 675 1056 814 1221 831 1383 c 0
 843 1491 773 1552 656 1552 c 0
 517 1552 444 1448 431 1328 c 0
 418 1201 458 1087 531 926 c 1x30
466 105 m 0xb0
 572 105 658 154 746 240 c 1
 476 743 l 1
 334 603 274 483 261 357 c 0
 248 237 292 105 466 105 c 0xb0
452 -21 m 0
 200 -21 88 149 110 357 c 0
 128 529 226 675 427 851 c 1
 332 1046 266 1170 283 1326 c 0
 306 1546 456 1676 670 1676 c 0
 875 1676 999 1564 979 1380 c 1
 960 1194 786 1013 576 839 c 1
 842 335 l 1
 926 439 995 618 1015 736 c 1
 1159 736 l 1
 1143 586 1042 372 921 240 c 1
 974 162 1030 134 1099 134 c 1
 1083 -14 l 1x70
 1071 -14 1058 -13 1045 -12 c 0
 947 -4 877 65 822 142 c 1
 736 54 607 -21 452 -21 c 0
EndSplineSet
EndChar

StartChar: approxequal
Encoding: 424 8776 232
Width: 846
VWidth: 0
Flags: W
HStem: 551 119<486.665 687.387> 665 117<214.592 413.269> 860 119<521.378 719.545> 974 117<245.274 445.422>
LayerCount: 2
UndoRedoHistory
Layer: 1
Undoes
EndUndoes
Redoes
EndRedoes
EndUndoRedoHistory
Fore
SplineSet
609 860 m 0x20
 521 860 411 974 337 974 c 0
 306 974 252 945 188 892 c 1
 141 962 l 1
 209 1029 299 1091 360 1091 c 0x10
 445 1091 556 979 628 979 c 0
 667 979 707 1008 772 1055 c 1
 819 986 l 1
 753 924 670 860 609 860 c 0x20
576 551 m 0x80
 489 551 379 665 305 665 c 0
 274 665 220 636 156 582 c 1
 109 653 l 1
 177 719 267 782 328 782 c 0x40
 413 782 523 670 595 670 c 0
 634 670 675 699 740 746 c 1
 787 677 l 1
 721 614 638 551 576 551 c 0x80
EndSplineSet
EndChar

StartChar: asciicircum
Encoding: 94 94 234
Width: 808
VWidth: 0
Flags: W
HStem: 1047 611
LayerCount: 2
UndoRedoHistory
Layer: 1
Undoes
EndUndoes
Redoes
EndRedoes
EndUndoRedoHistory
Fore
SplineSet
124 1047 m 1
 455 1658 l 1
 612 1658 l 1
 814 1047 l 1
 679 1047 l 1
 523 1554 l 1
 260 1047 l 1
 124 1047 l 1
EndSplineSet
EndChar

StartChar: asciitilde
Encoding: 126 126 235
Width: 833
VWidth: 0
Flags: W
HStem: 767 119<505.216 702.275> 881 117<229.274 429.384>
VStem: 125 678
LayerCount: 2
UndoRedoHistory
Layer: 1
Undoes
EndUndoes
Redoes
EndRedoes
EndUndoRedoHistory
Fore
SplineSet
592 767 m 0xa0
 505 767 395 881 321 881 c 0
 290 881 236 852 172 799 c 1
 125 869 l 1
 193 936 283 998 344 998 c 0x60
 429 998 540 886 612 886 c 0
 651 886 691 915 756 962 c 1
 803 893 l 1
 737 831 654 767 592 767 c 0xa0
EndSplineSet
EndChar

StartChar: asterisk
Encoding: 42 42 236
Width: 762
VWidth: 0
Flags: W
HStem: 990 667
VStem: 469 116<1572.13 1657>
LayerCount: 2
UndoRedoHistory
Layer: 1
Undoes
EndUndoes
Redoes
EndRedoes
EndUndoRedoHistory
Fore
SplineSet
300 990 m 1
 215 1047 l 1
 418 1286 l 1
 173 1388 l 1
 221 1484 l 1
 455 1361 l 1
 469 1657 l 1
 585 1657 l 1
 535 1361 l 1
 793 1484 l 1
 820 1388 l 1
 554 1286 l 1
 708 1045 l 1
 610 990 l 1
 482 1250 l 1
 300 990 l 1
EndSplineSet
EndChar

StartChar: at
Encoding: 64 64 237
Width: 1726
VWidth: 0
Flags: W
HStem: -230 117<606.378 1215.47> 243 95<1161.74 1349.16> 1125 114<950.521 1181.46> 1540 117<828.431 1303.88>
CounterMasks: 1 b0
LayerCount: 2
UndoRedoHistory
Layer: 1
Undoes
EndUndoes
Redoes
EndRedoes
EndUndoRedoHistory
Fore
SplineSet
824 353 m 1
 910 358 997 437 1054 581 c 1
 1183 1098 l 1
 1156 1116 1123 1125 1090 1125 c 0
 917 1125 716 913 683 594 c 0
 664 415 732 342 824 353 c 1
859 -230 m 0
 418 -230 74 -12 143 642 c 0
 216 1336 615 1655 1078 1657 c 0
 1568 1660 1753 1336 1683 830 c 0
 1625 408 1382 243 1194 243 c 0
 1099 243 1016 309 1035 433 c 1
 989 335 908 242 789 237 c 1
 609 227 516 372 539 596 c 0
 576 947 828 1239 1080 1239 c 0
 1131 1239 1184 1216 1218 1187 c 1
 1240 1226 l 1
 1351 1226 l 1
 1174 515 l 1
 1151 413 1140 338 1225 338 c 0
 1345 338 1517 472 1565 819 c 1
 1638 1319 1445 1543 1059 1540 c 0
 663 1536 341 1212 282 646 c 1
 217 34 543 -113 883 -113 c 0
 1019 -113 1152 -90 1264 -60 c 1
 1285 -170 l 1
 1137 -206 984 -230 859 -230 c 0
EndSplineSet
EndChar

StartChar: b
Encoding: 98 98 239
Width: 852
VWidth: 0
Flags: W
HStem: -19 119<298.136 522.675> 0 21G<71 223.128> 1084 118<419.658 616.972> 1638 20G<242.901 395>
LayerCount: 2
UndoRedoHistory
Layer: 1
Undoes
EndUndoes
Redoes
EndRedoes
EndUndoRedoHistory
Fore
SplineSet
418 100 m 0xb0
 552 100 590 232 616 478 c 2
 642 730 l 2
 666 962 657 1084 519 1084 c 0
 441 1084 371 1034 326 993 c 1
 241 186 l 1
 280 140 340 100 418 100 c 0xb0
430 -19 m 0
 334 -19 271 40 231 94 c 1
 221 0 l 1
 71 0 l 1x70
 245 1658 l 1
 395 1658 l 1
 336 1086 l 1
 388 1144 467 1202 574 1202 c 0
 803 1202 817 968 792 730 c 2
 766 480 l 2
 734 179 650 -19 430 -19 c 0
EndSplineSet
EndChar

StartChar: backslash
Encoding: 92 92 240
Width: 705
VWidth: 0
Flags: W
HStem: 0 21G<473.405 609> 1638 20G<179 314.595>
VStem: 179 430
LayerCount: 2
UndoRedoHistory
Layer: 1
Undoes
EndUndoes
Redoes
EndRedoes
EndUndoRedoHistory
Fore
SplineSet
477 0 m 1
 179 1658 l 1
 311 1658 l 1
 609 0 l 1
 477 0 l 1
EndSplineSet
EndChar

StartChar: bar
Encoding: 124 124 241
Width: 445
VWidth: 0
Flags: W
HStem: 1639 20G<279.892 422>
VStem: 76 346
LayerCount: 2
UndoRedoHistory
Layer: 1
Undoes
EndUndoes
Redoes
EndRedoes
EndUndoRedoHistory
Fore
SplineSet
76 -295 m 1
 282 1659 l 1
 422 1659 l 1
 216 -295 l 1
 76 -295 l 1
EndSplineSet
EndChar

StartChar: braceleft
Encoding: 123 123 242
Width: 528
VWidth: 0
Flags: W
HStem: -338 113<305.479 407> 615 116<110 183.804> 1562 112<488.201 607>
VStem: 98 521
LayerCount: 2
UndoRedoHistory
Layer: 1
Undoes
EndUndoes
Redoes
EndRedoes
EndUndoRedoHistory
Fore
SplineSet
407 -338 m 1
 130 -338 122 -290 160 76 c 2
 188 340 l 2
 211 564 198 615 98 615 c 1
 110 731 l 1
 210 731 234 782 258 1006 c 2
 285 1261 l 2
 323 1626 341 1674 619 1674 c 1
 607 1562 l 1
 470 1562 468 1541 439 1261 c 1
 408 974 l 1
 387 769 341 697 256 673 c 1
 336 649 367 577 345 372 c 2
 314 76 l 2
 284 -205 282 -225 419 -225 c 1
 407 -338 l 1
EndSplineSet
EndChar

StartChar: braceright
Encoding: 125 125 243
Width: 552
VWidth: 0
Flags: W
HStem: -338 113<-5 113.799> 615 116<418.995 493> 1562 112<195 296.521>
VStem: -17 522
LayerCount: 2
UndoRedoHistory
Layer: 1
Undoes
EndUndoes
Redoes
EndRedoes
EndUndoRedoHistory
Fore
SplineSet
-17 -338 m 1
 -5 -225 l 1
 132 -225 134 -205 164 76 c 2
 195 372 l 2
 217 577 262 649 348 673 c 1
 267 697 237 769 258 974 c 1
 289 1261 l 1
 318 1541 320 1562 183 1562 c 1
 195 1674 l 1
 472 1674 480 1626 442 1261 c 2
 415 1006 l 2
 391 782 405 731 505 731 c 1
 493 615 l 1
 393 615 368 564 345 340 c 2
 317 76 l 2
 279 -290 261 -338 -17 -338 c 1
EndSplineSet
EndChar

StartChar: bracketleft
Encoding: 91 91 244
Width: 619
VWidth: 0
Flags: W
HStem: -327 84<225 422> 1575 83<416 622>
VStem: 64 566
LayerCount: 2
UndoRedoHistory
Layer: 1
Undoes
EndUndoes
Redoes
EndRedoes
EndUndoRedoHistory
Fore
SplineSet
64 -327 m 1
 273 1658 l 1
 630 1658 l 1
 622 1575 l 1
 416 1575 l 1
 225 -243 l 1
 431 -243 l 1
 422 -327 l 1
 64 -327 l 1
EndSplineSet
EndChar

StartChar: bracketright
Encoding: 93 93 245
Width: 584
VWidth: 0
Flags: W
HStem: -326 83<13 219> 1574 84<212 409>
VStem: 3 566
LayerCount: 2
UndoRedoHistory
Layer: 1
Undoes
EndUndoes
Redoes
EndRedoes
EndUndoRedoHistory
Fore
SplineSet
3 -326 m 1
 13 -243 l 1
 219 -243 l 1
 409 1574 l 1
 203 1574 l 1
 212 1658 l 1
 569 1658 l 1
 361 -326 l 1
 3 -326 l 1
EndSplineSet
EndChar

StartChar: breve
Encoding: 425 728 246
Width: 727
VWidth: 0
Flags: W
HStem: 1402 90<366.646 594.71> 1638 20G<242 343 637 742>
VStem: 248 95<1516.54 1658> 646 96<1544.22 1658>
LayerCount: 2
UndoRedoHistory
Layer: 1
Undoes
EndUndoes
Redoes
EndRedoes
EndUndoRedoHistory
Fore
SplineSet
467 1402 m 0
 300 1402 236 1497 248 1658 c 1
 343 1658 l 1
 333 1536 384 1492 476 1492 c 0
 568 1492 628 1537 646 1658 c 1
 742 1658 l 1
 721 1497 635 1402 467 1402 c 0
EndSplineSet
EndChar

StartChar: brokenbar
Encoding: 166 166 247
Width: 414
VWidth: 0
Flags: W
HStem: 1638 20G<270.906 399>
VStem: 63 336
LayerCount: 2
UndoRedoHistory
Layer: 1
Undoes
EndUndoes
Redoes
EndRedoes
EndUndoRedoHistory
Fore
SplineSet
184 808 m 1
 273 1658 l 1
 399 1658 l 1
 310 808 l 1
 184 808 l 1
63 -348 m 1
 152 502 l 1
 278 502 l 1
 189 -348 l 1
 63 -348 l 1
EndSplineSet
EndChar

StartChar: bullet
Encoding: 426 8226 248
Width: 619
VWidth: 0
Flags: W
HStem: 608 379<238.778 457.434>
VStem: 164 369<682.573 912.636>
LayerCount: 2
UndoRedoHistory
Layer: 1
Undoes
EndUndoes
Redoes
EndRedoes
EndUndoRedoHistory
Fore
SplineSet
328 608 m 0
 209 608 153 689 164 798 c 0
 175 906 249 987 368 987 c 0
 487 987 544 906 533 798 c 0
 521 689 447 608 328 608 c 0
EndSplineSet
EndChar

StartChar: c
Encoding: 99 99 249
Width: 796
VWidth: 0
Flags: W
HStem: -19 113<267.552 496.12> 1090 112<362.733 587.88>
AnchorPoint: "cedilla" 380 0 basechar 0
LayerCount: 2
UndoRedoHistory
Layer: 1
Undoes
EndUndoes
Redoes
EndRedoes
EndUndoRedoHistory
Fore
SplineSet
362 -19 m 0
 86 -19 66 181 94 449 c 1
 124 725 l 1
 158 1054 238 1202 490 1202 c 0
 741 1202 776 1050 752 823 c 2
 746 767 l 1
 608 767 l 1
 614 823 l 1
 635 1030 597 1090 480 1090 c 0
 338 1090 302 1000 276 750 c 2
 241 418 l 2
 216 181 242 94 376 94 c 0
 517 94 547 188 567 380 c 2
 574 445 l 1
 712 445 l 1
 706 387 l 2
 681 148 619 -19 362 -19 c 0
EndSplineSet
EndChar

StartChar: caron
Encoding: 428 711 251
Width: 613
VWidth: 0
Flags: W
HStem: 1319 339
VStem: 197 482
LayerCount: 2
UndoRedoHistory
Layer: 1
Undoes
EndUndoes
Redoes
EndRedoes
EndUndoRedoHistory
Fore
SplineSet
335 1319 m 1
 197 1658 l 1
 317 1658 l 1
 412 1413 l 1
 559 1658 l 1
 679 1658 l 1
 468 1319 l 1
 335 1319 l 1
EndSplineSet
EndChar

StartChar: cedilla
Encoding: 184 184 256
Width: 462
VWidth: 0
Flags: W
HStem: -409 77<-24 168.463>
VStem: -32 330
AnchorPoint: "cedilla" 120 0 mark 0
LayerCount: 2
UndoRedoHistory
Layer: 1
Undoes
EndUndoes
Redoes
EndRedoes
EndUndoRedoHistory
Fore
SplineSet
-32 -409 m 1
 -24 -332 l 1
 95 -347 173 -331 184 -265 c 0
 197 -193 133 -161 45 -144 c 1
 60 0 l 1
 139 0 l 1
 128 -104 l 1
 236 -120 308 -186 298 -269 c 1
 285 -393 152 -440 -32 -409 c 1
EndSplineSet
EndChar

StartChar: cent
Encoding: 162 162 257
Width: 783
VWidth: 0
Flags: W
HStem: -16 110<269.056 309 370 491.329> 1090 110<361.44 444 506 584.984>
LayerCount: 2
UndoRedoHistory
Layer: 1
Undoes
EndUndoes
Redoes
EndRedoes
EndUndoRedoHistory
Fore
SplineSet
289 -204 m 1
 309 -16 l 1
 83 8 68 199 94 449 c 1
 124 725 l 1
 156 1036 229 1182 444 1200 c 1
 463 1385 l 1
 525 1385 l 1
 506 1202 l 1
 741 1194 775 1045 752 823 c 2
 746 767 l 1
 608 767 l 1
 614 823 l 1
 635 1030 597 1090 480 1090 c 0
 338 1090 302 1000 276 750 c 2
 241 418 l 2
 216 181 242 94 376 94 c 0
 517 94 547 188 567 380 c 2
 574 445 l 1
 712 445 l 1
 706 387 l 2
 681 151 619 -14 370 -19 c 1
 351 -204 l 1
 289 -204 l 1
EndSplineSet
EndChar

StartChar: circumflex
Encoding: 432 710 258
Width: 673
VWidth: 0
Flags: W
HStem: 1280 378
VStem: 164 520
LayerCount: 2
UndoRedoHistory
Layer: 1
Undoes
EndUndoes
Redoes
EndRedoes
EndUndoRedoHistory
Fore
SplineSet
164 1280 m 1
 381 1658 l 1
 549 1658 l 1
 684 1280 l 1
 574 1280 l 1
 457 1584 l 1
 275 1280 l 1
 164 1280 l 1
EndSplineSet
EndChar

StartChar: colon
Encoding: 58 58 259
Width: 396
VWidth: 0
Flags: W
HStem: 171 219<138 274> 867 219<212 347>
VStem: 115 255
LayerCount: 2
UndoRedoHistory
Layer: 1
Undoes
EndUndoes
Redoes
EndRedoes
EndUndoRedoHistory
Fore
SplineSet
188 867 m 1
 212 1086 l 1
 370 1086 l 1
 347 867 l 1
 188 867 l 1
115 171 m 1
 138 390 l 1
 297 390 l 1
 274 171 l 1
 115 171 l 1
EndSplineSet
EndChar

StartChar: comma
Encoding: 44 44 260
Width: 370
VWidth: 0
Flags: W
HStem: -239 462
VStem: 38 218
LayerCount: 2
UndoRedoHistory
Layer: 1
Undoes
EndUndoes
Redoes
EndRedoes
EndUndoRedoHistory
Fore
SplineSet
62 -239 m 1
 38 -173 l 1
 114 -132 145 -83 154 0 c 1
 64 0 l 1
 88 223 l 1
 256 223 l 1
 234 16 l 2
 220 -118 173 -186 62 -239 c 1
EndSplineSet
EndChar

StartChar: copyright
Encoding: 169 169 261
Width: 1765
VWidth: 0
Flags: W
HStem: -22 72<610.697 1089.04> 249 118<742.416 998.617> 1359 118<836.171 1092.44> 1636 72<767.393 1245.42>
CounterMasks: 1 f0
LayerCount: 2
UndoRedoHistory
Layer: 1
Undoes
EndUndoes
Redoes
EndRedoes
EndUndoRedoHistory
Fore
SplineSet
836 -22 m 0
 251 -22 60 427 104 843 c 1
 147 1260 433 1708 1018 1708 c 0
 1602 1708 1792 1260 1749 843 c 0
 1705 426 1422 -22 836 -22 c 0
846 50 m 0
 1360 50 1628 445 1670 845 c 0
 1712 1245 1527 1636 1013 1636 c 0
 498 1636 231 1245 190 845 c 1
 147 445 331 50 846 50 c 0
848 249 m 0
 543 249 519 453 550 741 c 1
 574 974 l 1
 612 1329 698 1477 977 1477 c 0
 1256 1477 1293 1329 1267 1086 c 2
 1261 1030 l 1
 1115 1030 l 1
 1121 1085 l 2
 1145 1310 1097 1359 967 1359 c 0
 810 1359 766 1271 737 1000 c 1
 707 709 l 2
 680 453 715 367 864 367 c 0
 1020 367 1054 448 1076 658 c 2
 1082 717 l 1
 1228 717 l 1
 1223 665 l 1
 1196 409 1134 249 848 249 c 0
EndSplineSet
EndChar

StartChar: currency
Encoding: 164 164 262
Width: 1078
VWidth: 0
Flags: W
HStem: 428 70<402.377 700.955> 1235 69<472.649 771.227>
LayerCount: 2
UndoRedoHistory
Layer: 1
Undoes
EndUndoes
Redoes
EndRedoes
EndUndoRedoHistory
Fore
SplineSet
548 498 m 0
 751 498 923 664 944 866 c 0
 966 1069 828 1235 625 1235 c 0
 423 1235 251 1069 230 866 c 1
 208 664 346 498 548 498 c 0
81 381 m 1
 54 411 l 1
 234 573 l 1
 173 650 142 754 154 866 c 0
 166 979 219 1082 296 1159 c 1
 150 1321 l 1
 183 1351 l 1
 328 1189 l 1
 412 1261 519 1305 633 1304 c 1
 747 1305 846 1261 914 1189 c 1
 1093 1351 l 1
 1120 1321 l 1
 941 1159 l 1
 1001 1082 1032 979 1020 866 c 0
 1008 754 955 650 878 573 c 1
 1024 411 l 1
 991 381 l 1
 846 543 l 1
 763 471 655 427 541 428 c 1
 427 427 329 471 260 543 c 1
 81 381 l 1
EndSplineSet
EndChar

StartChar: d
Encoding: 100 100 263
Width: 845
VWidth: 0
Flags: W
HStem: -19 119<274.565 470.765> 0 21G<535 687.099> 1084 118<364.07 588.877> 1638 20G<706.889 859>
LayerCount: 2
UndoRedoHistory
Layer: 1
Undoes
EndUndoes
Redoes
EndRedoes
EndUndoRedoHistory
Fore
SplineSet
374 100 m 0xb0
 437 100 501 134 554 179 c 1
 640 1000 l 1
 602 1039 545 1084 473 1084 c 0
 340 1084 299 969 275 745 c 2
 246 466 l 2
 221 224 236 100 374 100 c 0xb0
331 -19 m 1
 127 -19 60 122 98 478 c 1
 120 697 l 1
 153 1006 227 1202 453 1202 c 0
 545 1202 609 1151 650 1099 c 1
 709 1658 l 1
 859 1658 l 1
 685 0 l 1
 535 0 l 1x70
 544 85 l 1
 492 32 420 -18 331 -19 c 1
EndSplineSet
EndChar

StartChar: dagger
Encoding: 433 8224 264
Width: 716
VWidth: 0
Flags: W
HStem: 0 21G<242 389.096> 1126 118<140 360 518 737>
VStem: 127 623
LayerCount: 2
UndoRedoHistory
Layer: 1
Undoes
EndUndoes
Redoes
EndRedoes
EndUndoRedoHistory
Fore
SplineSet
242 0 m 1
 360 1126 l 1
 127 1126 l 1
 140 1244 l 1
 373 1244 l 1
 413 1623 l 1
 558 1623 l 1
 518 1244 l 1
 750 1244 l 1
 737 1126 l 1
 505 1126 l 1
 387 0 l 1
 242 0 l 1
EndSplineSet
EndChar

StartChar: daggerdbl
Encoding: 434 8225 265
Width: 758
VWidth: 0
Flags: W
HStem: 0 21G<264 409.083> 528 105<86 320 473 705> 1079 105<144 378 531 763>
LayerCount: 2
UndoRedoHistory
Layer: 1
Undoes
EndUndoes
Redoes
EndRedoes
EndUndoRedoHistory
Fore
SplineSet
264 0 m 1
 320 528 l 1
 75 528 l 1
 86 633 l 1
 331 633 l 1
 378 1079 l 1
 133 1079 l 1
 144 1184 l 1
 388 1184 l 1
 435 1624 l 1
 578 1624 l 1
 531 1184 l 1
 774 1184 l 1
 763 1079 l 1
 520 1079 l 1
 473 633 l 1
 716 633 l 1
 705 528 l 1
 462 528 l 1
 407 0 l 1
 264 0 l 1
EndSplineSet
EndChar

StartChar: dcroat
Encoding: 436 273 267
Width: 873
VWidth: 0
Flags: W
HStem: -19 119<274.565 470.765> 0 21G<535 687.105> 1084 118<364.07 588.877> 1406 88<497 683 842 950> 1638 20G<706.927 859>
LayerCount: 2
UndoRedoHistory
Layer: 1
Undoes
EndUndoes
Redoes
EndRedoes
EndUndoRedoHistory
Fore
SplineSet
374 100 m 0xb8
 437 100 501 134 554 179 c 1
 640 1000 l 1
 602 1039 545 1084 473 1084 c 0
 340 1084 299 969 275 745 c 2
 246 466 l 2
 221 224 236 100 374 100 c 0xb8
331 -19 m 1
 127 -19 60 122 98 478 c 1
 120 697 l 1
 153 1006 227 1202 453 1202 c 0
 545 1202 609 1151 650 1099 c 1
 683 1406 l 1
 488 1406 l 1
 497 1494 l 1
 692 1494 l 1
 709 1658 l 1
 859 1658 l 1
 842 1494 l 1
 959 1494 l 1
 950 1406 l 1
 833 1406 l 1
 685 0 l 1
 535 0 l 1x78
 544 85 l 1
 492 32 420 -18 331 -19 c 1
EndSplineSet
EndChar

StartChar: degree
Encoding: 176 176 268
Width: 846
VWidth: 0
Flags: W
HStem: 1074 102<382.844 630.007> 1575 101<415.128 662.247>
VStem: 222 602
LayerCount: 2
UndoRedoHistory
Layer: 1
Undoes
EndUndoes
Redoes
EndRedoes
EndUndoRedoHistory
Fore
SplineSet
491 1074 m 0
 326 1074 201 1172 222 1376 c 0
 243 1579 390 1676 554 1676 c 0
 718 1676 845 1579 824 1376 c 0
 803 1172 655 1074 491 1074 c 0
502 1176 m 0
 603 1176 693 1242 707 1375 c 0
 721 1509 645 1575 543 1575 c 0
 441 1575 353 1509 339 1375 c 0
 325 1242 400 1176 502 1176 c 0
EndSplineSet
EndChar

StartChar: dieresis
Encoding: 168 168 269
Width: 784
VWidth: 0
Flags: W
HStem: 1477 181<269 404 605 740>
VStem: 250 509
LayerCount: 2
UndoRedoHistory
Layer: 1
Undoes
EndUndoes
Redoes
EndRedoes
EndUndoRedoHistory
Fore
SplineSet
586 1477 m 1
 605 1658 l 1
 759 1658 l 1
 740 1477 l 1
 586 1477 l 1
250 1477 m 1
 269 1658 l 1
 423 1658 l 1
 404 1477 l 1
 250 1477 l 1
EndSplineSet
EndChar

StartChar: divide
Encoding: 247 247 270
Width: 690
VWidth: 0
Flags: W
HStem: 402 185<297 407> 794 114<103 676> 1091 185<369 479>
VStem: 91 597
LayerCount: 2
UndoRedoHistory
Layer: 1
Undoes
EndUndoes
Redoes
EndRedoes
EndUndoRedoHistory
Fore
SplineSet
350 1091 m 1
 369 1276 l 1
 498 1276 l 1
 479 1091 l 1
 350 1091 l 1
91 794 m 1
 103 908 l 1
 688 908 l 1
 676 794 l 1
 91 794 l 1
278 402 m 1
 297 587 l 1
 426 587 l 1
 407 402 l 1
 278 402 l 1
EndSplineSet
EndChar

StartChar: dollar
Encoding: 36 36 271
Width: 954
VWidth: 0
Flags: W
HStem: -20 126<327.982 440 504 625.339> 1553 123<423.505 569 634 726.376>
VStem: 83 143<217.933 430> 809 136<1255 1468.21>
LayerCount: 2
UndoRedoHistory
Layer: 1
Undoes
EndUndoes
Redoes
EndRedoes
EndUndoRedoHistory
Fore
SplineSet
423 -179 m 1
 440 -20 l 1
 176 -15 75 163 83 430 c 1
 226 470 l 1
 226 267 264 106 466 106 c 0
 613 106 708 179 725 346 c 1
 741 492 671 585 560 704 c 2
 296 986 l 2
 202 1086 167 1190 180 1320 c 1
 204 1541 356 1666 569 1676 c 1
 587 1848 l 1
 652 1848 l 1
 634 1675 l 1
 848 1663 954 1542 945 1255 c 1
 809 1221 l 1
 814 1428 769 1559 581 1553 c 0
 442 1549 339 1484 323 1333 c 0
 314 1243 338 1175 414 1092 c 1
 677 815 l 2
 794 691 892 545 872 357 c 0
 848 128 701 2 504 -18 c 1
 486 -179 l 1
 423 -179 l 1
EndSplineSet
EndChar

StartChar: dotlessi
Encoding: 438 305 273
Width: 405
VWidth: 0
Flags: W
HStem: 0 21G<85 237.095> 1164 20G<206.905 359>
VStem: 85 274
LayerCount: 2
UndoRedoHistory
Layer: 1
Undoes
EndUndoes
Redoes
EndRedoes
EndUndoRedoHistory
Fore
SplineSet
85 0 m 1
 209 1184 l 1
 359 1184 l 1
 235 0 l 1
 85 0 l 1
EndSplineSet
EndChar

StartChar: e
Encoding: 101 101 274
Width: 809
VWidth: 0
Flags: W
HStem: -19 113<269.262 496.468> 607 86<270 601> 1090 112<362.827 588.407>
AnchorPoint: "ogonek" 518 0 basechar 0
LayerCount: 2
UndoRedoHistory
Layer: 1
Undoes
EndUndoes
Redoes
EndRedoes
EndUndoRedoHistory
Fore
SplineSet
270 693 m 1
 601 693 l 1
 611 791 l 1
 631 976 626 1090 482 1090 c 0
 358 1090 305 1025 278 773 c 1
 270 693 l 1
365 -19 m 0
 142 -19 58 101 94 445 c 2
 125 744 l 2
 162 1094 276 1202 495 1202 c 0
 744 1202 786 1048 751 714 c 1
 738 607 l 1
 261 607 l 1
 242 430 l 1
 218 194 241 94 376 94 c 0
 468 94 543 136 562 323 c 1
 571 405 l 1
 718 405 l 1
 710 339 l 1
 688 123 594 -19 365 -19 c 0
EndSplineSet
EndChar

StartChar: eight
Encoding: 56 56 282
Width: 993
VWidth: 0
Flags: W
HStem: -21 121<326.64 607.494> 1555 121<470.899 751.125>
LayerCount: 2
UndoRedoHistory
Layer: 1
Undoes
EndUndoes
Redoes
EndRedoes
EndUndoRedoHistory
Fore
SplineSet
551 938 m 1
 723 946 791 1082 810 1261 c 0
 830 1451 771 1555 616 1555 c 0
 459 1555 379 1451 359 1261 c 0
 341 1082 379 946 551 938 c 1
463 100 m 0
 626 100 717 209 741 445 c 0
 762 646 714 785 537 800 c 1
 354 785 276 646 255 445 c 0
 230 208 299 100 463 100 c 0
450 -21 m 0
 164 -21 79 163 109 445 c 0
 139 734 275 815 392 871 c 1
 264 926 189 1048 211 1260 c 0
 237 1501 356 1676 628 1676 c 0
 899 1676 982 1498 957 1256 c 0
 935 1045 834 926 695 871 c 1
 799 814 919 733 889 445 c 0
 859 163 734 -21 450 -21 c 0
EndSplineSet
EndChar

StartChar: ellipsis
Encoding: 442 8230 283
Width: 1088
VWidth: 0
Flags: W
HStem: 0 225<89 224 453 588 817 952>
LayerCount: 2
UndoRedoHistory
Layer: 1
Undoes
EndUndoes
Redoes
EndRedoes
EndUndoRedoHistory
Fore
SplineSet
793 0 m 1
 817 225 l 1
 976 225 l 1
 952 0 l 1
 793 0 l 1
429 0 m 1
 453 225 l 1
 612 225 l 1
 588 0 l 1
 429 0 l 1
65 0 m 1
 89 225 l 1
 248 225 l 1
 224 0 l 1
 65 0 l 1
EndSplineSet
EndChar

StartChar: emdash
Encoding: 444 8212 285
Width: 1697
VWidth: 0
Flags: W
HStem: 504 120<103 1634>
LayerCount: 2
UndoRedoHistory
Layer: 1
Undoes
EndUndoes
Redoes
EndRedoes
EndUndoRedoHistory
Fore
SplineSet
91 504 m 1
 103 624 l 1
 1646 624 l 1
 1634 504 l 1
 91 504 l 1
EndSplineSet
EndChar

StartChar: endash
Encoding: 445 8211 286
Width: 964
VWidth: 0
Flags: W
HStem: 430 124<96 894>
LayerCount: 2
UndoRedoHistory
Layer: 1
Undoes
EndUndoes
Redoes
EndRedoes
EndUndoRedoHistory
Fore
SplineSet
83 430 m 1
 96 554 l 1
 906 554 l 1
 894 430 l 1
 83 430 l 1
EndSplineSet
EndChar

StartChar: eng
Encoding: 446 331 287
Width: 794
VWidth: 0
Flags: W
HStem: -341 117<259 442.987> 0 21G<58 210.113> 1084 118<449.907 678.5> 1164 20G<179.905 332>
LayerCount: 2
UndoRedoHistory
Layer: 1
Undoes
EndUndoes
Redoes
EndRedoes
EndUndoRedoHistory
Fore
SplineSet
247 -341 m 1xe0
 259 -224 l 1
 463 -224 510 -146 524 -10 c 2
 621 918 l 2
 634 1040 602 1084 526 1084 c 0xe0
 458 1084 379 1039 311 975 c 1
 208 0 l 1
 58 0 l 1
 182 1184 l 1
 332 1184 l 1xd0
 320 1061 l 1
 405 1144 508 1202 619 1202 c 0
 738 1202 792 1111 775 950 c 2
 674 -12 l 2
 648 -255 483 -341 288 -341 c 2
 247 -341 l 1xe0
EndSplineSet
EndChar

StartChar: equal
Encoding: 61 61 289
Width: 820
VWidth: 0
Flags: W
HStem: 584 119<133 732> 927 120<169 768>
VStem: 121 660
LayerCount: 2
UndoRedoHistory
Layer: 1
Undoes
EndUndoes
Redoes
EndRedoes
EndUndoRedoHistory
Fore
SplineSet
156 927 m 1
 169 1047 l 1
 781 1047 l 1
 768 927 l 1
 156 927 l 1
121 584 m 1
 133 703 l 1
 745 703 l 1
 732 584 l 1
 121 584 l 1
EndSplineSet
EndChar

StartChar: estimated
Encoding: 448 8494 290
Width: 824
VWidth: 0
Flags: W
HStem: -19 63<286.7 536.432> 601 60<288 607> 1119 67<392.065 599.581>
VStem: 631 86<139.517 405>
CounterMasks: 1 e0
LayerCount: 2
UndoRedoHistory
Layer: 1
Undoes
EndUndoes
Redoes
EndRedoes
EndUndoRedoHistory
Fore
SplineSet
288 661 m 1
 607 661 l 1
 623 820 l 1
 643 1005 651 1119 499 1119 c 0
 368 1119 329 1054 302 802 c 1
 288 661 l 1
390 -19 m 0
 167 -19 65 81 101 425 c 2
 135 748 l 2
 171 1098 288 1186 507 1186 c 0
 756 1186 796 1052 761 718 c 1
 747 601 l 1
 281 601 l 1
 256 360 l 2
 229 103 251 44 410 44 c 0
 532 44 608 86 631 306 c 1
 642 405 l 1
 727 405 l 1
 717 312 l 2
 694 96 626 -19 390 -19 c 0
EndSplineSet
EndChar

StartChar: eth
Encoding: 240 240 291
Width: 912
VWidth: 0
Flags: W
HStem: -21 121<311.657 544.864> 1018 122<409.117 663.406> 1588 100<303 493.725>
VStem: 652 121<1183.73 1355>
LayerCount: 2
UndoRedoHistory
Layer: 1
Undoes
EndUndoes
Redoes
EndRedoes
EndUndoRedoHistory
Fore
SplineSet
420 100 m 0
 587 100 624 231 656 531 c 0
 663 603 688 948 687 960 c 1
 647 982 598 1018 524 1018 c 0
 384 1018 307 889 271 548 c 0
 242 271 256 100 420 100 c 0
402 -21 m 0
 138 -21 82 163 114 458 c 1
 130 611 l 2
 166 948 275 1140 501 1140 c 0
 583 1140 646 1111 695 1077 c 1
 693 1176 681 1294 652 1355 c 1
 423 1291 l 1
 432 1376 l 1
 619 1425 l 1
 572 1527 471 1576 285 1588 c 1
 303 1688 l 1
 527 1681 672 1622 742 1464 c 1
 941 1518 l 1
 932 1433 l 1
 773 1392 l 1
 808 1292 855 1019 823 715 c 2
 800 500 l 2
 765 169 665 -21 402 -21 c 0
EndSplineSet
EndChar

StartChar: exclam
Encoding: 33 33 292
Width: 412
VWidth: 0
Flags: W
HStem: 0 179<99 240> 1638 20G<254.71 416>
VStem: 80 336
LayerCount: 2
UndoRedoHistory
Layer: 1
Undoes
EndUndoes
Redoes
EndRedoes
EndUndoRedoHistory
Fore
SplineSet
172 356 m 1
 256 1658 l 1
 416 1658 l 1
 225 356 l 1
 172 356 l 1
80 0 m 1
 99 179 l 1
 259 179 l 1
 240 0 l 1
 80 0 l 1
EndSplineSet
EndChar

StartChar: exclamdown
Encoding: 161 161 293
Width: 412
VWidth: 0
Flags: W
HStem: 1083 179<215 356>
VStem: 230 54<808.275 906>
LayerCount: 2
UndoRedoHistory
Layer: 1
Undoes
EndUndoes
Redoes
EndRedoes
EndUndoRedoHistory
Fore
SplineSet
196 1083 m 1
 215 1262 l 1
 375 1262 l 1
 356 1083 l 1
 196 1083 l 1
39 -396 m 1
 230 906 l 1
 284 906 l 1
 199 -396 l 1
 39 -396 l 1
EndSplineSet
EndChar

StartChar: f
Encoding: 102 102 294
Width: 549
VWidth: 0
Flags: W
HStem: 0 21G<145 296.102> 1075 109<115 258 418 599> 1493 115<463.223 638.392>
VStem: 104 546
LayerCount: 2
UndoRedoHistory
Layer: 1
Undoes
EndUndoes
Redoes
EndRedoes
EndUndoRedoHistory
Fore
SplineSet
145 0 m 1
 258 1075 l 1
 104 1075 l 1
 115 1184 l 1
 269 1184 l 1
 282 1307 l 2
 300 1483 334 1608 530 1608 c 0
 572 1608 609 1603 650 1595 c 1
 638 1482 l 1
 613 1486 579 1493 554 1493 c 0
 464 1493 445 1437 433 1323 c 2
 418 1184 l 1
 610 1184 l 1
 599 1075 l 1
 407 1075 l 1
 294 0 l 1
 145 0 l 1
EndSplineSet
EndChar

StartChar: five
Encoding: 53 53 295
Width: 991
VWidth: 0
Flags: W
HStem: -19 120<347.492 617.486> 938 115<437.331 703.581> 1518 140<423 934>
VStem: 139 150<159.564 428>
CounterMasks: 1 e0
LayerCount: 2
UndoRedoHistory
Layer: 1
Undoes
EndUndoes
Redoes
EndRedoes
EndUndoRedoHistory
Fore
SplineSet
462 -19 m 0
 195 -19 109 139 139 428 c 1
 289 428 l 1
 267 227 306 101 479 101 c 0
 667 101 726 249 755 524 c 0
 787 827 738 938 571 938 c 0
 485 938 404 890 341 799 c 1
 215 799 l 1
 305 1658 l 1
 951 1658 l 1
 934 1518 l 1
 423 1518 l 1
 355 943 l 1
 410 1004 497 1053 620 1053 c 0
 866 1053 939 862 905 542 c 0
 868 184 743 -19 462 -19 c 0
EndSplineSet
EndChar

StartChar: florin
Encoding: 449 402 296
Width: 766
VWidth: 0
Flags: W
HStem: -270 115<-61.8176 114.776> 1075 109<280 418 592 756> 1493 115<675.377 852.818>
LayerCount: 2
UndoRedoHistory
Layer: 1
Undoes
EndUndoes
Redoes
EndRedoes
EndUndoRedoHistory
Fore
SplineSet
32 -270 m 0
 -10 -270 -46 -265 -86 -257 c 1
 -61 -144 l 1
 -38 -149 -4 -155 21 -155 c 0
 111 -155 137 -99 165 16 c 2
 418 1075 l 1
 269 1075 l 1
 280 1184 l 1
 442 1184 l 1
 475 1314 l 1
 513 1487 565 1608 759 1608 c 0
 801 1608 837 1603 877 1595 c 1
 852 1482 l 1
 828 1486 795 1493 770 1493 c 0
 680 1493 654 1437 626 1323 c 2
 592 1184 l 1
 767 1184 l 1
 756 1075 l 1
 568 1075 l 1
 317 25 l 1
 277 -150 227 -270 32 -270 c 0
EndSplineSet
EndChar

StartChar: foundryicon
Encoding: 450 -1 297
Width: 1454
VWidth: 0
Flags: W
LayerCount: 2
UndoRedoHistory
Layer: 1
Undoes
EndUndoes
Redoes
EndRedoes
EndUndoRedoHistory
Fore
SplineSet
263 267 m 1
 480 788 l 1
 74 1124 l 1
 624 1124 l 1
 850 1646 l 1
 977 1124 l 1
 1527 1124 l 1
 1048 788 l 1
 1157 267 l 1
 738 581 l 1
 263 267 l 1
EndSplineSet
EndChar

StartChar: four
Encoding: 52 52 298
Width: 1008
VWidth: 0
Flags: W
HStem: 0 21G<557 710.116> 482 141<278 608 773 947> 1639 20G<688.725 882>
LayerCount: 2
UndoRedoHistory
Layer: 1
Undoes
EndUndoes
Redoes
EndRedoes
EndUndoRedoHistory
Fore
SplineSet
278 623 m 1
 623 623 l 1
 710 1456 l 1
 278 623 l 1
557 0 m 1
 608 482 l 1
 109 482 l 1
 125 639 l 1
 700 1659 l 1
 882 1659 l 1
 773 623 l 1
 962 623 l 1
 947 482 l 1
 759 482 l 1
 708 0 l 1
 557 0 l 1
EndSplineSet
EndChar

StartChar: fraction
Encoding: 451 8260 299
Width: 447
VWidth: 0
Flags: W
HStem: 0 21G<-45 90.9228> 1638 20G<442.053 576>
VStem: -45 621
LayerCount: 2
UndoRedoHistory
Layer: 1
Undoes
EndUndoes
Redoes
EndRedoes
EndUndoRedoHistory
Fore
SplineSet
-45 0 m 1
 448 1658 l 1
 576 1658 l 1
 85 0 l 1
 -45 0 l 1
EndSplineSet
EndChar

StartChar: g
Encoding: 103 103 300
Width: 883
VWidth: 0
Flags: W
HStem: -389 120<136.507 560.236> 371 108<310.548 555.128> 1095 107<373.623 608.01>
LayerCount: 2
UndoRedoHistory
Layer: 1
Undoes
EndUndoes
Redoes
EndRedoes
EndUndoRedoHistory
Fore
SplineSet
428 479 m 0
 602 479 641 645 656 789 c 0
 671 929 658 1095 494 1095 c 0
 329 1095 277 923 263 789 c 0
 249 654 256 479 428 479 c 0
364 -269 m 0
 512 -269 619 -224 630 -118 c 0
 639 -37 605 10 424 43 c 1
 275 63 l 1
 218 30 113 -43 103 -140 c 0
 94 -230 168 -269 364 -269 c 0
353 -389 m 0
 112 -389 -47 -340 -32 -189 c 0
 -19 -65 92 32 194 83 c 1
 130 101 68 141 73 188 c 0
 82 270 166 359 239 427 c 1
 140 505 112 626 129 789 c 0
 153 1014 275 1202 503 1202 c 0
 642 1202 709 1136 742 1055 c 1
 769 1094 840 1156 916 1187 c 2
 948 1200 l 1
 977 1095 l 1
 911 1080 809 1031 772 992 c 1
 787 942 793 841 787 785 c 0
 762 547 656 371 417 371 c 0
 379 371 317 382 299 390 c 1
 268 348 206 278 202 236 c 0
 200 215 235 201 296 191 c 1
 334 181 459 166 483 159 c 1
 667 127 767 49 750 -114 c 0
 729 -311 567 -389 353 -389 c 0
EndSplineSet
EndChar

StartChar: gcommaaccent
Encoding: 454 291 303
Width: 901
VWidth: 0
Flags: W
HStem: -399 94<143.691 568.104> 379 90<325.889 577.482> 1114 91<391.123 630.287> 1497 179<653 725>
VStem: 57 108<188.66 286.131>
LayerCount: 2
UndoRedoHistory
Layer: 1
Undoes
EndUndoes
Redoes
EndRedoes
EndUndoRedoHistory
Fore
SplineSet
448 469 m 0
 641 469 685 674 698 798 c 0
 711 916 694 1114 513 1114 c 0
 332 1114 274 894 264 798 c 0
 251 675 255 469 448 469 c 0
350 -305 m 0
 507 -305 642 -259 655 -145 c 1
 668 -57 629 -8 421 40 c 1
 301 65 l 1
 225 20 106 -54 96 -159 c 1
 84 -262 192 -305 350 -305 c 0
566 1497 m 1
 581 1639 l 2
 596 1784 648 1859 755 1905 c 1
 765 1865 l 1
 692 1813 658 1731 653 1676 c 1
 743 1676 l 1
 725 1497 l 1
 566 1497 l 1
340 -399 m 0
 103 -399 -54 -329 -38 -175 c 0
 -27 -66 99 34 204 91 c 1
 140 110 56 139 57 180 c 0
 60 263 173 381 237 445 c 1
 130 525 106 659 120 793 c 0
 141 991 275 1205 521 1205 c 0
 664 1205 737 1128 776 1054 c 1
 820 1116 887 1172 951 1197 c 1
 985 1211 l 1
 1014 1126 l 1
 944 1108 870 1056 812 998 c 1
 830 948 842 857 835 793 c 0
 811 556 684 379 445 379 c 0
 385 379 337 389 295 407 c 1
 251 351 169 259 165 212 c 0
 165 201 207 188 263 174 c 0
 337 155 413 140 478 126 c 0
 686 78 790 12 774 -135 c 0
 756 -308 569 -399 340 -399 c 0
EndSplineSet
EndChar

StartChar: germandbls
Encoding: 223 223 305
Width: 974
VWidth: 0
Flags: W
HStem: -21 126<345.759 564.794> 0 21G<71.7588 223.864> 839 125<517.759 651.332> 1570 121<455.959 719.916>
LayerCount: 2
UndoRedoHistory
Layer: 0
Undoes
EndUndoes
Redoes
EndRedoes
EndUndoRedoHistory
UndoRedoHistory
Layer: 1
Undoes
EndUndoes
Redoes
EndRedoes
EndUndoRedoHistory
Fore
SplineSet
331.758789062 -21 m 1xb0
 345.758789062 105 l 1xb0
 662.758789062 105 739.758789062 287 760.758789062 482 c 1
 779.758789062 671 723.758789062 839 500.758789062 839 c 1
 517.758789062 964 l 1
 686.758789062 964 751.758789062 1115 769.758789062 1281 c 0
 788.758789062 1462 745.758789062 1570 591.758789062 1570 c 0
 452.758789062 1570 379.758789062 1500 353.758789062 1254 c 2
 221.758789062 0 l 1
 71.7587890625 0 l 1x70
 203.758789062 1251 l 2
 236.758789062 1569 367.758789062 1691 591.758789062 1691 c 0
 823.758789062 1691 944.758789062 1552 915.758789062 1281 c 0
 894.758789062 1085 816.758789062 965 676.758789062 912 c 1
 870.758789062 866 929.758789062 686 908.758789062 486 c 0
 880.758789062 216 744.758789062 -21 331.758789062 -21 c 1xb0
EndSplineSet
EndChar

StartChar: grave
Encoding: 96 96 306
Width: 482
VWidth: 0
Flags: W
HStem: 1258 400<384 388>
VStem: 237 224
LayerCount: 2
UndoRedoHistory
Layer: 1
Undoes
EndUndoes
Redoes
EndRedoes
EndUndoRedoHistory
Fore
SplineSet
384 1258 m 1
 237 1658 l 1
 388 1658 l 1
 461 1258 l 1
 384 1258 l 1
EndSplineSet
EndChar

StartChar: gravecomb
Encoding: 456 768 307
Width: 0
VWidth: 0
Flags: W
HStem: 1258 400<181 186>
VStem: 35 223
LayerCount: 2
UndoRedoHistory
Layer: 1
Undoes
EndUndoes
Redoes
EndRedoes
EndUndoRedoHistory
Fore
SplineSet
181 1258 m 1
 35 1658 l 1
 186 1658 l 1
 258 1258 l 1
 181 1258 l 1
EndSplineSet
EndChar

StartChar: greater
Encoding: 62 62 308
Width: 744
VWidth: 0
Flags: W
VStem: 86 629
LayerCount: 2
UndoRedoHistory
Layer: 1
Undoes
EndUndoes
Redoes
EndRedoes
EndUndoRedoHistory
Fore
SplineSet
86 126 m 1
 102 281 l 1
 591 630 l 1
 174 967 l 1
 191 1122 l 1
 715 703 l 1
 700 555 l 1
 86 126 l 1
EndSplineSet
EndChar

StartChar: greaterequal
Encoding: 457 8805 309
Width: 739
VWidth: 0
Flags: W
HStem: 0 97<56 629>
VStem: 45 652
LayerCount: 2
UndoRedoHistory
Layer: 1
Undoes
EndUndoes
Redoes
EndRedoes
EndUndoRedoHistory
Fore
SplineSet
45 0 m 1
 56 97 l 1
 640 97 l 1
 629 0 l 1
 45 0 l 1
68 214 m 1
 84 369 l 1
 573 718 l 1
 156 1055 l 1
 173 1210 l 1
 697 791 l 1
 681 643 l 1
 68 214 l 1
EndSplineSet
EndChar

StartChar: guillemotleft
Encoding: 171 171 310
Width: 873
VWidth: 0
Flags: W
LayerCount: 2
UndoRedoHistory
Layer: 1
Undoes
EndUndoes
Redoes
EndRedoes
EndUndoRedoHistory
Fore
SplineSet
725 176 m 1
 430 618 l 1
 436 685 l 1
 825 1126 l 1
 805 935 l 1
 559 652 l 1
 745 367 l 1
 725 176 l 1
390 176 m 1
 96 618 l 1
 103 685 l 1
 490 1126 l 1
 470 935 l 1
 224 654 l 1
 410 367 l 1
 390 176 l 1
EndSplineSet
EndChar

StartChar: guillemotright
Encoding: 187 187 311
Width: 901
VWidth: 0
Flags: W
LayerCount: 2
UndoRedoHistory
Layer: 1
Undoes
EndUndoes
Redoes
EndRedoes
EndUndoRedoHistory
Fore
SplineSet
420 176 m 1
 440 367 l 1
 695 649 l 1
 499 935 l 1
 519 1126 l 1
 823 684 l 1
 817 617 l 1
 420 176 l 1
85 176 m 1
 105 367 l 1
 361 651 l 1
 164 935 l 1
 184 1126 l 1
 490 684 l 1
 483 617 l 1
 85 176 l 1
EndSplineSet
EndChar

StartChar: guilsinglleft
Encoding: 458 8249 312
Width: 668
VWidth: 0
Flags: W
VStem: 223 434
LayerCount: 2
UndoRedoHistory
Layer: 1
Undoes
EndUndoes
Redoes
EndRedoes
EndUndoRedoHistory
Fore
SplineSet
558 176 m 1
 223 618 l 1
 230 685 l 1
 657 1126 l 1
 637 935 l 1
 352 652 l 1
 578 367 l 1
 558 176 l 1
EndSplineSet
EndChar

StartChar: guilsinglright
Encoding: 459 8250 313
Width: 648
VWidth: 0
Flags: W
HStem: 1166 20G<228.906 246.158>
VStem: 132 434
LayerCount: 2
UndoRedoHistory
Layer: 1
Undoes
EndUndoes
Redoes
EndRedoes
EndUndoRedoHistory
Fore
SplineSet
132 236 m 1
 152 426 l 1
 437 710 l 1
 211 995 l 1
 231 1186 l 1
 566 744 l 1
 559 677 l 1
 132 236 l 1
EndSplineSet
EndChar

StartChar: h
Encoding: 104 104 314
Width: 844
VWidth: 0
Flags: W
HStem: 0 21G<72 224.094 541 694.105> 1084 118<467.537 695> 1638 20G<243.901 396>
LayerCount: 2
UndoRedoHistory
Layer: 1
Undoes
EndUndoes
Redoes
EndRedoes
EndUndoRedoHistory
Fore
SplineSet
72 0 m 1
 246 1658 l 1
 396 1658 l 1
 334 1060 l 1
 419 1142 523 1202 636 1202 c 0
 754 1202 809 1111 792 950 c 2
 692 0 l 1
 541 0 l 1
 638 918 l 2
 650 1040 619 1084 543 1084 c 0
 474 1084 394 1038 324 974 c 1
 222 0 l 1
 72 0 l 1
EndSplineSet
EndChar

StartChar: hbar
Encoding: 460 295 315
Width: 843
VWidth: 0
Flags: W
HStem: 0 21G<71 223.094 540 693.105> 1084 118<466.537 694> 1428 90<99 221 381 616> 1638 20G<243 395>
LayerCount: 2
UndoRedoHistory
Layer: 1
Undoes
EndUndoes
Redoes
EndRedoes
EndUndoRedoHistory
Fore
SplineSet
71 0 m 1
 221 1428 l 1
 89 1428 l 1
 99 1518 l 1
 231 1518 l 1
 245 1658 l 1
 395 1658 l 1
 381 1518 l 1
 626 1518 l 1
 616 1428 l 1
 371 1428 l 1
 333 1060 l 1
 418 1142 522 1202 635 1202 c 0
 753 1202 808 1111 791 950 c 2
 691 0 l 1
 540 0 l 1
 637 918 l 2
 649 1040 618 1084 542 1084 c 0
 473 1084 393 1038 323 974 c 1
 221 0 l 1
 71 0 l 1
EndSplineSet
EndChar

StartChar: hungarumlaut
Encoding: 462 733 317
Width: 554
VWidth: 0
Flags: W
HStem: 1345 328
VStem: 260 521
LayerCount: 2
UndoRedoHistory
Layer: 1
Undoes
EndUndoes
Redoes
EndRedoes
EndUndoRedoHistory
Fore
SplineSet
470 1345 m 1
 618 1673 l 1
 781 1673 l 1
 551 1345 l 1
 470 1345 l 1
260 1345 m 1
 373 1673 l 1
 509 1673 l 1
 339 1345 l 1
 260 1345 l 1
EndSplineSet
EndChar

StartChar: hyphen
Encoding: 45 45 318
Width: 610
VWidth: 0
Flags: W
HStem: 609 118<118 542>
VStem: 106 449
LayerCount: 2
UndoRedoHistory
Layer: 1
Undoes
EndUndoes
Redoes
EndRedoes
EndUndoRedoHistory
Fore
SplineSet
106 609 m 1
 118 727 l 1
 555 727 l 1
 542 609 l 1
 106 609 l 1
EndSplineSet
EndChar

StartChar: i
Encoding: 105 105 319
Width: 418
VWidth: 0
Flags: W
HStem: 0 21G<86 238.095> 1164 20G<207.905 360> 1347 204<249 378>
VStem: 86 314
AnchorPoint: "ogonek" 196 0 basechar 0
LayerCount: 2
UndoRedoHistory
Layer: 1
Undoes
EndUndoes
Redoes
EndRedoes
EndUndoRedoHistory
Fore
SplineSet
228 1347 m 1
 249 1551 l 1
 400 1551 l 1
 378 1347 l 1
 228 1347 l 1
86 0 m 1
 210 1184 l 1
 360 1184 l 1
 236 0 l 1
 86 0 l 1
EndSplineSet
EndChar

StartChar: infinity
Encoding: 466 8734 327
Width: 1257
VWidth: 0
Flags: W
HStem: 383 127<210.596 436.427 869.269 1066.73> 834 127<235.59 462.247 896.165 1091.17>
LayerCount: 2
UndoRedoHistory
Layer: 1
Undoes
EndUndoes
Redoes
EndRedoes
EndUndoRedoHistory
Fore
SplineSet
966 520 m 0
 1056 519 1117 580 1126 672 c 0
 1136 764 1088 825 998 824 c 0
 927 824 869 783 755 672 c 1
 845 561 895 520 966 520 c 0
316 510 m 0
 393 512 459 558 575 672 c 1
 483 786 426 832 350 834 c 0
 255 836 193 773 182 672 c 1
 172 570 220 508 316 510 c 0
307 383 m 0
 128 383 52 501 70 672 c 0
 88 842 189 961 368 961 c 0
 498 961 578 891 674 773 c 1
 792 886 879 955 1005 953 c 0
 1175 950 1256 842 1238 672 c 0
 1220 502 1116 394 945 391 c 0
 819 389 747 458 653 571 c 1
 532 453 437 383 307 383 c 0
EndSplineSet
EndChar

StartChar: integral
Encoding: 467 8747 328
Width: 591
VWidth: 0
Flags: W
HStem: -389 115<-57.3925 117.612> 1565 115<486.105 660.36>
LayerCount: 2
UndoRedoHistory
Layer: 1
Undoes
EndUndoes
Redoes
EndRedoes
EndUndoRedoHistory
Fore
SplineSet
51 -389 m 0
 9 -389 -28 -384 -69 -376 c 1
 -57 -263 l 1
 -33 -268 3 -274 27 -274 c 0
 117 -274 136 -218 148 -104 c 2
 305 1386 l 2
 323 1559 358 1680 553 1680 c 0
 595 1680 631 1675 671 1667 c 1
 660 1554 l 1
 634 1558 602 1565 577 1565 c 0
 487 1565 467 1510 455 1395 c 2
 298 -95 l 2
 280 -269 246 -389 51 -389 c 0
EndSplineSet
EndChar

StartChar: j
Encoding: 106 106 331
Width: 436
VWidth: 0
Flags: W
HStem: -310 118<-100.226 68.1017> 1164 20G<233.904 386> 1347 204<275 404>
VStem: -111 537
LayerCount: 2
UndoRedoHistory
Layer: 1
Undoes
EndUndoes
Redoes
EndRedoes
EndUndoRedoHistory
Fore
SplineSet
253 1347 m 1
 275 1551 l 1
 426 1551 l 1
 404 1347 l 1
 253 1347 l 1
-111 -303 m 1
 -99 -189 l 1
 -92 -191 -57 -192 -48 -192 c 0
 77 -192 100 -114 109 -28 c 2
 236 1184 l 1
 386 1184 l 1
 257 -41 l 2
 238 -229 131 -310 -32 -310 c 0
 -52 -310 -96 -309 -111 -303 c 1
EndSplineSet
EndChar

StartChar: k
Encoding: 107 107 333
Width: 820
VWidth: 0
Flags: W
HStem: 0 21G<605.379 761> 1164 20G<724.256 900> 1640 20G<243.889 396>
LayerCount: 2
UndoRedoHistory
Layer: 1
Undoes
EndUndoes
Redoes
EndRedoes
EndUndoRedoHistory
Fore
SplineSet
71 2 m 1
 246 1660 l 1
 396 1660 l 1
 285 606 l 1
 740 1184 l 1
 900 1184 l 1
 553 727 l 1
 761 0 l 1
 611 0 l 1
 430 644 l 1
 268 448 l 1
 221 2 l 1
 71 2 l 1
EndSplineSet
EndChar

StartChar: kgreenlandic
Encoding: 472 312 335
Width: 856
VWidth: 0
Flags: W
HStem: 0 21G<82 234.098 609.167 767> 1164 20G<203.905 356 716.017 887>
LayerCount: 2
UndoRedoHistory
Layer: 1
Undoes
EndUndoes
Redoes
EndRedoes
EndUndoRedoHistory
Fore
SplineSet
82 0 m 1
 206 1184 l 1
 356 1184 l 1
 295 602 l 1
 731 1184 l 1
 887 1184 l 1
 547 726 l 1
 767 0 l 1
 615 0 l 1
 433 624 l 1
 277 429 l 1
 232 0 l 1
 82 0 l 1
EndSplineSet
EndChar

StartChar: l
Encoding: 108 108 336
Width: 414
VWidth: 0
Flags: W
HStem: 0 21G<90 243.099> 1638 20G<261.901 415>
VStem: 90 325
LayerCount: 2
UndoRedoHistory
Layer: 1
Undoes
EndUndoes
Redoes
EndRedoes
EndUndoRedoHistory
Fore
SplineSet
90 0 m 1
 264 1658 l 1
 415 1658 l 1
 241 0 l 1
 90 0 l 1
EndSplineSet
EndChar

StartChar: less
Encoding: 60 60 341
Width: 744
VWidth: 0
Flags: W
VStem: 72 628
LayerCount: 2
UndoRedoHistory
Layer: 1
Undoes
EndUndoes
Redoes
EndRedoes
EndUndoRedoHistory
Fore
SplineSet
595 126 m 1
 72 544 l 1
 87 692 l 1
 700 1122 l 1
 683 966 l 1
 195 618 l 1
 611 280 l 1
 595 126 l 1
EndSplineSet
EndChar

StartChar: lessequal
Encoding: 477 8804 342
Width: 762
VWidth: 0
Flags: W
HStem: 0 97<30 603> 1182 20G<692.422 718.806>
LayerCount: 2
UndoRedoHistory
Layer: 1
Undoes
EndUndoes
Redoes
EndRedoes
EndUndoRedoHistory
Fore
SplineSet
19 0 m 1
 30 97 l 1
 614 97 l 1
 603 0 l 1
 19 0 l 1
616 206 m 1
 93 624 l 1
 108 773 l 1
 721 1202 l 1
 704 1047 l 1
 216 699 l 1
 632 360 l 1
 616 206 l 1
EndSplineSet
EndChar

StartChar: logicalnot
Encoding: 172 172 343
Width: 745
VWidth: 0
Flags: W
HStem: 790 119<134 633>
VStem: 122 614
LayerCount: 2
UndoRedoHistory
Layer: 1
Undoes
EndUndoes
Redoes
EndRedoes
EndUndoRedoHistory
Fore
SplineSet
609 561 m 1
 633 790 l 1
 122 790 l 1
 134 909 l 1
 736 909 l 1
 700 561 l 1
 609 561 l 1
EndSplineSet
EndChar

StartChar: lozenge
Encoding: 478 9674 344
Width: 886
VWidth: 0
Flags: W
HStem: 0 21G<355.946 458.736> 1165 20G<462.251 565.005>
LayerCount: 2
UndoRedoHistory
Layer: 1
Undoes
EndUndoes
Redoes
EndRedoes
EndUndoRedoHistory
Fore
SplineSet
414 104 m 1
 711 592 l 1
 506 1073 l 1
 211 592 l 1
 414 104 l 1
365 0 m 1
 97 592 l 1
 475 1185 l 1
 556 1185 l 1
 823 592 l 1
 446 0 l 1
 365 0 l 1
EndSplineSet
EndChar

StartChar: lslash
Encoding: 479 322 345
Width: 521
VWidth: 0
Flags: W
HStem: 0 21G<144 296.098> 1638 20G<315.923 468>
VStem: 102 440
LayerCount: 2
UndoRedoHistory
Layer: 1
Undoes
EndUndoes
Redoes
EndRedoes
EndUndoRedoHistory
Fore
SplineSet
144 0 m 1
 240 909 l 1
 102 840 l 1
 114 964 l 1
 253 1032 l 1
 318 1658 l 1
 468 1658 l 1
 411 1105 l 1
 542 1170 l 1
 530 1048 l 1
 397 982 l 1
 294 0 l 1
 144 0 l 1
EndSplineSet
EndChar

StartChar: m
Encoding: 109 109 346
Width: 1304
VWidth: 0
Flags: W
HStem: 0 21G<69 221.111 535 687.113 1002 1154.11> 1084 118<460.304 673 929.618 1155.5> 1164 20G<190.905 343>
VStem: 535 150<0 135.685>
LayerCount: 2
UndoRedoHistory
Layer: 1
Undoes
EndUndoes
Redoes
EndRedoes
EndUndoRedoHistory
Fore
SplineSet
69 0 m 1xd0
 193 1184 l 1
 343 1184 l 1xb0
 331 1062 l 1
 415 1144 519 1202 629 1202 c 0
 717 1202 774 1154 786 1050 c 1
 873 1138 980 1202 1096 1202 c 0
 1215 1202 1269 1111 1252 950 c 2
 1152 0 l 1
 1002 0 l 1
 1098 918 l 2
 1111 1040 1079 1084 1003 1084 c 0
 934 1084 855 1038 786 974 c 1
 786 965 785 948 784 937 c 2
 685 0 l 1
 535 0 l 1
 631 918 l 2
 644 1040 612 1084 536 1084 c 0
 468 1084 390 1039 322 976 c 1
 219 0 l 1
 69 0 l 1xd0
EndSplineSet
EndChar

StartChar: macron
Encoding: 175 175 347
Width: 704
VWidth: 0
Flags: W
HStem: 1562 96<307 664>
VStem: 297 377
LayerCount: 2
UndoRedoHistory
Layer: 1
Undoes
EndUndoes
Redoes
EndRedoes
EndUndoRedoHistory
Fore
SplineSet
297 1562 m 1
 307 1658 l 1
 674 1658 l 1
 664 1562 l 1
 297 1562 l 1
EndSplineSet
EndChar

StartChar: minus
Encoding: 480 8722 348
Width: 740
VWidth: 0
Flags: W
HStem: 744 97<122 695>
VStem: 111 595
LayerCount: 2
UndoRedoHistory
Layer: 1
Undoes
EndUndoes
Redoes
EndRedoes
EndUndoRedoHistory
Fore
SplineSet
111 744 m 1
 122 841 l 1
 706 841 l 1
 695 744 l 1
 111 744 l 1
EndSplineSet
EndChar

StartChar: mu
Encoding: 181 181 349
Width: 861
VWidth: 0
Flags: W
HStem: -12 112<249.447 420.469> 1164 20G<181.921 335 654.89 807>
LayerCount: 2
UndoRedoHistory
Layer: 1
Undoes
EndUndoes
Redoes
EndRedoes
EndUndoRedoHistory
Fore
SplineSet
24 -355 m 1
 184 1184 l 1
 335 1184 l 1
 239 266 l 2
 226 144 258 100 334 100 c 0
 405 100 486 149 555 217 c 1
 657 1184 l 1
 807 1184 l 1
 683 0 l 1
 533 0 l 1
 547 131 l 1
 473 53 382 -1 288 -12 c 1
 261 -13 234 -9 213 8 c 1
 175 -355 l 1
 24 -355 l 1
EndSplineSet
EndChar

StartChar: multiply
Encoding: 215 215 350
Width: 724
VWidth: 0
Flags: W
HStem: 524 557
VStem: 101 600
LayerCount: 2
UndoRedoHistory
Layer: 1
Undoes
EndUndoes
Redoes
EndRedoes
EndUndoRedoHistory
Fore
SplineSet
171 524 m 1
 101 601 l 1
 324 803 l 1
 144 1004 l 1
 229 1081 l 1
 409 880 l 1
 632 1081 l 1
 701 1004 l 1
 479 803 l 1
 659 601 l 1
 573 524 l 1
 393 725 l 1
 171 524 l 1
EndSplineSet
EndChar

StartChar: n
Encoding: 110 110 351
Width: 838
VWidth: 0
Flags: W
HStem: 0 21G<69 221.113 536 688.105> 1084 118<460.907 689.5> 1164 20G<190.905 343>
LayerCount: 2
UndoRedoHistory
Layer: 1
Undoes
EndUndoes
Redoes
EndRedoes
EndUndoRedoHistory
Fore
SplineSet
69 0 m 1xc0
 193 1184 l 1
 343 1184 l 1xa0
 331 1061 l 1
 416 1144 519 1202 630 1202 c 0
 749 1202 803 1111 786 950 c 2
 686 0 l 1
 536 0 l 1
 632 918 l 2
 645 1040 613 1084 537 1084 c 0
 469 1084 390 1039 322 975 c 1
 219 0 l 1
 69 0 l 1xc0
EndSplineSet
EndChar

StartChar: nine
Encoding: 57 57 356
Width: 1006
VWidth: 0
Flags: W
HStem: -21 125<326.16 615.546> 677 116<392.212 698.515> 1551 125<480.1 755.449>
CounterMasks: 1 e0
LayerCount: 2
UndoRedoHistory
Layer: 1
Undoes
EndUndoes
Redoes
EndRedoes
EndUndoRedoHistory
Fore
SplineSet
543 793 m 0
 660 793 742 846 786 889 c 1
 815 1175 l 1
 844 1442 785 1551 625 1551 c 0
 462 1551 371 1440 346 1200 c 0
 317 928 328 793 543 793 c 0
464 -21 m 0
 213 -21 102 111 126 368 c 0
 126 370 129 395 129 397 c 1
 277 397 l 1
 255 186 303 104 479 104 c 0
 619 104 712 193 741 462 c 2
 774 774 l 1
 727 727 633 677 496 677 c 0
 224 677 154 827 190 1171 c 0
 222 1476 354 1676 638 1676 c 0
 909 1676 998 1479 964 1157 c 2
 895 495 l 2
 863 192 744 -21 464 -21 c 0
EndSplineSet
EndChar

StartChar: notequal
Encoding: 485 8800 357
Width: 840
VWidth: 0
Flags: W
HStem: 0 21G<85 225.774> 584 119<133 313 491 732> 927 120<169 447 624 768> 1638 20G<724.144 864>
LayerCount: 2
UndoRedoHistory
Layer: 1
Undoes
EndUndoes
Redoes
EndRedoes
EndUndoRedoHistory
Fore
SplineSet
85 0 m 1
 313 584 l 1
 121 584 l 1
 133 703 l 1
 359 703 l 1
 447 927 l 1
 156 927 l 1
 169 1047 l 1
 492 1047 l 1
 732 1658 l 1
 864 1658 l 1
 624 1047 l 1
 781 1047 l 1
 768 927 l 1
 579 927 l 1
 491 703 l 1
 745 703 l 1
 732 584 l 1
 445 584 l 1
 218 0 l 1
 85 0 l 1
EndSplineSet
EndChar

StartChar: numbersign
Encoding: 35 35 359
Width: 953
VWidth: 0
Flags: W
HStem: 0 21G<63 214.193 411 563.159> 597 111<114 217 392 566 741 870> 998 111<181 322 497 671 845 938> 1638 20G<487.791 639 836.791 988>
LayerCount: 2
UndoRedoHistory
Layer: 1
Undoes
EndUndoes
Redoes
EndRedoes
EndUndoRedoHistory
Fore
SplineSet
392 708 m 1
 595 708 l 1
 671 998 l 1
 469 998 l 1
 392 708 l 1
63 0 m 1
 217 597 l 1
 102 597 l 1
 114 708 l 1
 246 708 l 1
 322 998 l 1
 170 998 l 1
 181 1109 l 1
 350 1109 l 1
 493 1658 l 1
 639 1658 l 1
 497 1109 l 1
 699 1109 l 1
 842 1658 l 1
 988 1658 l 1
 845 1109 l 1
 950 1109 l 1
 938 998 l 1
 818 998 l 1
 741 708 l 1
 882 708 l 1
 870 597 l 1
 712 597 l 1
 558 0 l 1
 411 0 l 1
 566 597 l 1
 364 597 l 1
 209 0 l 1
 63 0 l 1
EndSplineSet
EndChar

StartChar: o
Encoding: 111 111 360
Width: 816
VWidth: 0
Flags: W
HStem: -19 113<265.901 487.156> 1090 112<362.731 583.983>
AnchorPoint: "ogonek" 421 0 basechar 0
LayerCount: 2
UndoRedoHistory
Layer: 1
Undoes
EndUndoes
Redoes
EndRedoes
EndUndoRedoHistory
Fore
SplineSet
361 -19 m 0
 115 -19 62 142 92 428 c 2
 127 756 l 2
 157 1040 243 1202 489 1202 c 0
 735 1202 788 1042 758 756 c 2
 724 428 l 1
 693 142 607 -19 361 -19 c 0
373 94 m 0
 527 94 552 228 572 420 c 2
 609 764 l 1
 628 956 632 1090 477 1090 c 0
 323 1090 297 956 278 764 c 1
 241 420 l 2
 221 228 218 94 373 94 c 0
EndSplineSet
EndChar

StartChar: oe
Encoding: 487 339 365
Width: 1328
VWidth: 0
Flags: W
HStem: -19 123<282.48 509.633 781.426 1002.74> 612 81<770 1103> 1081 121<374.372 602.257 869.082 1081.9>
LayerCount: 2
UndoRedoHistory
Layer: 1
Undoes
EndUndoes
Redoes
EndRedoes
EndUndoRedoHistory
Fore
SplineSet
770 693 m 1
 1103 693 l 1
 1109 751 l 2
 1128 930 1131 1081 981 1081 c 0
 852 1081 799 974 776 758 c 1
 770 693 l 1
390 104 m 0
 545 104 571 234 591 426 c 2
 626 758 l 2
 646 950 647 1081 493 1081 c 0
 338 1081 312 950 293 758 c 1
 258 426 l 2
 237 234 236 104 390 104 c 0
377 -19 m 0
 131 -19 77 140 107 426 c 2
 142 758 l 2
 172 1042 260 1202 506 1202 c 0
 636 1202 708 1139 731 1035 c 1
 785 1159 885 1202 998 1202 c 0
 1239 1202 1291 1054 1256 721 c 1
 1243 612 l 1
 761 612 l 1
 747 482 l 1
 723 246 741 109 876 104 c 0
 961 101 1043 124 1064 318 c 2
 1073 405 l 1
 1223 405 l 1
 1213 320 l 1
 1190 102 1091 -23 863 -19 c 1
 750 -16 665 33 639 157 c 1
 594 44 508 -19 377 -19 c 0
EndSplineSet
EndChar

StartChar: ogonek
Encoding: 488 731 366
Width: 465
VWidth: 0
Flags: W
HStem: -429 80<104.75 240>
VStem: -34 309
AnchorPoint: "ogonek" 271 0 mark 0
LayerCount: 2
UndoRedoHistory
Layer: 1
Undoes
EndUndoes
Redoes
EndRedoes
EndUndoRedoHistory
Fore
SplineSet
240 -429 m 1
 56 -429 -47 -390 -34 -261 c 0
 -22 -151 82 -37 181 5 c 1
 261 5 l 1
 182 -72 91 -172 82 -254 c 0
 73 -339 182 -349 275 -349 c 1
 240 -429 l 1
EndSplineSet
EndChar

StartChar: one
Encoding: 49 49 370
Width: 875
VWidth: 0
Flags: W
HStem: 0 21G<393 545.099> 1350 121<290 406.563> 1638 20G<554.5 717>
VStem: 277 440
LayerCount: 2
UndoRedoHistory
Layer: 1
Undoes
EndUndoes
Redoes
EndRedoes
EndUndoRedoHistory
Fore
SplineSet
393 0 m 1
 546 1459 l 1
 507 1410 307 1358 277 1350 c 1
 290 1471 l 1
 373 1492 513 1557 596 1658 c 1
 717 1658 l 1
 543 0 l 1
 393 0 l 1
EndSplineSet
EndChar

StartChar: onehalf
Encoding: 189 189 371
Width: 1583
VWidth: 0
Flags: W
HStem: 0 89<1104 1416> 826 89<1194.21 1368> 1638 20G<431 511 1094 1233>
VStem: 1037 117<656 788.659>
CounterMasks: 1 e0
LayerCount: 2
UndoRedoHistory
Layer: 1
Undoes
EndUndoes
Redoes
EndRedoes
EndUndoRedoHistory
Fore
SplineSet
357 0 m 1
 1103 1658 l 1
 1233 1658 l 1
 487 0 l 1
 357 0 l 1
289 668 m 1
 374 1476 l 1
 227 1424 l 1
 237 1516 l 1
 311 1551 410 1614 452 1658 c 1
 511 1658 l 1
 407 668 l 1
 289 668 l 1
967 0 m 1
 977 88 l 1
 1237 412 l 2
 1301 493 1368 557 1380 670 c 0
 1390 763 1373 826 1289 826 c 0
 1195 826 1165 761 1154 656 c 1
 1037 656 l 1
 1037 659 1039 669 1039 671 c 0
 1058 833 1146 915 1298 915 c 0
 1442 915 1520 829 1504 673 c 0
 1491 553 1411 452 1318 347 c 1
 1294 322 1121 110 1104 89 c 1
 1426 89 l 1
 1416 0 l 1
 967 0 l 1
EndSplineSet
EndChar

StartChar: onequarter
Encoding: 188 188 372
Width: 1583
VWidth: 0
Flags: W
HStem: 0 21G<352 491.987 1201 1324.15> 270 88<1031 1231 1361 1478> 1638 20G<423 502 1089 1228>
LayerCount: 2
UndoRedoHistory
Layer: 1
Undoes
EndUndoes
Redoes
EndRedoes
EndUndoRedoHistory
Fore
SplineSet
1031 358 m 1
 1240 358 l 1
 1289 827 l 1
 1031 358 l 1
352 0 m 1
 1098 1658 l 1
 1228 1658 l 1
 483 0 l 1
 352 0 l 1
280 668 m 1
 365 1476 l 1
 218 1424 l 1
 228 1516 l 1
 302 1551 402 1614 444 1658 c 1
 502 1658 l 1
 398 668 l 1
 280 668 l 1
1201 -9 m 1
 1231 270 l 1
 919 270 l 1
 928 356 l 1
 1313 1005 l 1
 1429 1006 l 1
 1361 358 l 1
 1487 358 l 1
 1478 270 l 1
 1352 270 l 1
 1322 -9 l 1
 1201 -9 l 1
EndSplineSet
EndChar

StartChar: onesuperior
Encoding: 185 185 373
Width: 799
VWidth: 0
Flags: W
VStem: 324 321
LayerCount: 2
UndoRedoHistory
Layer: 1
Undoes
EndUndoes
Redoes
EndRedoes
EndUndoRedoHistory
Fore
SplineSet
417 725 m 1
 512 1634 l 1
 471 1583 375 1546 324 1535 c 1
 334 1626 l 1
 386 1646 477 1686 542 1769 c 1
 645 1769 l 1
 536 725 l 1
 417 725 l 1
EndSplineSet
EndChar

StartChar: ordfeminine
Encoding: 170 170 374
Width: 842
VWidth: 0
Flags: W
HStem: 696 110<350.725 530.026> 1576 105<461.635 649.08>
VStem: 282 124<1395 1517.31>
LayerCount: 2
UndoRedoHistory
Layer: 1
Undoes
EndUndoes
Redoes
EndRedoes
EndUndoRedoHistory
Fore
SplineSet
437 806 m 0
 515 806 579 860 620 925 c 1
 648 1194 l 1
 436 1099 349 1060 335 931 c 0
 325 840 379 806 437 806 c 0
386 696 m 0
 262 696 187 781 200 907 c 0
 220 1092 351 1147 655 1261 c 1
 664 1350 l 2
 681 1509 658 1576 567 1576 c 0
 486 1576 420 1525 406 1393 c 1
 282 1395 l 1
 305 1579 409 1681 580 1681 c 0
 777 1681 818 1562 793 1322 c 2
 729 710 l 1
 611 710 l 1
 619 833 l 1
 573 754 484 696 386 696 c 0
EndSplineSet
EndChar

StartChar: ordmasculine
Encoding: 186 186 375
Width: 842
VWidth: 0
Flags: W
HStem: 694 104<347.514 576.2> 1578 103<419.976 650.372>
VStem: 196 610
LayerCount: 2
UndoRedoHistory
Layer: 1
Undoes
EndUndoes
Redoes
EndRedoes
EndUndoRedoHistory
Fore
SplineSet
449 694 m 0
 224 694 175 826 196 1025 c 2
 230 1352 l 2
 251 1551 332 1681 553 1681 c 0
 767 1681 827 1546 806 1352 c 2
 772 1025 l 2
 752 831 670 694 449 694 c 0
458 798 m 0
 596 798 631 901 646 1035 c 1
 678 1342 l 2
 692 1475 678 1578 540 1578 c 0
 403 1578 365 1474 351 1342 c 2
 319 1035 l 2
 305 902 320 798 458 798 c 0
EndSplineSet
EndChar

StartChar: oslash
Encoding: 248 248 376
Width: 816
VWidth: 0
Flags: W
HStem: -19 113<263.102 487.156> 1090 112<362.731 585.561>
LayerCount: 2
UndoRedoHistory
Layer: 1
Undoes
EndUndoes
Redoes
EndRedoes
EndUndoRedoHistory
Fore
SplineSet
87 -157 m 1
 39 -139 l 1
 138.200692907 72.5606614035 l 1
 84.33848131 148.073023928 75.2827827864 268.629195897 92 428 c 2
 127 756 l 2
 157 1040 243 1202 489 1202 c 0
 556.935065495 1202 610.151239905 1189.7978105 650.965220885 1166.10950168 c 1
 725 1324 l 1
 779 1305 l 1
 696.185285934 1130.03596537 l 1
 763.826573798 1056.90433635 776.218943495 929.687261321 758 756 c 2
 724 428 l 1
 693 142 607 -19 361 -19 c 0
 279.839507853 -19 219.686615658 -1.47552542825 176.591102542 32.2806241568 c 1
 87 -157 l 1
373 94 m 0
 527 94 552 228 572 420 c 2
 609 764 l 2
 616.510121668 839.891755799 621.676672942 906.721706077 615.606770225 959.796384492 c 1
 244.342832432 175.420839617 l 1
 261.951681886 123.796633843 299.909168752 94 373 94 c 0
231.311281134 271.133242419 m 1
 591.178213217 1038.60455676 l 1
 570.08526944 1071.57671092 534.472869657 1090 477 1090 c 0
 323 1090 297 956 278 764 c 1
 241 420 l 2
 235.273831575 365.028783119 230.941195855 314.811971939 231.311281134 271.133242419 c 1
EndSplineSet
EndChar

StartChar: p
Encoding: 112 112 378
Width: 855
VWidth: 0
Flags: W
HStem: -390 21G<29 181.103> -19 119<298.6 522.095> 1084 118<419.023 616.088> 1164 20G<191.903 344>
LayerCount: 2
UndoRedoHistory
Layer: 1
Undoes
EndUndoes
Redoes
EndRedoes
EndUndoRedoHistory
Fore
SplineSet
417 100 m 0xe0
 552 100 589 232 615 478 c 2
 641 730 l 1
 666 962 656 1084 518 1084 c 0
 441 1084 370 1033 325 993 c 1
 240 187 l 1
 279 140 339 100 417 100 c 0xe0
29 -390 m 1
 194 1184 l 1
 344 1184 l 1xd0
 335 1086 l 1
 387 1144 467 1202 573 1202 c 0
 802 1202 816 968 791 730 c 2
 765 480 l 2
 734 179 650 -19 429 -19 c 0
 333 -19 270 41 230 95 c 1
 179 -390 l 1
 29 -390 l 1
EndSplineSet
EndChar

StartChar: paragraph
Encoding: 182 182 379
Width: 993
VWidth: 0
Flags: W
HStem: 1574 84<641 859>
LayerCount: 2
UndoRedoHistory
Layer: 1
Undoes
EndUndoes
Redoes
EndRedoes
EndUndoRedoHistory
Fore
SplineSet
345 -194 m 1
 479 1085 l 1
 266 1084 138 1184 158 1369 c 0
 177 1550 306 1658 550 1658 c 2
 977 1658 l 1
 783 -194 l 1
 673 -194 l 1
 859 1574 l 1
 641 1574 l 1
 455 -194 l 1
 345 -194 l 1
EndSplineSet
EndChar

StartChar: parenleft
Encoding: 40 40 380
Width: 569
VWidth: 0
Flags: W
HStem: -338 104<354.583 428.516> 1566 105<535.738 627>
LayerCount: 2
UndoRedoHistory
Layer: 1
Undoes
EndUndoes
Redoes
EndRedoes
EndUndoRedoHistory
Fore
SplineSet
427 -338 m 1
 88 -318 130 135 186 666 c 0
 242 1200 296 1661 638 1671 c 1
 627 1566 l 1
 421 1546 381 1134 332 666 c 0
 282 194 236 -214 438 -234 c 1
 427 -338 l 1
EndSplineSet
EndChar

StartChar: parenright
Encoding: 41 41 381
Width: 526
VWidth: 0
Flags: W
HStem: -338 104<-8 83.5558> 1567 104<193 265.343>
LayerCount: 2
UndoRedoHistory
Layer: 1
Undoes
EndUndoes
Redoes
EndRedoes
EndUndoRedoHistory
Fore
SplineSet
-19 -338 m 1
 -8 -234 l 1
 198 -214 239 199 288 668 c 0
 337 1139 384 1547 182 1567 c 1
 193 1671 l 1
 532 1661 490 1201 434 668 c 0
 378 136 324 -318 -19 -338 c 1
EndSplineSet
EndChar

StartChar: partialdiff
Encoding: 491 8706 382
Width: 907
VWidth: 0
Flags: W
HStem: -23 113<269.724 523.348> 1009 114<390.608 653.333> 1583 100<447 606.992>
LayerCount: 2
UndoRedoHistory
Layer: 1
Undoes
EndUndoes
Redoes
EndRedoes
EndUndoRedoHistory
Fore
SplineSet
391 90 m 0
 509 90 590 151 632 365 c 1
 732 907 l 1
 672 958 599 1009 517 1009 c 0
 378 1009 323 923 285 695 c 1
 236 431 l 2
 231 401 228 374 225 349 c 0
 206 174 257 90 391 90 c 0
372 -23 m 1
 178 -20 62 96 90 365 c 0
 93 391 96 419 101 449 c 2
 151 713 l 1
 198 993 309 1123 514 1123 c 0
 642 1123 720 1050 756 1005 c 1
 761 1024 780 1142 783 1168 c 0
 815 1471 654 1564 405 1583 c 1
 447 1683 l 1
 668 1683 947 1594 899 1135 c 0
 897 1109 777 411 777 411 c 1
 711 55 546 -23 372 -23 c 1
EndSplineSet
EndChar

StartChar: percent
Encoding: 37 37 383
Width: 1499
VWidth: 0
Flags: W
HStem: -12 115<1054.56 1220.22> 735 116<1109.61 1276.46> 827 115<309.975 475.785> 1573 116<364.914 532.007> 1653 20G<1069.62 1211>
CounterMasks: 1 c8
LayerCount: 2
UndoRedoHistory
Layer: 1
Undoes
EndUndoes
Redoes
EndRedoes
EndUndoRedoHistory
Fore
SplineSet
377 0 m 1x88
 1078 1673 l 1
 1211 1673 l 1
 511 0 l 1
 377 0 l 1x88
1120 -12 m 0
 935 -12 882 117 902 307 c 2
 926 537 l 2
 947 730 1026 851 1210 851 c 0xc0
 1394 851 1449 734 1429 543 c 2
 1403 303 l 1
 1384 113 1304 -12 1120 -12 c 0
1132 103 m 0
 1223 103 1255 188 1267 301 c 2
 1292 544 l 2
 1304 655 1290 735 1198 735 c 0
 1105 735 1076 653 1064 543 c 2
 1038 300 l 1
 1027 187 1041 103 1132 103 c 0
375 827 m 0xb0
 191 827 138 956 158 1145 c 2
 182 1375 l 2
 202 1568 281 1689 466 1689 c 0
 649 1689 704 1572 684 1381 c 2
 659 1142 l 2
 639 951 560 827 375 827 c 0xb0
387 942 m 0
 479 942 511 1026 522 1139 c 1
 548 1383 l 2
 560 1493 545 1573 453 1573 c 0
 360 1573 331 1491 320 1381 c 2
 294 1138 l 2
 282 1025 297 942 387 942 c 0
EndSplineSet
EndChar

StartChar: period
Encoding: 46 46 384
Width: 372
VWidth: 0
Flags: W
HStem: 0 225<101 236>
VStem: 77 183
LayerCount: 2
UndoRedoHistory
Layer: 1
Undoes
EndUndoes
Redoes
EndRedoes
EndUndoRedoHistory
Fore
SplineSet
77 0 m 1
 101 225 l 1
 260 225 l 1
 236 0 l 1
 77 0 l 1
EndSplineSet
EndChar

StartChar: periodcentered
Encoding: 183 183 385
Width: 385
VWidth: 0
Flags: W
HStem: 683 180<177 311>
VStem: 159 170
LayerCount: 2
UndoRedoHistory
Layer: 1
Undoes
EndUndoes
Redoes
EndRedoes
EndUndoRedoHistory
Fore
SplineSet
159 683 m 1
 177 863 l 1
 329 863 l 1
 311 683 l 1
 159 683 l 1
EndSplineSet
EndChar

StartChar: perthousand
Encoding: 492 8240 386
Width: 2129
VWidth: 0
Flags: W
HStem: -12 115<1064.56 1230.22 1674.81 1840.43> 735 116<1119.61 1286.46 1730.17 1896.38> 827 115<319.975 485.785> 1573 116<374.914 542.007> 1653 20G<1079.62 1221>
CounterMasks: 1 c8
LayerCount: 2
UndoRedoHistory
Layer: 1
Undoes
EndUndoes
Redoes
EndRedoes
EndUndoRedoHistory
Fore
SplineSet
387 0 m 1x88
 1088 1673 l 1
 1221 1673 l 1
 521 0 l 1
 387 0 l 1x88
1740 -13 m 0
 1555 -13 1502 117 1522 306 c 2
 1547 536 l 2
 1567 729 1646 850 1831 850 c 0
 2014 850 2070 733 2049 542 c 1
 2024 303 l 2
 2004 112 1924 -13 1740 -13 c 0
1752 103 m 0
 1844 103 1875 187 1887 300 c 2
 1913 544 l 2
 1924 654 1911 734 1819 734 c 0
 1726 734 1696 652 1684 542 c 2
 1659 299 l 2
 1647 186 1662 103 1752 103 c 0
1130 -12 m 0
 945 -12 892 117 912 307 c 2
 936 537 l 2
 957 730 1036 851 1220 851 c 0xc0
 1404 851 1459 734 1439 543 c 2
 1413 303 l 1
 1394 113 1314 -12 1130 -12 c 0
1142 103 m 0
 1233 103 1265 188 1277 301 c 2
 1302 544 l 2
 1314 655 1300 735 1208 735 c 0
 1115 735 1086 653 1074 543 c 2
 1048 300 l 1
 1037 187 1051 103 1142 103 c 0
385 827 m 0xb0
 201 827 148 956 168 1145 c 2
 192 1375 l 2
 212 1568 291 1689 476 1689 c 0
 659 1689 714 1572 694 1381 c 2
 669 1142 l 2
 649 951 570 827 385 827 c 0xb0
397 942 m 0
 489 942 521 1026 532 1139 c 1
 558 1383 l 2
 570 1493 555 1573 463 1573 c 0
 370 1573 341 1491 330 1381 c 2
 304 1138 l 2
 292 1025 307 942 397 942 c 0
EndSplineSet
EndChar

StartChar: pi
Encoding: 493 960 387
Width: 957
VWidth: 0
Flags: W
HStem: -10 121<736.632 819> 1069 115<111 226 376 659 809 957>
LayerCount: 2
UndoRedoHistory
Layer: 1
Undoes
EndUndoes
Redoes
EndRedoes
EndUndoRedoHistory
Fore
SplineSet
114 0 m 1
 226 1069 l 1
 99 1069 l 1
 111 1184 l 1
 969 1184 l 1
 957 1069 l 1
 809 1069 l 1
 731 326 l 2
 712 151 724 111 845 111 c 1
 819 -10 l 1
 600 -10 555 81 576 288 c 2
 659 1069 l 1
 376 1069 l 1
 264 0 l 1
 114 0 l 1
EndSplineSet
EndChar

StartChar: plus
Encoding: 43 43 388
Width: 785
VWidth: 0
Flags: W
HStem: 795 113<99 371 498 775>
LayerCount: 2
UndoRedoHistory
Layer: 1
Undoes
EndUndoes
Redoes
EndRedoes
EndUndoRedoHistory
Fore
SplineSet
337 471 m 1
 371 795 l 1
 87 795 l 1
 99 908 l 1
 383 908 l 1
 416 1229 l 1
 531 1229 l 1
 498 908 l 1
 787 908 l 1
 775 795 l 1
 486 795 l 1
 452 471 l 1
 337 471 l 1
EndSplineSet
EndChar

StartChar: plusminus
Encoding: 177 177 389
Width: 695
VWidth: 0
Flags: W
HStem: 0 124<74 557> 553 124<132 304 444 615>
VStem: 61 567
LayerCount: 2
UndoRedoHistory
Layer: 1
Undoes
EndUndoes
Redoes
EndRedoes
EndUndoRedoHistory
Fore
SplineSet
61 0 m 1
 74 124 l 1
 570 124 l 1
 557 0 l 1
 61 0 l 1
284 369 m 1
 304 553 l 1
 119 553 l 1
 132 677 l 1
 317 677 l 1
 336 861 l 1
 463 861 l 1
 444 677 l 1
 628 677 l 1
 615 553 l 1
 430 553 l 1
 411 369 l 1
 284 369 l 1
EndSplineSet
EndChar

StartChar: product
Encoding: 494 8719 390
Width: 1146
VWidth: 0
Flags: W
HStem: -390 21G<58 210.111 766 919.1> 1543 115<412 969>
LayerCount: 2
UndoRedoHistory
Layer: 1
Undoes
EndUndoes
Redoes
EndRedoes
EndUndoRedoHistory
Fore
SplineSet
58 -390 m 1
 273 1658 l 1
 1132 1658 l 1
 917 -390 l 1
 766 -390 l 1
 969 1543 l 1
 412 1543 l 1
 208 -390 l 1
 58 -390 l 1
EndSplineSet
EndChar

StartChar: q
Encoding: 113 113 391
Width: 848
VWidth: 0
Flags: W
HStem: -390 21G<498 650.097> -19 119<278.565 475.32> 1084 118<368.07 593.695> 1164 20G<661.118 813>
LayerCount: 2
UndoRedoHistory
Layer: 1
Undoes
EndUndoes
Redoes
EndRedoes
EndUndoRedoHistory
Fore
SplineSet
378 100 m 0xe0
 441 100 506 135 558 180 c 1
 644 1000 l 1
 607 1039 550 1084 477 1084 c 0
 344 1084 303 969 279 745 c 2
 250 466 l 2
 225 224 240 100 378 100 c 0xe0
498 -390 m 1
 548 85 l 1
 497 32 425 -18 335 -19 c 1
 131 -19 64 122 102 478 c 1
 124 697 l 1
 157 1006 231 1202 457 1202 c 0xe0
 550 1202 614 1151 655 1099 c 1
 663 1184 l 1
 813 1184 l 1xd0
 648 -390 l 1
 498 -390 l 1
EndSplineSet
EndChar

StartChar: question
Encoding: 63 63 392
Width: 971
VWidth: 0
Flags: W
HStem: 1 177<323 454> 1201 21G<224.534 322.862> 1548 131<445.243 732.168>
VStem: 218 142<1228.18 1466.29>
LayerCount: 2
UndoRedoHistory
Layer: 1
Undoes
EndUndoes
Redoes
EndRedoes
EndUndoRedoHistory
Fore
SplineSet
305 1 m 1
 323 178 l 1
 472 178 l 1
 454 1 l 1
 305 1 l 1
354 412 m 1
 381 665 l 1
 645 843 791 1021 816 1250 c 1
 836 1448 733 1548 599 1548 c 0
 447 1548 344 1459 360 1303 c 1
 366 1230 l 1
 227 1201 l 1
 218 1274 l 1
 187 1536 377 1679 614 1679 c 0
 840 1679 991 1534 961 1247 c 0
 932 976 764 809 509 624 c 1
 487 412 l 1
 354 412 l 1
EndSplineSet
EndChar

StartChar: questiondown
Encoding: 191 191 393
Width: 944
VWidth: 0
Flags: W
HStem: -426 131<245.047 532.193> 1076 177<524 654>
VStem: 611 140<-221.464 26.9696>
LayerCount: 2
UndoRedoHistory
Layer: 1
Undoes
EndUndoes
Redoes
EndRedoes
EndUndoRedoHistory
Fore
SplineSet
505 1076 m 1
 524 1253 l 1
 673 1253 l 1
 654 1076 l 1
 505 1076 l 1
363 -426 m 0
 138 -426 -14 -281 17 7 c 1
 45 278 214 445 469 630 c 1
 491 842 l 1
 624 842 l 1
 597 589 l 1
 333 411 186 233 162 4 c 0
 141 -195 244 -295 378 -295 c 0
 530 -295 634 -205 617 -50 c 1
 611 24 l 1
 751 53 l 1
 760 -20 l 1
 791 -282 601 -426 363 -426 c 0
EndSplineSet
EndChar

StartChar: quotedbl
Encoding: 34 34 394
Width: 729
VWidth: 0
Flags: W
HStem: 1174 484<296 327 579 610>
VStem: 246 477
LayerCount: 2
UndoRedoHistory
Layer: 1
Undoes
EndUndoes
Redoes
EndRedoes
EndUndoRedoHistory
Fore
SplineSet
529 1174 m 1
 579 1658 l 1
 723 1658 l 1
 610 1174 l 1
 529 1174 l 1
246 1174 m 1
 296 1658 l 1
 440 1658 l 1
 327 1174 l 1
 246 1174 l 1
EndSplineSet
EndChar

StartChar: quotedblbase
Encoding: 495 8222 395
Width: 809
VWidth: 0
Flags: W
HStem: -242 52<134.005 157.286 461.005 484.809> 24 201<167 228 495 556>
VStem: 113 555
LayerCount: 2
UndoRedoHistory
Layer: 1
Undoes
EndUndoes
Redoes
EndRedoes
EndUndoRedoHistory
Fore
SplineSet
469 -242 m 1
 440 -190 l 1
 520 -158 543 -103 556 24 c 1
 474 24 l 1
 495 225 l 1
 668 225 l 1
 650 55 l 2
 632 -116 588 -212 469 -242 c 1
142 -242 m 1
 113 -190 l 1
 192 -158 215 -103 228 24 c 1
 146 24 l 1
 167 225 l 1
 340 225 l 1
 322 55 l 1
 305 -116 261 -212 142 -242 c 1
EndSplineSet
EndChar

StartChar: quotedblleft
Encoding: 496 8220 396
Width: 775
VWidth: 0
Flags: W
HStem: 1250 201<322 383 648 709> 1664 53<391.755 415.844 717.755 741.844>
VStem: 210 553
LayerCount: 2
UndoRedoHistory
Layer: 1
Undoes
EndUndoes
Redoes
EndRedoes
EndUndoRedoHistory
Fore
SplineSet
536 1250 m 1
 554 1420 l 1
 571 1591 615 1686 734 1717 c 1
 763 1664 l 1
 683 1633 661 1577 648 1451 c 1
 730 1451 l 1
 709 1250 l 1
 536 1250 l 1
210 1250 m 1
 228 1420 l 1
 245 1591 289 1686 408 1717 c 1
 437 1664 l 1
 357 1633 335 1577 322 1451 c 1
 404 1451 l 1
 383 1250 l 1
 210 1250 l 1
EndSplineSet
EndChar

StartChar: quotedblright
Encoding: 497 8221 397
Width: 970
VWidth: 0
Flags: W
HStem: 1191 52<372.005 395.687 659.005 682.687> 1456 202<405 466 692 753>
VStem: 351 514
LayerCount: 2
UndoRedoHistory
Layer: 1
Undoes
EndUndoes
Redoes
EndRedoes
EndUndoRedoHistory
Fore
SplineSet
667 1191 m 1
 638 1243 l 1
 718 1275 740 1330 753 1456 c 1
 671 1456 l 1
 692 1658 l 1
 865 1658 l 1
 848 1487 l 1
 829 1317 786 1221 667 1191 c 1
380 1191 m 1
 351 1243 l 1
 431 1275 453 1330 466 1456 c 1
 384 1456 l 1
 405 1658 l 1
 578 1658 l 1
 561 1487 l 1
 542 1317 499 1221 380 1191 c 1
EndSplineSet
EndChar

StartChar: quoteleft
Encoding: 498 8216 398
Width: 582
VWidth: 0
Flags: W
HStem: 1664 53<373.755 397.844>
VStem: 192 227
LayerCount: 2
UndoRedoHistory
Layer: 1
Undoes
EndUndoes
Redoes
EndRedoes
EndUndoRedoHistory
Fore
SplineSet
192 1250 m 1
 210 1420 l 1
 227 1591 271 1686 390 1717 c 1
 419 1664 l 1
 339 1633 317 1577 304 1451 c 1
 386 1451 l 1
 365 1250 l 1
 192 1250 l 1
EndSplineSet
EndChar

StartChar: quoteright
Encoding: 499 8217 399
Width: 356
VWidth: 0
Flags: W
HStem: 1191 53<212.156 236.239> 1638 20G<242.91 418>
VStem: 191 227
LayerCount: 2
UndoRedoHistory
Layer: 1
Undoes
EndUndoes
Redoes
EndRedoes
EndUndoRedoHistory
Fore
SplineSet
220 1191 m 1
 191 1244 l 1
 271 1275 293 1331 306 1457 c 1
 224 1457 l 1
 245 1658 l 1
 418 1658 l 1
 401 1488 l 1
 382 1317 339 1222 220 1191 c 1
EndSplineSet
EndChar

StartChar: quotesinglbase
Encoding: 500 8218 400
Width: 572
VWidth: 0
Flags: W
HStem: -242 52<172.005 195.687>
VStem: 151 228
LayerCount: 2
UndoRedoHistory
Layer: 1
Undoes
EndUndoes
Redoes
EndRedoes
EndUndoRedoHistory
Fore
SplineSet
180 -242 m 1
 151 -190 l 1
 231 -158 253 -103 266 24 c 1
 184 24 l 1
 206 225 l 1
 379 225 l 1
 360 55 l 1
 343 -116 299 -212 180 -242 c 1
EndSplineSet
EndChar

StartChar: quotesingle
Encoding: 39 39 401
Width: 586
VWidth: 0
Flags: W
HStem: 1174 484<296 327>
VStem: 246 194
LayerCount: 2
UndoRedoHistory
Layer: 1
Undoes
EndUndoes
Redoes
EndRedoes
EndUndoRedoHistory
Fore
SplineSet
246 1174 m 1
 296 1658 l 1
 440 1658 l 1
 327 1174 l 1
 246 1174 l 1
EndSplineSet
EndChar

StartChar: r
Encoding: 114 114 402
Width: 610
VWidth: 0
Flags: W
HStem: 0 21G<81 233.112> 1047 150<479.235 641.574>
VStem: 81 575
LayerCount: 2
UndoRedoHistory
Layer: 1
Undoes
EndUndoes
Redoes
EndRedoes
EndUndoRedoHistory
Fore
SplineSet
81 0 m 1
 205 1184 l 1
 355 1184 l 1
 339 1021 l 1
 428 1149 540 1197 630 1197 c 0
 636 1197 647 1197 656 1196 c 1
 639 1034 l 1
 622 1041 591 1047 568 1047 c 0
 472 1047 394 1005 327 909 c 1
 231 0 l 1
 81 0 l 1
EndSplineSet
EndChar

StartChar: radical
Encoding: 502 8730 404
Width: 985
VWidth: 0
Flags: W
HStem: 0 21G<387.518 554.526> 1087 97<71 255> 1638 20G<916.5 1089>
LayerCount: 2
UndoRedoHistory
Layer: 1
Undoes
EndUndoes
Redoes
EndRedoes
EndUndoRedoHistory
Fore
SplineSet
390 0 m 1
 255 1088 l 1
 62 1087 l 1
 71 1184 l 1
 390 1184 l 1
 403 1095 435 766 447 676 c 0
 459 585 481 312 493 221 c 1
 535 352 629 664 671 794 c 0
 714 925 895 1529 938 1658 c 1
 1089 1658 l 1
 548 0 l 1
 390 0 l 1
EndSplineSet
EndChar

StartChar: registered
Encoding: 174 174 407
Width: 1795
VWidth: 0
Flags: W
HStem: -25 80<606.826 1109.53> 812 81<793 979> 1343 94<841 1157.99> 1615 81<760.322 1274.17>
CounterMasks: 1 f0
LayerCount: 2
UndoRedoHistory
Layer: 1
Undoes
EndUndoes
Redoes
EndRedoes
EndUndoRedoHistory
Fore
SplineSet
851 -25 m 0
 268 -25 79 422 122 836 c 0
 165 1251 449 1696 1032 1696 c 0
 1613 1696 1802 1251 1759 836 c 0
 1715 421 1434 -25 851 -25 c 0
859 55 m 0
 1362 55 1624 443 1666 836 c 1
 1707 1231 1526 1615 1022 1615 c 0
 516 1615 255 1231 214 836 c 0
 173 443 352 55 859 55 c 0
793 893 m 1
 961 893 l 2
 1129 893 1174 973 1190 1125 c 0
 1205 1264 1172 1343 1032 1343 c 2
 841 1343 l 1
 793 893 l 1
594 252 m 1
 718 1437 l 1
 1054 1437 l 2
 1284 1437 1344 1301 1325 1122 c 0
 1311 982 1244 870 1104 836 c 1
 1249 252 l 1
 1111 252 l 1
 979 812 l 1
 785 812 l 1
 726 252 l 1
 594 252 l 1
EndSplineSet
EndChar

StartChar: ring
Encoding: 505 730 408
Width: 590
VWidth: 0
Flags: W
HStem: 1289 81<310.915 488.138> 1598 80<326.41 503.76>
VStem: 211 391
LayerCount: 2
UndoRedoHistory
Layer: 1
Undoes
EndUndoes
Redoes
EndRedoes
EndUndoRedoHistory
Fore
SplineSet
386 1289 m 0
 281 1289 197 1355 211 1484 c 0
 224 1613 321 1678 426 1678 c 0
 531 1678 616 1613 602 1484 c 0
 589 1355 490 1289 386 1289 c 0
395 1370 m 0
 456 1370 510 1406 518 1484 c 0
 526 1563 480 1598 418 1598 c 0
 357 1598 303 1563 295 1484 c 0
 287 1406 333 1370 395 1370 c 0
EndSplineSet
EndChar

StartChar: s
Encoding: 115 115 409
Width: 743
VWidth: 0
Flags: W
HStem: -19 113<239.054 479.678> 1090 112<329.273 551.685>
VStem: 51 130<156.707 318> 592 110<891 1049.59>
AnchorPoint: "cedilla" 370 0 basechar 0
LayerCount: 2
UndoRedoHistory
Layer: 1
Undoes
EndUndoes
Redoes
EndRedoes
EndUndoRedoHistory
Fore
SplineSet
338 -19 m 0
 148 -19 46 114 51 318 c 1
 181 356 l 1
 178 175 237 94 356 94 c 0
 460 94 531 160 540 265 c 0
 546 338 512 417 421 501 c 2
 274 638 l 2
 178 727 128 809 144 935 c 0
 165 1106 284 1202 455 1202 c 0
 634 1202 711 1074 702 891 c 1
 592 856 l 1
 599 1016 551 1090 449 1090 c 0
 357 1090 289 1035 280 946 c 0
 273 875 290 826 359 760 c 1
 510 610 l 1
 600 524 687 429 672 266 c 1
 652 82 521 -19 338 -19 c 0
EndSplineSet
EndChar

StartChar: section
Encoding: 167 167 415
Width: 820
VWidth: 0
Flags: W
HStem: -18 121<278.441 511.05> 1553 122<409.429 628.202>
VStem: 75 118<200.334 302.617> 701 121<1374.5 1465.63>
LayerCount: 2
UndoRedoHistory
Layer: 1
Undoes
EndUndoes
Redoes
EndRedoes
EndUndoRedoHistory
Fore
SplineSet
516 597 m 1
 572 620 642 673 656 748 c 0
 671 823 643 889 567 958 c 2
 422 1090 l 1
 349 1065 286 1008 278 926 c 0
 273 879 294 832 333 792 c 1
 516 597 l 1
368 -18 m 0
 179 -18 97 133 75 298 c 1
 193 336 l 1
 211 221 268 103 383 103 c 0
 483 103 555 161 569 256 c 0
 579 318 570 373 450 501 c 1
 241 689 l 1
 165 753 121 826 131 925 c 0
 145 1054 236 1134 338 1170 c 1
 269 1233 203 1313 214 1416 c 0
 230 1570 358 1675 543 1675 c 0
 728 1675 796 1521 822 1379 c 1
 701 1341 l 1
 681 1427 643 1553 528 1553 c 0
 441 1553 371 1501 361 1403 c 0
 354 1339 402 1275 455 1224 c 1
 668 1049 l 1
 757 971 808 880 787 748 c 0
 768 625 690 558 603 514 c 1
 659 450 719 378 708 269 c 0
 691 87 552 -18 368 -18 c 0
EndSplineSet
EndChar

StartChar: semicolon
Encoding: 59 59 416
Width: 426
VWidth: 0
Flags: W
HStem: -57 66<105.787 144.728> 903 224<215 349>
VStem: 87 286
LayerCount: 2
UndoRedoHistory
Layer: 1
Undoes
EndUndoes
Redoes
EndRedoes
EndUndoRedoHistory
Fore
SplineSet
191 903 m 1
 215 1127 l 1
 373 1127 l 1
 349 903 l 1
 191 903 l 1
111 -57 m 1
 87 9 l 1
 167 41 192 80 201 162 c 1
 113 162 l 1
 135 373 l 1
 301 373 l 1
 281 178 l 2
 267 44 225 -26 111 -57 c 1
EndSplineSet
EndChar

StartChar: seven
Encoding: 55 55 417
Width: 887
VWidth: 0
Flags: W
HStem: 0 21G<252 404.259> 1538 120<247 737>
VStem: 235 666
LayerCount: 2
UndoRedoHistory
Layer: 1
Undoes
EndUndoes
Redoes
EndRedoes
EndUndoRedoHistory
Fore
SplineSet
252 0 m 1
 737 1538 l 1
 235 1538 l 1
 247 1658 l 1
 901 1658 l 1
 894 1585 l 1
 398 0 l 1
 252 0 l 1
EndSplineSet
EndChar

StartChar: six
Encoding: 54 54 418
Width: 1006
VWidth: 0
Flags: W
HStem: -21 126<353.265 633.366> 863 117<418.743 714.658> 1552 124<503.897 783.996>
VStem: 830 148<1259 1501.77>
CounterMasks: 1 e0
LayerCount: 2
UndoRedoHistory
Layer: 1
Undoes
EndUndoes
Redoes
EndRedoes
EndUndoRedoHistory
Fore
SplineSet
484 105 m 0
 647 105 735 206 761 456 c 0
 790 728 779 863 564 863 c 0
 468 863 366 808 321 768 c 1
 291 481 l 1
 262 214 325 105 484 105 c 0
471 -21 m 0
 200 -21 109 178 143 499 c 2
 212 1161 l 2
 244 1465 368 1676 649 1676 c 0
 899 1676 1004 1546 982 1292 c 0
 981 1288 978 1262 978 1259 c 1
 830 1259 l 1
 852 1470 801 1552 641 1552 c 0
 503 1552 394 1463 366 1195 c 2
 333 882 l 1
 388 929 493 980 611 980 c 0
 882 980 954 830 917 485 c 0
 885 180 754 -21 471 -21 c 0
EndSplineSet
EndChar

StartChar: slash
Encoding: 47 47 419
Width: 705
VWidth: 0
Flags: W
HStem: 0 21G<5 144.793> 1638 20G<643.207 783>
LayerCount: 2
UndoRedoHistory
Layer: 1
Undoes
EndUndoes
Redoes
EndRedoes
EndUndoRedoHistory
Fore
SplineSet
5 0 m 1
 651 1658 l 1
 783 1658 l 1
 137 0 l 1
 5 0 l 1
EndSplineSet
EndChar

StartChar: sterling
Encoding: 163 163 421
Width: 769
VWidth: 0
Flags: W
HStem: 0 111<263 680> 0 76<-16 36.8384> 774 112<70 183 344 605> 1557 119<468.409 683.828>
VStem: 705 114<1286 1536.07>
CounterMasks: 1 b0
LayerCount: 2
UndoRedoHistory
Layer: 1
Undoes
EndUndoes
Redoes
EndRedoes
EndUndoRedoHistory
Fore
SplineSet
-24 0 m 1x78
 -16 76 l 1x78
 113 111 l 1
 183 774 l 1
 58 774 l 1
 70 886 l 1
 194 886 l 1
 219 1120 l 2
 253 1441 309 1676 595 1676 c 0
 806 1676 842 1531 824 1337 c 1
 819 1286 l 1
 705 1286 l 1
 723 1455 714 1557 582 1557 c 0
 426 1557 400 1404 377 1203 c 1
 344 886 l 1
 616 886 l 1
 605 774 l 1
 332 774 l 1
 263 111 l 1
 692 111 l 1
 680 0 l 1xb8
 -24 0 l 1x78
EndSplineSet
EndChar

StartChar: summation
Encoding: 511 8721 422
Width: 801
VWidth: 0
Flags: W
HStem: -390 117<173 610> 1538 120<367 803>
LayerCount: 2
UndoRedoHistory
Layer: 1
Undoes
EndUndoes
Redoes
EndRedoes
EndUndoRedoHistory
Fore
SplineSet
-20 -390 m 1
 438 655 l 1
 195 1658 l 1
 815 1658 l 1
 803 1538 l 1
 367 1538 l 1
 582 655 l 1
 173 -273 l 1
 622 -273 l 1
 610 -390 l 1
 -20 -390 l 1
EndSplineSet
EndChar

StartChar: t
Encoding: 116 116 423
Width: 573
VWidth: 0
Flags: W
HStem: -15 118<317.156 476> 1084 100<117 250 410 597>
VStem: 107 500
AnchorPoint: "cedilla" 340 0 basechar 0
LayerCount: 2
UndoRedoHistory
Layer: 1
Undoes
EndUndoes
Redoes
EndRedoes
EndUndoRedoHistory
Fore
SplineSet
348 -15 m 0
 175 -15 147 92 162 246 c 1
 250 1084 l 1
 107 1084 l 1
 117 1184 l 1
 260 1184 l 1
 299 1550 l 1
 449 1550 l 1
 410 1184 l 1
 607 1184 l 1
 597 1084 l 1
 400 1084 l 1
 313 260 l 2
 301 145 315 103 402 103 c 0
 426 103 460 106 488 111 c 1
 476 -2 l 1
 434 -10 390 -15 348 -15 c 0
EndSplineSet
EndChar

StartChar: tbar
Encoding: 512 359 424
Width: 600
VWidth: 0
Flags: W
HStem: -15 118<344.156 503> 725 84<116 239.301 397.965 571> 1084 100<144 277 437 624>
VStem: 107 527
LayerCount: 2
UndoRedoHistory
Layer: 0
Undoes
EndUndoes
Redoes
EndRedoes
EndUndoRedoHistory
UndoRedoHistory
Layer: 1
Undoes
EndUndoes
Redoes
EndRedoes
EndUndoRedoHistory
Fore
SplineSet
107 725 m 1
 116 809 l 1
 248.122070312 809 l 1
 277 1084 l 1
 134 1084 l 1
 144 1184 l 1
 287 1184 l 1
 326 1550 l 1
 476 1550 l 1
 437 1184 l 1
 634 1184 l 1
 624 1084 l 1
 427 1084 l 1
 397.96484375 809 l 1
 580 809 l 1
 571 725 l 1
 389.095703125 725 l 1
 340 260 l 2
 328 145 342 103 429 103 c 0
 453 103 487 106 515 111 c 1
 503 -2 l 1
 461 -10 417 -15 375 -15 c 0
 202 -15 174 92 189 246 c 1
 239.30078125 725 l 1
 107 725 l 1
EndSplineSet
EndChar

StartChar: thorn
Encoding: 254 254 427
Width: 853
VWidth: 0
Flags: W
HStem: -390 21G<30 182.103> -19 119<299.6 523.095> 1084 118<420.023 617.088> 1638 20G<242.9 395>
LayerCount: 2
UndoRedoHistory
Layer: 1
Undoes
EndUndoes
Redoes
EndRedoes
EndUndoRedoHistory
Fore
SplineSet
418 100 m 0
 553 100 590 232 616 478 c 2
 642 730 l 1
 667 962 657 1084 519 1084 c 0
 442 1084 371 1033 326 993 c 1
 241 187 l 1
 280 140 340 100 418 100 c 0
30 -390 m 1
 245 1658 l 1
 395 1658 l 1
 336 1086 l 1
 388 1144 468 1202 574 1202 c 0
 803 1202 817 968 792 730 c 2
 766 480 l 2
 735 179 651 -19 430 -19 c 0
 334 -19 271 41 231 95 c 1
 180 -390 l 1
 30 -390 l 1
EndSplineSet
EndChar

StartChar: three
Encoding: 51 51 428
Width: 980
VWidth: 0
Flags: W
HStem: -21 124<318.233 603.756> 804 141<495 651.344> 1554 122<463.951 757.079>
CounterMasks: 1 e0
LayerCount: 2
UndoRedoHistory
Layer: 1
Undoes
EndUndoes
Redoes
EndRedoes
EndUndoRedoHistory
Fore
SplineSet
440 -21 m 0
 182 -21 88 138 114 383 c 1
 118 423 l 1
 264 423 l 1
 263 417 261 396 260 390 c 0
 243 212 288 103 454 103 c 0
 609 103 705 199 732 451 c 0
 753 655 703 797 521 803 c 0
 517 804 485 804 480 804 c 1
 495 945 l 1
 534 945 l 1
 715 948 794 1042 817 1262 c 0
 835 1434 794 1554 622 1554 c 0
 453 1554 375 1462 352 1266 c 0
 352 1260 350 1244 349 1238 c 1
 203 1238 l 1
 207 1276 l 2
 232 1519 359 1676 634 1676 c 0
 894 1676 995 1505 969 1261 c 0
 945 1028 832 905 692 873 c 1
 810 839 912 716 885 453 c 1
 855 172 723 -21 440 -21 c 0
EndSplineSet
EndChar

StartChar: threequarters
Encoding: 190 190 429
Width: 1583
VWidth: 0
Flags: W
HStem: 0 21G<392 531.987 1233 1354.15> 270 88<1063 1262 1391 1508> 748 88<269.058 434.243> 1172 90<372 456.193> 1580 89<341.681 507.218>
CounterMasks: 1 38
LayerCount: 2
UndoRedoHistory
Layer: 1
Undoes
EndUndoes
Redoes
EndRedoes
EndUndoRedoHistory
Fore
SplineSet
1063 358 m 1
 1272 358 l 1
 1321 827 l 1
 1063 358 l 1
392 0 m 1
 1138 1658 l 1
 1268 1658 l 1
 523 0 l 1
 392 0 l 1
1233 -9 m 1
 1262 270 l 1
 951 270 l 1
 960 356 l 1
 1345 1005 l 1
 1459 1005 l 1
 1391 358 l 1
 1517 358 l 1
 1508 270 l 1
 1382 270 l 1
 1352 -9 l 1
 1233 -9 l 1
334 748 m 0
 186 748 122 838 136 978 c 1
 259 976 l 1
 251 898 263 836 347 836 c 0
 422 836 465 892 476 1003 c 0
 488 1114 451 1172 363 1172 c 1
 372 1262 l 1
 461 1262 504 1306 517 1431 c 0
 527 1521 509 1580 434 1580 c 0
 348 1580 320 1524 310 1441 c 1
 187 1439 l 1
 202 1579 284 1669 442 1669 c 0
 592 1669 654 1570 639 1431 c 0
 624 1292 548 1227 462 1218 c 1
 540 1205 614 1155 598 1004 c 0
 582 851 490 748 334 748 c 0
EndSplineSet
EndChar

StartChar: threesuperior
Encoding: 179 179 430
Width: 816
VWidth: 0
Flags: W
HStem: 711 101<349.849 546.531> 1216 88<428 576.51> 1680 99<433.103 631.569>
VStem: 272 121<1500 1637.08>
CounterMasks: 1 e0
LayerCount: 2
UndoRedoHistory
Layer: 1
Undoes
EndUndoes
Redoes
EndRedoes
EndUndoRedoHistory
Fore
SplineSet
426 711 m 0
 251 711 197 821 214 977 c 1
 215 998 l 1
 336 998 l 1
 333 972 l 2
 322 870 349 812 443 812 c 0
 523 812 587 862 602 1008 c 0
 616 1138 578 1216 490 1216 c 2
 418 1216 l 1
 428 1304 l 1
 499 1304 l 2
 589 1304 634 1363 650 1514 c 0
 661 1625 626 1680 545 1680 c 0
 448 1680 406 1628 396 1528 c 2
 393 1500 l 1
 272 1500 l 1
 275 1527 l 1
 291 1681 379 1779 554 1779 c 0
 717 1779 783 1670 768 1518 c 1
 751 1362 679 1281 612 1266 c 1
 668 1244 739 1194 720 1012 c 0
 702 838 608 711 426 711 c 0
EndSplineSet
EndChar

StartChar: tilde
Encoding: 515 732 431
Width: 790
VWidth: 0
Flags: W
HStem: 1471 194
VStem: 238 94<1486 1565.01> 698 91<1574.87 1658>
LayerCount: 2
UndoRedoHistory
Layer: 1
Undoes
EndUndoes
Redoes
EndRedoes
EndUndoRedoHistory
Fore
SplineSet
609 1471 m 1
 529 1475 459 1561 406 1567 c 1
 367 1574 338 1548 332 1486 c 1
 238 1486 l 1
 245 1555 286 1680 420 1665 c 1
 497 1659 574 1574 622 1570 c 1
 665 1565 690 1590 698 1658 c 1
 789 1658 l 1
 781 1582 746 1461 609 1471 c 1
EndSplineSet
EndChar

StartChar: tildecomb
Encoding: 516 771 432
Width: 790
VWidth: 0
Flags: W
HStem: 1471 194
VStem: 238 94<1486 1565.01> 698 91<1574.87 1658>
LayerCount: 2
UndoRedoHistory
Layer: 1
Undoes
EndUndoes
Redoes
EndRedoes
EndUndoRedoHistory
Fore
SplineSet
609 1471 m 1
 529 1475 459 1561 406 1567 c 1
 367 1574 338 1548 332 1486 c 1
 238 1486 l 1
 245 1555 286 1680 420 1665 c 1
 497 1659 574 1574 622 1570 c 1
 665 1565 690 1590 698 1658 c 1
 789 1658 l 1
 781 1582 746 1461 609 1471 c 1
EndSplineSet
EndChar

StartChar: trademark
Encoding: 517 8482 433
Width: 1445
VWidth: 0
Flags: W
HStem: 1558 100<204 376 495 665>
LayerCount: 2
UndoRedoHistory
Layer: 1
Undoes
EndUndoes
Redoes
EndRedoes
EndUndoRedoHistory
Fore
SplineSet
292 761 m 1
 376 1558 l 1
 194 1558 l 1
 204 1658 l 1
 675 1658 l 1
 665 1558 l 1
 495 1558 l 1
 411 761 l 1
 292 761 l 1
684 761 m 1
 778 1658 l 1
 896 1658 l 1
 1048 964 l 1
 1354 1658 l 1
 1466 1658 l 1
 1372 761 l 1
 1274 761 l 1
 1343 1418 l 1
 1055 761 l 1
 1004 761 l 1
 851 1409 l 1
 783 761 l 1
 684 761 l 1
EndSplineSet
EndChar

StartChar: two
Encoding: 50 50 434
Width: 993
VWidth: 0
Flags: W
HStem: 0 127<245 807> 1551 125<479.224 761.406>
LayerCount: 2
UndoRedoHistory
Layer: 1
Undoes
EndUndoes
Redoes
EndRedoes
EndUndoRedoHistory
Fore
SplineSet
56 0 m 1
 67 110 l 1
 585 795 l 2
 700 947 805 1067 826 1265 c 0
 844 1442 783 1551 635 1551 c 0
 430 1551 366 1399 344 1205 c 0
 343 1202 340 1170 340 1167 c 1
 191 1167 l 1
 195 1209 l 1
 227 1512 360 1676 641 1676 c 0
 891 1676 1002 1519 975 1255 c 1
 953 1052 841 907 725 755 c 2
 245 127 l 1
 821 127 l 1
 807 0 l 1
 56 0 l 1
EndSplineSet
EndChar

StartChar: twosuperior
Encoding: 178 178 435
Width: 813
VWidth: 0
Flags: W
HStem: 725 100<334 666> 1676 103<432.272 641.553>
VStem: 264 110<1457 1611.94>
LayerCount: 2
UndoRedoHistory
Layer: 1
Undoes
EndUndoes
Redoes
EndRedoes
EndUndoRedoHistory
Fore
SplineSet
188 725 m 1
 198 823 l 1
 516 1236 l 1
 584 1327 650 1393 662 1510 c 0
 674 1621 634 1679 542 1676 c 0
 435 1673 390 1608 374 1457 c 1
 264 1457 l 1
 267 1486 l 2
 287 1676 378 1779 556 1779 c 0
 710 1779 800 1687 782 1515 c 0
 769 1391 699 1296 611 1181 c 1
 334 825 l 1
 676 825 l 1
 666 725 l 1
 188 725 l 1
EndSplineSet
EndChar

StartChar: u
Encoding: 117 117 436
Width: 843
VWidth: 0
Flags: W
HStem: -18 118<181.5 409.412> 0 21G<533 685.095> 1164 20G<181.914 335 654.89 807>
AnchorPoint: "ogonek" 672 0 basechar 0
LayerCount: 2
UndoRedoHistory
Layer: 1
Undoes
EndUndoes
Redoes
EndRedoes
EndUndoRedoHistory
Fore
SplineSet
241 -18 m 0xa0
 122 -18 68 74 85 235 c 2
 184 1184 l 1
 335 1184 l 1
 239 266 l 2
 226 144 258 100 334 100 c 0xa0
 405 100 486 149 555 217 c 1
 657 1184 l 1
 807 1184 l 1
 683 0 l 1
 533 0 l 1x60
 547 131 l 1
 461 44 354 -18 241 -18 c 0xa0
EndSplineSet
EndChar

StartChar: underscore
Encoding: 95 95 444
Width: 681
VWidth: 0
Flags: W
HStem: -218 118<-56 613>
LayerCount: 2
UndoRedoHistory
Layer: 1
Undoes
EndUndoes
Redoes
EndRedoes
EndUndoRedoHistory
Fore
SplineSet
-68 -218 m 1
 -56 -100 l 1
 625 -100 l 1
 613 -218 l 1
 -68 -218 l 1
EndSplineSet
EndChar

StartChar: uni00AD
Encoding: 173 173 446
Width: 684
VWidth: 0
Flags: W
HStem: 758 116<164 610>
VStem: 153 469
LayerCount: 2
UndoRedoHistory
Layer: 1
Undoes
EndUndoes
Redoes
EndRedoes
EndUndoRedoHistory
Fore
SplineSet
153 758 m 1
 164 874 l 1
 622 874 l 1
 610 758 l 1
 153 758 l 1
EndSplineSet
EndChar

StartChar: uni0237
Encoding: 561 567 487
Width: 436
VWidth: 0
Flags: W
HStem: -325 118<-102.226 66.1069> 1164 20G<233.897 386>
VStem: -113 499
AnchorPoint: "circumflexcomb" 215 1300 basechar 0
LayerCount: 2
UndoRedoHistory
Layer: 1
Undoes
EndUndoes
Redoes
EndRedoes
EndUndoRedoHistory
Fore
SplineSet
-113 -318 m 1
 -101 -204 l 1
 -94 -206 -59 -207 -50 -207 c 0
 75 -207 98 -129 107 -43 c 2
 236 1184 l 1
 386 1184 l 1
 256 -56 l 2
 236 -244 129 -325 -34 -325 c 0
 -54 -325 -98 -324 -113 -318 c 1
EndSplineSet
EndChar

StartChar: uni0302
Encoding: 563 770 489
Width: 673
VWidth: 0
Flags: W
HStem: 1295 363
VStem: 166 519
AnchorPoint: "circumflexcomb" 328 1225 mark 0
LayerCount: 2
UndoRedoHistory
Layer: 1
Undoes
EndUndoes
Redoes
EndRedoes
EndUndoRedoHistory
Fore
SplineSet
166 1295 m 1
 381 1658 l 1
 549 1658 l 1
 685 1295 l 1
 576 1295 l 1
 457 1584 l 1
 277 1295 l 1
 166 1295 l 1
EndSplineSet
EndChar

StartChar: uni0304
Encoding: 564 772 490
Width: 704
VWidth: 0
Flags: W
HStem: 1562 96<307 664>
VStem: 297 377
LayerCount: 2
UndoRedoHistory
Layer: 1
Undoes
EndUndoes
Redoes
EndRedoes
EndUndoRedoHistory
Fore
SplineSet
297 1562 m 1
 307 1658 l 1
 674 1658 l 1
 664 1562 l 1
 297 1562 l 1
EndSplineSet
EndChar

StartChar: uni0306
Encoding: 565 774 491
Width: 727
VWidth: 0
Flags: W
HStem: 1402 90<363.217 598.505> 1638 20G<232 333 647 752>
VStem: 238 95<1521.86 1658> 656 96<1550.08 1658>
LayerCount: 2
UndoRedoHistory
Layer: 1
Undoes
EndUndoes
Redoes
EndRedoes
EndUndoRedoHistory
Fore
SplineSet
467 1402 m 0
 300 1402 226 1497 238 1658 c 1
 333 1658 l 1
 323 1536 384 1492 476 1492 c 0
 568 1492 638 1537 656 1658 c 1
 752 1658 l 1
 731 1497 635 1402 467 1402 c 0
EndSplineSet
EndChar

StartChar: uni0307
Encoding: 566 775 492
Width: 0
VWidth: 0
Flags: W
HStem: 1434 224<72 208>
VStem: 49 182
LayerCount: 2
UndoRedoHistory
Layer: 1
Undoes
EndUndoes
Redoes
EndRedoes
EndUndoRedoHistory
Fore
SplineSet
49 1434 m 1
 72 1658 l 1
 231 1658 l 1
 208 1434 l 1
 49 1434 l 1
EndSplineSet
EndChar

StartChar: uni0308
Encoding: 567 776 493
Width: 414
VWidth: 0
Flags: W
HStem: 1477 181<92 226 428 563>
VStem: 73 509
LayerCount: 2
UndoRedoHistory
Layer: 1
Undoes
EndUndoes
Redoes
EndRedoes
EndUndoRedoHistory
Fore
SplineSet
409 1477 m 1
 428 1658 l 1
 582 1658 l 1
 563 1477 l 1
 409 1477 l 1
73 1477 m 1
 92 1658 l 1
 245 1658 l 1
 226 1477 l 1
 73 1477 l 1
EndSplineSet
EndChar

StartChar: uni030A
Encoding: 568 778 494
Width: 590
VWidth: 0
Flags: W
HStem: 1289 81<310.915 488.138> 1598 80<326.41 503.76>
VStem: 211 391
LayerCount: 2
UndoRedoHistory
Layer: 1
Undoes
EndUndoes
Redoes
EndRedoes
EndUndoRedoHistory
Fore
SplineSet
386 1289 m 0
 281 1289 197 1355 211 1484 c 0
 224 1613 321 1678 426 1678 c 0
 531 1678 616 1613 602 1484 c 0
 589 1355 490 1289 386 1289 c 0
395 1370 m 0
 456 1370 510 1406 518 1484 c 0
 526 1563 480 1598 418 1598 c 0
 357 1598 303 1563 295 1484 c 0
 287 1406 333 1370 395 1370 c 0
EndSplineSet
EndChar

StartChar: uni030C
Encoding: 569 780 495
Width: 0
VWidth: 0
Flags: W
HStem: 1319 339
VStem: -67 483
LayerCount: 2
UndoRedoHistory
Layer: 1
Undoes
EndUndoes
Redoes
EndRedoes
EndUndoRedoHistory
Fore
SplineSet
72 1319 m 1
 -67 1658 l 1
 54 1658 l 1
 149 1413 l 1
 296 1658 l 1
 416 1658 l 1
 205 1319 l 1
 72 1319 l 1
EndSplineSet
EndChar

StartChar: uni030F
Encoding: 570 783 496
Width: 562
VWidth: 0
Flags: W
HStem: 1340 318<301 325>
VStem: 443 134<1616.56 1658>
LayerCount: 2
UndoRedoHistory
Layer: 1
Undoes
EndUndoes
Redoes
EndRedoes
EndUndoRedoHistory
Fore
SplineSet
553 1340 m 1
 443 1658 l 1
 577 1658 l 1
 629 1340 l 1
 553 1340 l 1
330 1340 m 1
 166 1658 l 1
 325 1658 l 1
 407 1340 l 1
 330 1340 l 1
EndSplineSet
EndChar

StartChar: uni0311
Encoding: 571 785 497
Width: 727
VWidth: 0
Flags: W
HStem: 1568 90<368.091 596.354>
VStem: 221 96<1402 1516.21> 620 95<1402 1543.46>
LayerCount: 2
UndoRedoHistory
Layer: 1
Undoes
EndUndoes
Redoes
EndRedoes
EndUndoRedoHistory
Fore
SplineSet
221 1402 m 1
 242 1564 328 1658 496 1658 c 0
 663 1658 727 1563 715 1402 c 1
 620 1402 l 1
 630 1524 579 1568 487 1568 c 0
 395 1568 334 1524 317 1402 c 1
 221 1402 l 1
EndSplineSet
EndChar

StartChar: uni0326
Encoding: 572 806 498
Width: 402
VWidth: 0
Flags: W
HStem: -485 68<45.4645 72.2764> -262 181<64 132>
VStem: 21 210
LayerCount: 2
UndoRedoHistory
Layer: 1
Undoes
EndUndoes
Redoes
EndRedoes
EndUndoRedoHistory
Fore
SplineSet
52 -485 m 1
 21 -417 l 1
 101 -386 126 -319 132 -262 c 1
 45 -262 l 1
 64 -81 l 1
 231 -81 l 1
 214 -241 l 2
 199 -375 165 -455 52 -485 c 1
EndSplineSet
EndChar

StartChar: uni0490
Encoding: 577 1168 503
Width: 767
VWidth: 0
Flags: W
HStem: 0 21G<99 258.104> 1540 118<418 768>
LayerCount: 2
UndoRedoHistory
Layer: 1
Undoes
EndUndoes
Redoes
EndRedoes
EndUndoRedoHistory
Fore
SplineSet
99 0 m 1
 273 1658 l 1
 768 1658 l 1
 788 1854 l 1
 890 1854 l 1
 857 1540 l 1
 418 1540 l 1
 256 0 l 1
 99 0 l 1
EndSplineSet
EndChar

StartChar: uni04AE
Encoding: 578 -1 504
Width: 911
VWidth: 0
Flags: W
HStem: 0 21G<341 495.086> 1638 20G<139 297.662 867.467 1030>
LayerCount: 2
UndoRedoHistory
Layer: 1
Undoes
EndUndoes
Redoes
EndRedoes
EndUndoRedoHistory
Fore
SplineSet
341 0 m 1
 417 719 l 1
 139 1658 l 1
 292 1658 l 1
 431 1167 l 1
 509 885 l 1
 642 1165 l 1
 877 1658 l 1
 1030 1658 l 1
 568 719 l 1
 493 0 l 1
 341 0 l 1
EndSplineSet
EndChar

StartChar: uni04AF
Encoding: 579 1199 505
Width: 776
VWidth: 0
Flags: W
HStem: 1164 20G<119 271.42 666.452 824>
LayerCount: 2
UndoRedoHistory
Layer: 1
Undoes
EndUndoes
Redoes
EndRedoes
EndUndoRedoHistory
Fore
SplineSet
240 -325 m 1
 279 48 l 1
 119 1184 l 1
 269 1184 l 1
 378 283 l 1
 673 1184 l 1
 824 1184 l 1
 419 51 l 1
 379 -325 l 1
 240 -325 l 1
EndSplineSet
EndChar

StartChar: uni04B0
Encoding: 580 1200 506
Width: 911
VWidth: 0
Flags: W
HStem: 0 21G<341 495.086> 640 111<94 407.526 583.744 869> 1638 20G<139 297.662 867.467 1030>
LayerCount: 2
UndoRedoHistory
Layer: 1
Undoes
EndUndoes
Redoes
EndRedoes
EndUndoRedoHistory
Fore
SplineSet
82 640 m 1
 94 751 l 1
 407.526091587 751 l 1
 139 1658 l 1
 292 1658 l 1
 431 1167 l 1
 509 885 l 1
 642 1165 l 1
 877 1658 l 1
 1030 1658 l 1
 583.744408946 751 l 1
 881 751 l 1
 869 640 l 1
 559.759388039 640 l 1
 493 0 l 1
 341 0 l 1
 408.649513213 640 l 1
 82 640 l 1
EndSplineSet
EndChar

StartChar: uni04B1
Encoding: 581 1201 507
Width: 782
VWidth: 0
Flags: W
HStem: -16 102<64 272.308 431.511 632> 1164 20G<119 271.42 666.452 824>
LayerCount: 2
UndoRedoHistory
Layer: 1
Undoes
EndUndoes
Redoes
EndRedoes
EndUndoRedoHistory
Fore
SplineSet
53 -16 m 1
 64 86 l 1
 273.647887324 86 l 1
 119 1184 l 1
 269 1184 l 1
 378 283 l 1
 673 1184 l 1
 824 1184 l 1
 431.511032657 86 l 1
 642 86 l 1
 632 -16 l 1
 411.872340426 -16 l 1
 379 -325 l 1
 240 -325 l 1
 272.308310992 -16 l 1
 53 -16 l 1
EndSplineSet
EndChar

StartChar: uni04E8
Encoding: 582 1256 508
Width: 1084
VWidth: 0
Flags: W
HStem: -21 126<342.371 668.622> 786 111<318.452 842.76> 1552 124<485.192 814.933>
LayerCount: 2
UndoRedoHistory
Layer: 1
Undoes
EndUndoes
Redoes
EndRedoes
EndUndoRedoHistory
Fore
SplineSet
490 -21 m 0
 161 -21 86 189 118 490 c 2
 190 1178 l 2
 221 1478 346 1676 668 1676 c 0
 990 1676 1073 1476 1042 1178 c 2
 969 488 l 2
 938 189 817 -21 490 -21 c 0
503 105 m 0
 722 105 786 246 808 456 c 2
 842.76 786 l 1
 306.76 786 l 1
 272 456 l 2
 250 246 284 105 503 105 c 0
318.452 897 m 1
 854.452 897 l 1
 887 1206 l 2
 909 1416 875 1552 656 1552 c 0
 437 1552 373 1416 351 1206 c 2
 318.452 897 l 1
EndSplineSet
EndChar

StartChar: uni04E9
Encoding: 583 1257 509
Width: 816
VWidth: 0
Flags: W
HStem: -19 113<265.901 487.156> 567 99<267.459 587.811> 1090 112<362.731 583.983>
LayerCount: 2
UndoRedoHistory
Layer: 1
Undoes
EndUndoes
Redoes
EndRedoes
EndUndoRedoHistory
Fore
SplineSet
361 -19 m 0
 115 -19 62 142 92 428 c 2
 127 756 l 2
 157 1040 243 1202 489 1202 c 0
 735 1202 788 1042 758 756 c 2
 724 428 l 1
 693 142 607 -19 361 -19 c 0
373 94 m 0
 527 94 552 228 572 420 c 2
 587.811046512 567 l 1
 256.811046512 567 l 1
 241 420 l 2
 221 228 218 94 373 94 c 0
267.459302326 666 m 1
 598.459302326 666 l 1
 609 764 l 1
 628 956 632 1090 477 1090 c 0
 323 1090 297 956 278 764 c 1
 267.459302326 666 l 1
EndSplineSet
EndChar

StartChar: uni2074
Encoding: 598 8308 524
Width: 730
VWidth: 0
Flags: W
HStem: 853 87<250 461 590 707> 1638 20G<539.694 665>
VStem: 135 581
LayerCount: 2
UndoRedoHistory
Layer: 1
Undoes
EndUndoes
Redoes
EndRedoes
EndUndoRedoHistory
Fore
SplineSet
250 940 m 1
 471 940 l 1
 525 1455 l 1
 250 940 l 1
429 544 m 1
 461 853 l 1
 135 853 l 1
 144 938 l 1
 551 1658 l 1
 665 1658 l 1
 590 940 l 1
 716 940 l 1
 707 853 l 1
 581 853 l 1
 548 544 l 1
 429 544 l 1
EndSplineSet
EndChar

StartChar: uni2215
Encoding: 599 8725 525
Width: 705
VWidth: 0
Flags: W
HStem: 0 21G<5 144.793> 1638 20G<643.207 783>
LayerCount: 2
UndoRedoHistory
Layer: 1
Undoes
EndUndoes
Redoes
EndRedoes
EndUndoRedoHistory
Fore
SplineSet
5 0 m 1
 651 1658 l 1
 783 1658 l 1
 137 0 l 1
 5 0 l 1
EndSplineSet
EndChar

StartChar: uni2219
Encoding: 600 8729 526
Width: 385
VWidth: 0
Flags: W
HStem: 683 180<177 311>
VStem: 159 170
LayerCount: 2
UndoRedoHistory
Layer: 1
Undoes
EndUndoes
Redoes
EndRedoes
EndUndoRedoHistory
Fore
SplineSet
159 683 m 1
 177 863 l 1
 329 863 l 1
 311 683 l 1
 159 683 l 1
EndSplineSet
EndChar

StartChar: uniFB01
Encoding: 602 64257 528
Width: 927
VWidth: 0
Flags: W
HStem: 0 21G<145 296.102 595 747.095> 1075 109<115 258 418 708> 1347 204<769 887> 1491 116<462.907 638.616>
LayerCount: 2
UndoRedoHistory
Layer: 1
Undoes
EndUndoes
Redoes
EndRedoes
EndUndoRedoHistory
Fore
SplineSet
747 1347 m 1xe0
 769 1551 l 1
 908 1551 l 1
 887 1347 l 1
 747 1347 l 1xe0
145 0 m 1
 258 1075 l 1
 104 1075 l 1
 115 1184 l 1
 269 1184 l 1
 282 1307 l 2
 301 1492 351 1607 543 1607 c 0
 574 1607 617 1602 650 1595 c 1
 638 1482 l 1
 610 1487 581 1491 557 1491 c 0xd0
 467 1491 446 1446 433 1323 c 2
 418 1184 l 1
 869 1184 l 1
 745 0 l 1
 595 0 l 1
 708 1075 l 1
 407 1075 l 1
 294 0 l 1
 145 0 l 1
EndSplineSet
EndChar

StartChar: uniFB02
Encoding: 603 64258 529
Width: 964
VWidth: 0
Flags: W
HStem: 0 21G<145 296.102 640 792.107> 1075 109<115 258 418 599> 1521 113<494.822 794.488>
LayerCount: 2
UndoRedoHistory
Layer: 1
Undoes
EndUndoes
Redoes
EndRedoes
EndUndoRedoHistory
Fore
SplineSet
145 0 m 1
 258 1075 l 1
 104 1075 l 1
 115 1184 l 1
 269 1184 l 1
 282 1307 l 2
 298 1455 330 1634 651 1634 c 0
 733 1634 834 1622 958 1595 c 1
 790 0 l 1
 640 0 l 1
 798 1510 l 1
 743 1517 697 1521 657 1521 c 0
 459 1521 444 1428 431 1304 c 2
 418 1184 l 1
 610 1184 l 1
 599 1075 l 1
 407 1075 l 1
 294 0 l 1
 145 0 l 1
EndSplineSet
EndChar

StartChar: uniFB03
Encoding: 604 64259 530
Width: 1438
VWidth: 0
Flags: W
HStem: 0 21G<145 296.102 627 779.102 1106 1258.09> 1075 109<115 258 418 740 901 1219> 1347 204<1269 1398> 1493 115<463.223 638.392 946.222 1120.39>
LayerCount: 2
UndoRedoHistory
Layer: 1
Undoes
EndUndoes
Redoes
EndRedoes
EndUndoRedoHistory
Fore
SplineSet
1247 1347 m 1xe0
 1269 1551 l 1
 1419 1551 l 1
 1398 1347 l 1
 1247 1347 l 1xe0
145 0 m 1
 258 1075 l 1
 104 1075 l 1
 115 1184 l 1
 269 1184 l 1
 282 1307 l 2
 300 1483 334 1608 530 1608 c 0
 572 1608 609 1603 650 1595 c 1
 638 1482 l 1
 613 1486 579 1493 554 1493 c 0
 464 1493 445 1437 433 1323 c 2
 418 1184 l 1
 751 1184 l 1
 764 1307 l 2
 783 1483 817 1608 1013 1608 c 0
 1055 1608 1092 1603 1132 1595 c 1
 1120 1482 l 1
 1095 1486 1062 1493 1037 1493 c 0xd0
 947 1493 928 1437 916 1323 c 2
 901 1184 l 1
 1380 1184 l 1
 1256 0 l 1
 1106 0 l 1
 1219 1075 l 1
 890 1075 l 1
 777 0 l 1
 627 0 l 1
 740 1075 l 1
 407 1075 l 1
 294 0 l 1
 145 0 l 1
EndSplineSet
EndChar

StartChar: v
Encoding: 118 118 535
Width: 753
VWidth: 0
Flags: W
HStem: 0 21G<246.736 432.25> 1164 20G<115 268.721 644.144 796>
VStem: 115 152<1057.33 1184>
LayerCount: 2
UndoRedoHistory
Layer: 1
Undoes
EndUndoes
Redoes
EndRedoes
EndUndoRedoHistory
Fore
SplineSet
249 0 m 1
 115 1184 l 1
 267 1184 l 1
 354 173 l 1
 650 1184 l 1
 796 1184 l 1
 426 0 l 1
 249 0 l 1
EndSplineSet
EndChar

StartChar: w
Encoding: 119 119 536
Width: 1177
VWidth: 0
Flags: W
HStem: 0 21G<210.834 368.94 734.193 882.321> 1164 20G<143 271.91 599.156 735.726 1060.01 1192>
VStem: 143 128<938.003 1184>
LayerCount: 2
UndoRedoHistory
Layer: 1
Undoes
EndUndoes
Redoes
EndRedoes
EndUndoRedoHistory
Fore
SplineSet
212 0 m 1
 143 1184 l 1
 271 1184 l 1
 316 195 l 1
 605 1184 l 1
 734 1184 l 1
 819 199 l 1
 1065 1184 l 1
 1192 1184 l 1
 877 0 l 1
 736 0 l 1
 649 963 l 1
 363 0 l 1
 212 0 l 1
EndSplineSet
EndChar

StartChar: x
Encoding: 120 120 541
Width: 778
VWidth: 0
Flags: W
HStem: 0 21G<-12 143.987 552.661 703> 1164 20G<125 281.281 659.986 822>
LayerCount: 2
UndoRedoHistory
Layer: 1
Undoes
EndUndoes
Redoes
EndRedoes
EndUndoRedoHistory
Fore
SplineSet
-12 0 m 1
 333 619 l 1
 125 1184 l 1
 274 1184 l 1
 432 750 l 1
 671 1184 l 1
 822 1184 l 1
 485 602 l 1
 703 0 l 1
 560 0 l 1
 389 466 l 1
 133 0 l 1
 -12 0 l 1
EndSplineSet
EndChar

StartChar: y
Encoding: 121 121 542
Width: 780
VWidth: 0
Flags: W
HStem: -295 117<19 233.033> 1164 20G<119 270.986 666.962 824>
VStem: 119 150<1073.24 1184>
LayerCount: 2
UndoRedoHistory
Layer: 1
Undoes
EndUndoes
Redoes
EndRedoes
EndUndoRedoHistory
Fore
SplineSet
6 -295 m 1
 19 -178 l 1
 238 -178 274 -132 272 -23 c 1
 270 22 261 86 254 141 c 2
 119 1184 l 1
 269 1184 l 1
 369 177 l 1
 673 1184 l 1
 824 1184 l 1
 404 -85 l 2
 353 -237 245 -295 45 -295 c 2
 6 -295 l 1
EndSplineSet
EndChar

StartChar: yen
Encoding: 165 165 546
Width: 889
VWidth: 0
Flags: W
HStem: 0 21G<339 493.133> 225 100<169 362 525 716> 510 98<199 383 574 746> 1638 20G<139 296.365 868.661 1030>
LayerCount: 2
UndoRedoHistory
Layer: 1
Undoes
EndUndoes
Redoes
EndRedoes
EndUndoRedoHistory
Fore
SplineSet
339 0 m 1
 362 225 l 1
 158 225 l 1
 169 325 l 1
 373 325 l 1
 392 510 l 1
 188 510 l 1
 199 608 l 1
 383 608 l 1
 139 1658 l 1
 292 1658 l 1
 493 737 l 1
 877 1658 l 1
 1030 1658 l 1
 574 608 l 1
 756 608 l 1
 746 510 l 1
 545 510 l 1
 525 325 l 1
 726 325 l 1
 716 225 l 1
 515 225 l 1
 491 0 l 1
 339 0 l 1
EndSplineSet
EndChar

StartChar: z
Encoding: 122 122 548
Width: 683
VWidth: 0
Flags: W
HStem: 0 114<193 574> 1070 114<187 537>
LayerCount: 2
UndoRedoHistory
Layer: 1
Undoes
EndUndoes
Redoes
EndRedoes
EndUndoRedoHistory
Fore
SplineSet
21 0 m 1
 32 105 l 1
 537 1070 l 1
 175 1070 l 1
 187 1184 l 1
 706 1184 l 1
 697 1095 l 1
 193 114 l 1
 586 114 l 1
 574 0 l 1
 21 0 l 1
EndSplineSet
EndChar

StartChar: zero
Encoding: 48 48 552
Width: 1008
VWidth: 0
Flags: W
HStem: -21 121<334.187 615.686> 1557 119<477.74 758.006>
LayerCount: 2
UndoRedoHistory
Layer: 1
Undoes
EndUndoes
Redoes
EndRedoes
EndUndoRedoHistory
Fore
SplineSet
457 -21 m 0
 162 -21 83 185 113 469 c 2
 188 1189 l 2
 219 1477 344 1676 635 1676 c 0
 926 1676 1010 1477 980 1189 c 2
 905 469 l 2
 875 183 754 -21 457 -21 c 0
470 100 m 0
 659 100 729 258 750 456 c 2
 828 1201 l 2
 849 1402 814 1557 623 1557 c 0
 433 1557 363 1402 342 1201 c 2
 264 456 l 2
 243 258 281 100 470 100 c 0
EndSplineSet
EndChar
